{"glyphs":{"0":{"ha":561,"x_min":1,"x_max":490,"o":"m 461 654 q 489 517 483 592 q 490 461 490 489 q 483 350 490 413 q 449 216 475 288 q 383 93 424 144 q 289 17 343 42 q 210 -1 253 -1 q 168 3 189 -1 q 76 47 113 14 q 18 131 40 81 q 1 214 3 163 l 1 239 q 8 330 1 279 q 34 443 15 381 q 81 562 53 506 q 145 665 108 618 q 226 740 182 713 q 251 752 240 749 q 271 757 261 756 q 289 760 281 758 q 307 765 297 761 q 322 768 313 768 q 344 765 329 768 q 383 749 360 763 q 427 711 406 735 q 461 654 449 688 m 363 181 q 422 346 407 261 q 433 463 433 407 q 430 530 433 483 q 403 633 426 576 q 346 717 379 690 q 340 718 343 718 q 301 693 329 718 q 239 608 274 668 q 173 459 204 549 q 132 254 142 369 q 131 231 131 243 q 140 166 131 200 q 165 103 149 132 q 203 61 182 75 q 228 50 217 50 q 239 53 233 50 q 310 106 276 68 q 363 181 343 144 z "},"1":{"ha":321,"x_min":1,"x_max":250,"o":"m 250 722 q 249 659 250 686 q 247 605 249 632 q 241 549 244 578 q 234 479 238 519 q 226 384 231 439 q 218 254 222 329 q 213 110 213 163 q 209 29 213 57 q 197 -9 206 1 q 165 -25 188 -19 q 150 -26 158 -26 q 136 -26 146 -26 q 113 -22 126 -26 q 89 -5 99 -17 q 79 26 79 7 l 79 68 q 83 230 79 149 q 94 386 88 311 q 109 519 101 461 q 121 619 117 578 q 124 644 122 628 q 126 680 125 661 q 129 717 128 699 q 131 744 131 735 q 89 717 104 732 q 62 690 74 701 q 39 674 50 679 q 26 671 33 671 q 11 674 19 671 q 1 685 1 676 q 2 692 1 686 q 15 710 3 697 q 49 740 28 724 q 94 775 69 757 q 115 792 103 781 q 142 810 126 803 q 177 819 158 818 q 217 806 196 819 q 242 768 235 794 q 250 722 250 742 z "},"2":{"ha":435,"x_min":1,"x_max":364,"o":"m 356 8 q 364 -1 363 4 l 364 -4 q 358 -14 364 -10 q 339 -21 353 -18 q 318 -24 331 -24 q 301 -22 311 -24 q 176 -15 239 -15 q 50 -15 114 -14 q 1 8 3 -15 l 1 11 q 22 69 1 35 q 156 354 114 225 q 206 574 197 483 q 208 635 208 607 q 200 707 208 679 q 174 740 189 740 q 164 738 169 740 q 122 697 140 721 q 92 643 104 672 q 78 583 81 614 q 76 557 76 569 q 79 522 76 539 l 79 519 q 74 508 79 513 q 60 504 67 504 q 51 504 57 504 q 35 512 44 504 q 24 536 25 519 q 22 563 22 549 q 41 656 22 604 q 113 754 60 707 q 171 782 135 774 q 194 785 182 785 q 244 773 217 785 q 297 724 272 761 q 326 617 322 686 q 328 586 328 601 q 313 459 328 528 q 270 314 299 390 q 202 165 242 238 q 119 32 163 93 q 114 22 117 26 l 114 21 q 115 18 114 19 q 185 13 139 13 q 292 8 231 13 l 301 8 q 329 13 319 8 q 338 14 333 14 q 356 8 346 14 z "},"3":{"ha":439,"x_min":1,"x_max":369,"o":"m 218 490 q 299 428 265 471 q 351 330 333 386 q 369 209 369 274 q 346 82 368 144 q 302 19 331 43 q 239 -12 274 -4 q 197 -18 218 -18 q 156 -14 182 -18 q 100 11 131 -10 q 32 63 54 42 q 4 100 10 85 q 1 111 1 106 q 6 122 1 117 q 22 127 11 126 q 47 122 33 128 q 65 107 60 117 q 107 66 78 88 q 158 32 136 44 q 181 25 171 25 q 188 26 182 25 q 204 42 193 26 q 242 151 235 83 q 244 199 244 175 q 233 298 244 243 q 193 405 222 353 q 125 468 164 457 q 96 492 101 474 q 93 503 93 497 q 103 528 93 515 q 127 559 113 542 q 153 597 142 576 q 174 644 165 618 q 178 678 178 660 q 176 701 178 689 q 174 721 175 711 q 164 735 172 731 q 160 736 163 736 q 138 725 151 736 q 107 692 124 714 q 76 641 90 671 q 58 581 63 611 q 33 560 57 560 l 28 560 q 4 583 4 563 q 6 599 4 585 q 18 644 7 613 q 72 735 38 703 q 144 778 107 768 q 179 782 163 782 q 225 774 199 782 q 273 738 251 765 q 297 671 294 711 l 297 667 q 269 578 297 626 q 240 534 254 550 q 219 510 226 518 q 210 499 211 501 l 210 497 q 218 490 210 494 z "},"4":{"ha":614,"x_min":0,"x_max":544,"o":"m 496 793 q 517 790 508 793 q 533 770 526 786 q 542 723 539 754 q 544 638 544 692 q 542 499 544 582 q 533 300 539 417 q 529 172 529 222 l 529 128 q 529 84 529 107 q 529 44 529 61 q 527 18 529 28 q 520 0 525 8 q 506 -24 515 -8 q 483 -36 500 -32 q 471 -37 478 -37 q 445 -32 460 -37 q 417 -6 431 -26 q 403 54 403 14 q 400 124 403 89 q 399 158 399 142 q 400 193 399 176 q 403 283 401 253 q 406 328 406 314 q 403 340 406 340 q 393 339 400 340 q 355 333 389 339 q 280 321 321 328 q 202 308 239 314 q 153 300 165 301 q 108 288 125 294 q 76 276 90 281 q 51 271 63 272 l 46 271 q 22 275 36 271 q 0 297 0 282 q 6 317 0 303 q 42 385 11 332 q 119 531 74 439 q 207 768 164 622 q 226 792 211 781 q 258 806 240 803 l 265 806 q 291 797 278 806 q 308 758 304 788 l 308 746 q 298 669 308 717 q 251 536 288 621 q 149 350 210 439 l 143 344 q 142 339 142 342 l 142 335 q 178 339 146 335 q 251 349 211 343 q 326 359 290 354 q 374 367 363 364 q 400 374 392 369 q 410 393 408 379 q 413 432 413 407 q 416 501 413 457 q 428 610 419 544 q 458 768 438 675 q 496 793 464 793 z "},"5":{"ha":456,"x_min":1,"x_max":386,"o":"m 364 388 q 386 260 385 332 l 386 253 q 361 124 386 185 q 279 24 336 63 q 167 -7 235 -7 q 125 -4 147 -7 q 36 19 63 3 q 8 53 10 36 l 8 54 q 26 78 8 68 q 49 82 36 82 q 75 78 61 82 q 90 71 88 75 q 95 63 93 67 q 102 53 97 58 q 122 44 107 49 q 138 42 131 42 q 169 51 151 42 q 203 82 186 61 q 231 130 219 103 q 246 181 242 157 q 254 271 254 226 q 253 315 254 282 q 239 388 251 347 q 206 451 226 429 q 169 468 189 468 q 158 467 164 468 q 123 453 133 460 q 108 440 113 446 q 100 428 104 433 q 82 419 96 424 q 65 417 74 417 q 49 417 57 417 q 14 426 25 418 q 1 467 3 435 l 1 475 q 10 568 1 507 q 36 746 18 629 q 64 775 40 768 q 93 779 68 776 q 151 785 118 782 q 218 791 183 789 q 276 793 253 793 q 321 785 310 793 q 329 771 329 778 q 328 764 329 769 q 314 751 326 758 q 288 743 301 743 l 264 743 q 211 741 240 743 q 146 739 182 739 q 132 736 133 739 q 131 725 131 733 q 131 712 131 722 q 133 668 132 701 l 133 654 q 129 574 133 622 q 125 515 125 532 l 125 510 q 136 501 125 501 l 142 501 q 190 506 167 506 q 286 484 236 506 q 364 388 336 463 z "},"6":{"ha":378,"x_min":3,"x_max":308,"o":"m 250 274 q 301 211 289 253 q 308 163 308 186 q 302 112 308 143 q 272 44 296 81 q 217 -1 247 8 q 154 -12 182 -12 q 99 -1 131 -12 q 44 53 68 11 q 10 157 19 96 q 3 258 3 204 q 3 317 3 274 q 15 433 4 360 q 44 573 26 507 q 81 692 61 639 q 122 774 101 744 q 164 799 136 793 q 178 800 171 800 q 211 790 197 800 q 221 775 221 783 q 217 754 221 767 q 175 585 190 653 q 151 471 160 518 q 139 391 143 424 q 132 328 135 358 l 132 322 q 137 308 132 311 q 156 303 142 304 q 192 297 169 301 q 250 274 215 292 m 242 157 q 243 181 243 169 q 220 241 243 219 q 151 274 197 263 l 146 274 q 138 272 142 274 q 132 263 133 269 q 131 250 131 257 q 131 239 131 243 q 142 148 133 197 q 171 61 151 99 q 182 49 178 49 l 183 49 q 197 58 188 49 q 227 104 217 79 q 242 157 238 129 z "},"7":{"ha":483,"x_min":1,"x_max":413,"o":"m 407 414 q 413 404 413 410 q 409 396 413 401 q 378 389 406 390 q 338 383 344 388 q 331 363 332 378 q 310 170 315 253 q 296 36 306 88 q 265 -35 286 -15 q 232 -47 253 -47 q 196 -40 215 -47 q 175 -19 181 -36 q 169 32 169 -3 q 175 122 169 67 q 189 258 181 176 q 199 332 194 307 q 201 360 201 350 q 201 368 201 363 q 190 373 200 374 q 157 372 181 372 q 142 374 149 374 q 121 371 131 374 q 93 368 107 368 l 83 368 q 53 383 53 371 q 89 399 53 396 q 161 404 136 403 q 197 407 186 406 q 210 413 208 408 q 213 425 211 417 q 248 594 231 531 q 275 690 265 657 q 283 729 283 718 l 283 732 q 267 740 282 740 q 252 740 264 740 q 197 733 240 739 q 125 729 168 729 q 79 731 104 729 q 65 728 74 731 q 46 722 57 722 q 32 724 42 722 q 12 731 22 725 q 1 743 1 736 l 1 744 q 17 756 1 750 q 53 761 33 761 q 208 767 146 761 q 308 772 271 772 q 361 760 346 772 q 378 714 376 749 l 378 706 q 367 608 378 671 q 340 439 357 546 q 339 428 339 432 q 341 422 339 424 q 354 419 343 419 q 388 420 378 419 q 407 414 397 421 z "},"8":{"ha":404,"x_min":1,"x_max":333,"o":"m 235 407 q 326 194 310 286 q 333 121 333 154 q 315 30 333 76 q 243 -40 297 -17 q 176 -54 213 -54 q 119 -46 150 -54 q 31 16 58 -31 q 1 122 3 63 l 1 129 q 22 247 1 186 q 78 354 42 307 q 81 360 79 357 q 82 365 82 363 l 82 369 q 88 381 82 378 q 99 386 93 385 q 110 390 106 388 q 111 393 111 392 q 107 403 111 396 q 62 488 86 440 q 22 583 38 535 q 8 668 8 626 q 9 694 8 671 q 42 747 10 718 q 122 793 81 785 q 154 796 139 796 q 204 785 176 796 q 260 744 232 775 q 300 674 288 714 q 310 610 310 643 q 307 569 310 599 q 278 496 304 540 q 248 453 260 467 q 232 432 236 439 q 228 422 228 426 l 228 419 q 235 407 228 417 m 142 757 q 104 706 108 738 q 103 685 103 696 q 113 627 103 660 q 146 553 124 594 q 189 478 168 513 q 196 472 193 472 q 203 476 200 472 q 251 601 246 539 l 251 610 q 200 733 251 668 q 172 758 185 750 q 158 763 165 763 q 142 757 150 763 m 189 31 q 208 103 207 63 l 208 114 q 200 187 208 149 q 176 264 192 225 q 144 335 161 303 q 135 346 138 346 q 125 336 132 346 q 87 257 103 303 q 67 165 71 211 q 65 143 65 154 q 76 73 65 110 q 121 10 88 36 q 153 -3 139 -3 q 163 -2 154 -3 q 189 31 172 -1 z "},"9":{"ha":499,"x_min":0,"x_max":429,"o":"m 425 732 q 426 695 425 708 q 428 663 428 682 q 428 612 429 644 q 421 517 426 579 q 401 263 408 360 q 384 110 393 167 q 359 25 375 53 q 314 -22 343 -3 q 280 -45 296 -33 q 247 -66 264 -57 q 214 -78 231 -75 q 200 -79 207 -79 q 175 -75 188 -79 q 153 -61 158 -69 q 151 -57 151 -60 q 163 -43 151 -51 q 206 -6 189 -24 q 233 38 222 13 q 251 99 244 63 q 263 193 257 136 q 276 333 269 250 q 294 533 283 417 l 290 533 q 238 442 258 483 q 194 374 217 401 q 142 335 171 346 q 101 328 125 328 q 64 332 85 328 q 25 349 39 336 q 6 378 11 361 q 0 418 0 396 q 4 465 0 440 q 17 531 10 497 q 33 599 24 565 q 56 665 43 633 q 88 724 69 697 q 124 758 100 743 q 176 779 147 774 q 196 781 186 781 q 241 773 215 781 q 294 736 267 765 q 315 711 304 725 q 331 742 325 731 q 351 758 336 753 q 374 762 361 761 q 398 760 386 763 q 417 751 410 757 q 425 732 425 744 m 283 640 q 289 656 289 647 q 285 669 289 663 q 260 701 274 686 q 231 729 247 717 q 211 738 217 739 q 197 722 206 738 q 169 651 182 697 q 147 556 157 604 q 133 469 138 508 q 129 426 129 439 l 129 421 q 135 424 133 422 q 151 446 138 426 q 195 510 165 465 q 283 640 225 554 z "},"\u0000":{"ha":0,"x_min":0,"x_max":0,"o":""}," ":{"ha":521,"x_min":0,"x_max":0,"o":""},"E":{"ha":732,"x_min":0,"x_max":819,"o":"m 761 272 q 776 288 765 282 q 797 294 786 293 q 815 289 808 294 q 819 279 819 286 q 818 271 819 275 q 794 209 811 250 q 755 122 776 168 q 713 33 733 76 q 679 -32 692 -10 q 629 -111 658 -72 q 565 -181 600 -150 q 487 -233 529 -212 q 394 -256 444 -253 l 374 -256 q 253 -220 303 -256 q 178 -122 203 -185 q 154 10 154 -62 q 154 55 154 14 q 176 170 154 96 q 241 307 199 244 q 340 401 283 369 q 347 413 347 406 q 346 419 347 415 q 311 496 322 458 q 303 554 303 522 q 304 578 303 565 q 294 593 304 592 q 240 607 267 600 q 193 613 217 613 l 183 613 q 108 584 139 610 q 64 524 76 558 q 57 483 57 503 q 64 441 57 467 q 108 394 71 415 q 117 392 113 392 q 131 397 124 392 q 156 430 149 414 q 165 458 163 446 q 173 478 168 471 q 193 488 178 486 l 197 488 q 219 479 213 488 q 224 464 224 474 q 222 453 224 460 q 176 379 211 406 q 122 361 153 361 q 88 367 106 361 q 14 422 35 382 q 0 479 0 450 q 6 524 0 494 q 50 591 11 553 q 156 639 89 629 q 199 643 178 643 q 238 639 214 643 q 293 628 263 635 q 306 626 301 626 q 309 627 307 626 q 314 642 311 628 q 375 775 332 724 q 469 851 418 826 q 572 876 521 876 q 656 854 622 876 q 690 794 686 833 l 690 786 q 667 710 690 750 q 591 635 644 671 q 454 585 538 599 q 437 579 439 582 q 435 563 435 576 l 435 554 q 444 492 435 522 q 464 439 454 463 q 474 401 474 415 q 454 381 475 386 q 397 340 425 374 q 344 256 368 306 q 306 144 321 206 q 289 24 290 83 l 289 6 q 302 -97 289 -46 q 353 -183 315 -147 q 401 -206 375 -206 q 435 -197 417 -206 q 606 -40 529 -157 q 761 272 682 78 m 444 631 l 444 625 q 454 614 444 614 l 461 615 q 553 654 518 629 q 608 706 589 679 q 631 761 626 733 q 632 775 632 768 q 625 808 632 793 q 601 829 618 824 q 592 831 597 831 q 561 819 578 831 q 490 748 522 796 q 444 631 457 700 z "},"F":{"ha":694,"x_min":1,"x_max":946,"o":"m 926 882 l 933 882 q 946 875 943 882 l 946 872 q 940 849 946 863 q 918 822 933 836 q 886 800 903 807 q 803 785 854 786 q 751 783 778 783 q 683 785 725 783 q 588 794 642 788 q 499 803 535 800 q 472 722 482 769 q 456 621 463 674 q 449 515 450 568 q 447 419 447 463 l 447 381 q 448 340 447 363 q 449 311 449 317 q 491 312 458 311 q 558 311 524 313 q 621 306 593 310 q 646 290 646 301 l 646 289 q 629 274 643 279 q 613 269 619 269 q 607 271 610 269 q 577 274 597 274 q 534 275 557 275 q 489 274 511 275 q 454 271 467 272 q 456 153 456 208 q 450 -31 456 61 q 423 -192 444 -122 q 362 -294 401 -261 q 260 -332 322 -326 q 238 -333 249 -333 q 153 -313 194 -333 q 81 -254 113 -293 q 29 -163 49 -215 q 4 -57 10 -111 q 1 -3 1 -29 q 6 61 1 24 q 31 135 11 99 q 86 192 51 172 q 135 203 108 203 q 167 200 150 203 q 215 161 200 193 q 231 129 224 146 q 240 94 238 113 q 242 82 242 88 q 235 66 242 74 q 218 57 229 58 l 214 57 q 197 62 206 57 q 188 78 188 67 q 157 158 183 121 q 139 174 147 174 q 117 164 131 175 q 67 74 79 133 q 61 11 61 43 q 69 -71 61 -21 q 115 -181 78 -121 q 217 -271 153 -240 q 229 -274 224 -274 q 253 -264 242 -274 q 297 -167 282 -233 q 317 -24 311 -100 q 319 88 319 33 q 319 151 319 106 q 317 238 318 196 q 310 263 315 261 l 261 257 q 253 256 257 256 q 247 258 249 256 q 244 267 244 261 q 245 274 244 269 q 251 285 246 278 q 265 294 257 293 q 288 297 275 297 q 311 299 301 297 q 313 369 314 326 q 313 463 313 413 q 315 565 313 513 q 328 666 318 618 q 360 754 339 714 q 415 818 381 794 q 356 824 385 824 q 293 816 331 824 q 215 784 256 808 q 145 724 175 760 q 97 650 115 689 q 78 585 83 618 q 75 549 75 565 q 78 513 75 535 q 95 466 81 492 q 136 424 110 440 q 150 419 143 419 q 172 427 160 419 q 189 454 185 435 q 203 474 192 468 q 226 478 215 479 q 244 471 238 478 q 249 463 249 467 q 246 453 249 458 q 199 397 229 417 q 156 385 179 385 q 126 389 142 385 q 61 431 86 401 q 25 499 36 460 q 14 569 14 532 q 15 597 14 574 q 29 656 15 619 q 121 799 64 749 q 250 869 178 849 q 406 890 322 890 q 577 884 489 890 q 754 874 665 878 q 799 872 776 872 q 926 882 864 872 z "},"G":{"ha":943,"x_min":0,"x_max":996,"o":"m 954 289 q 969 295 960 294 q 987 292 979 296 q 996 279 994 288 l 996 278 q 985 258 996 269 q 909 170 949 221 q 808 69 869 119 q 799 -30 804 24 q 781 -134 794 -83 q 740 -228 768 -185 q 658 -296 711 -271 q 601 -311 632 -308 q 581 -312 590 -312 q 539 -306 561 -312 q 503 -276 517 -299 q 493 -243 493 -262 q 496 -218 493 -232 q 517 -167 500 -196 q 558 -111 535 -139 q 604 -58 581 -83 q 643 -18 628 -33 q 662 0 656 -7 q 671 15 668 7 q 674 32 674 22 q 672 58 674 42 q 672 64 672 61 q 669 69 672 67 l 667 71 q 658 64 663 71 q 539 4 606 17 q 490 0 514 0 q 410 14 449 0 q 331 85 357 33 q 299 210 304 138 q 297 251 297 231 q 309 375 297 304 q 350 525 321 446 q 356 540 353 532 q 358 557 358 547 q 344 558 351 558 q 334 557 340 558 q 318 554 328 556 q 224 544 268 551 q 146 517 181 536 q 89 468 111 499 q 60 389 67 438 q 58 365 58 378 q 59 344 58 358 q 65 310 60 329 q 78 276 69 290 q 101 263 88 263 q 113 254 110 261 l 113 251 q 101 239 113 244 q 79 233 90 233 q 60 236 72 233 q 36 256 47 239 q 10 310 19 279 q 0 374 0 340 q 13 440 0 407 q 56 502 26 474 q 134 551 85 531 q 256 581 183 572 q 308 588 282 583 q 344 589 326 589 l 363 589 q 378 595 374 589 q 385 608 382 601 q 424 681 400 640 q 478 763 449 722 q 541 838 508 803 q 607 892 574 872 q 678 921 642 913 q 708 924 693 924 q 754 918 731 924 q 826 863 811 906 q 832 831 832 847 q 809 756 832 800 q 715 659 786 711 q 531 581 644 607 q 494 549 504 572 q 439 344 450 439 q 433 251 433 294 q 440 165 433 214 q 472 82 446 115 q 511 58 490 58 q 528 61 519 58 q 611 116 576 81 q 674 200 646 151 q 686 248 685 218 q 689 308 688 278 q 696 363 690 339 q 722 393 701 386 q 754 399 739 399 q 785 392 767 399 q 810 353 804 385 q 815 301 814 325 q 817 254 817 278 q 815 203 817 231 q 813 142 814 176 l 861 190 q 906 238 882 213 q 954 289 931 264 m 718 874 q 665 826 693 858 q 612 756 638 794 q 563 681 586 718 q 526 618 540 643 q 533 617 531 617 q 537 617 535 617 q 542 619 539 617 q 668 679 619 647 q 741 742 717 711 q 771 803 765 774 q 774 829 774 817 q 769 854 774 840 q 749 876 764 868 q 736 879 742 879 q 718 874 726 879 m 583 -256 q 615 -215 600 -240 q 640 -163 629 -190 q 656 -111 650 -136 q 658 -81 658 -93 l 658 -74 q 590 -158 611 -121 q 565 -218 569 -194 q 563 -237 563 -229 q 567 -253 563 -247 q 575 -260 571 -260 q 583 -256 579 -260 z "},"H":{"ha":1033,"x_min":-12,"x_max":1089,"o":"m 1039 286 q 1051 300 1042 297 q 1063 301 1057 301 q 1072 300 1067 301 q 1085 292 1078 299 q 1089 282 1089 288 q 1088 276 1089 279 q 1067 210 1078 249 q 1043 128 1057 171 q 1013 42 1029 85 q 974 -36 996 -1 q 924 -94 951 -71 q 863 -121 896 -118 q 843 -122 853 -122 q 742 -81 783 -122 q 676 29 700 -39 q 644 174 651 97 q 638 290 638 239 l 638 307 q 636 324 638 317 q 631 328 635 328 q 625 326 628 328 q 569 318 597 319 q 513 314 540 317 q 499 299 501 313 q 493 238 496 282 q 482 140 490 194 q 459 26 474 85 q 419 -80 444 -32 q 353 -157 393 -128 q 269 -182 318 -182 l 256 -182 q 179 -149 208 -179 q 139 -76 150 -119 q 132 -25 132 -51 q 138 28 132 -6 q 169 103 143 63 q 211 135 188 131 q 229 136 221 136 q 253 131 242 136 q 265 116 264 126 q 239 106 265 106 q 208 77 224 106 q 188 11 193 49 q 186 -15 186 -1 q 194 -72 186 -40 q 238 -121 203 -103 q 254 -125 247 -125 q 271 -119 264 -125 q 322 -38 303 -93 q 350 79 340 17 q 363 203 360 142 q 365 307 365 265 q 351 322 365 318 q 315 325 332 325 q 240 303 275 325 q 178 224 206 281 q 175 213 175 218 q 175 207 175 211 q 176 197 175 203 q 174 188 176 192 q 164 183 172 185 q 151 182 157 182 q 126 193 133 182 q 119 210 119 200 q 124 226 119 218 q 175 305 144 279 q 237 341 206 331 q 297 352 268 351 q 343 353 325 353 q 361 356 358 353 q 364 374 364 358 q 363 465 364 406 q 353 591 361 525 q 331 718 346 657 q 290 815 315 779 q 275 831 281 828 l 272 831 q 254 825 267 831 q 158 756 197 799 q 94 666 119 714 q 56 568 68 618 q 43 478 44 518 q 42 456 42 465 q 48 403 42 428 q 67 372 54 378 q 78 358 78 367 q 67 343 78 350 q 47 338 57 338 q 38 338 46 338 q 19 347 31 338 q -1 378 8 357 q -11 433 -10 399 q -12 464 -12 449 q 17 630 -12 550 q 98 769 47 710 q 210 857 149 828 q 294 878 254 878 q 322 875 308 878 q 391 839 363 867 q 439 769 419 811 q 469 674 458 726 q 487 568 481 622 q 494 460 493 514 q 497 360 496 406 q 500 347 497 349 l 513 347 q 558 349 536 349 q 603 356 581 350 q 637 369 631 363 q 644 400 643 376 q 651 472 646 424 q 682 608 656 519 q 751 776 714 718 q 824 856 789 833 q 875 872 851 872 q 899 868 882 872 q 928 847 915 864 q 951 767 949 819 l 951 751 q 936 645 951 704 q 883 521 921 586 q 785 404 846 456 q 774 382 774 393 q 769 279 769 335 q 776 166 769 222 q 799 58 782 110 q 844 -29 815 7 q 861 -42 853 -39 q 872 -44 867 -44 q 879 -44 875 -44 q 889 -42 883 -44 q 897 -36 894 -39 q 940 26 918 -15 q 980 116 961 68 q 1015 210 999 164 q 1039 286 1031 257 m 879 822 q 840 732 869 822 q 781 469 810 642 q 797 486 792 476 q 869 615 847 554 q 894 722 890 676 q 896 754 896 739 q 890 799 896 778 q 879 822 885 821 z "},"I":{"ha":521,"x_min":1,"x_max":426,"o":"m 328 871 q 397 792 375 856 q 424 633 418 729 q 426 515 426 579 q 424 381 426 468 q 417 161 421 294 q 415 110 417 153 q 410 12 414 67 q 402 -97 407 -43 q 392 -182 397 -151 q 369 -208 388 -200 q 336 -215 354 -215 q 322 -215 333 -215 q 293 -205 310 -215 q 275 -174 276 -194 l 275 -156 q 277 -74 275 -131 q 283 77 279 -17 q 291 280 288 171 q 297 490 294 389 q 298 672 299 590 q 290 794 297 754 q 279 839 283 833 q 274 842 276 842 q 258 836 268 842 q 173 765 217 814 q 99 653 129 715 q 57 521 68 590 q 53 475 53 497 q 68 392 53 432 q 93 364 75 369 q 100 356 100 361 q 90 346 100 349 q 76 344 83 344 q 55 347 68 344 q 31 364 42 349 q 1 458 3 401 l 1 475 q 17 580 1 522 q 65 697 32 638 q 140 801 97 757 q 231 865 182 844 q 286 878 258 878 q 328 871 307 878 z "},"J":{"ha":672,"x_min":0,"x_max":685,"o":"m 532 835 q 579 888 550 872 q 634 903 608 903 q 675 894 660 904 q 685 879 685 888 q 681 869 685 875 q 616 709 633 799 q 597 524 599 619 q 596 460 596 492 q 600 331 596 396 q 603 192 603 258 q 601 115 603 169 q 583 -9 600 61 q 518 -121 565 -79 q 428 -168 476 -158 q 376 -174 401 -174 q 319 -167 354 -174 q 243 -133 285 -161 q 176 -65 201 -106 q 146 29 151 -24 q 144 49 144 39 q 164 138 144 92 q 242 190 185 190 q 267 188 254 190 q 285 174 286 185 q 265 160 285 163 q 255 160 260 160 q 244 160 250 161 q 234 156 239 160 q 224 140 229 151 q 203 63 203 101 l 203 56 q 215 -12 203 21 q 251 -73 228 -46 q 301 -117 275 -100 q 356 -136 328 -133 q 368 -137 361 -137 q 401 -126 386 -137 q 450 -51 436 -103 q 467 72 464 1 q 468 147 468 108 q 465 249 468 186 q 461 400 463 311 l 461 429 q 467 584 461 503 q 496 744 472 665 q 499 754 497 750 q 500 765 500 758 q 490 767 494 767 q 478 764 485 767 q 464 760 472 761 q 335 746 396 746 l 297 746 q 195 740 244 746 q 108 706 146 735 q 58 603 71 678 l 58 596 q 67 578 58 585 q 72 569 72 574 q 65 560 72 565 q 42 554 57 554 q 11 567 25 554 q 0 596 0 575 q 1 610 0 603 q 49 723 11 685 q 150 776 88 761 q 205 783 171 781 q 278 786 239 785 q 360 790 318 788 q 438 797 401 792 q 499 810 474 801 q 532 835 524 819 z "},"K":{"ha":894,"x_min":0,"x_max":950,"o":"m 900 268 q 911 286 901 281 q 925 289 918 289 q 932 288 926 289 q 944 278 938 286 q 950 264 950 272 q 949 257 950 261 q 911 101 929 165 q 871 -5 893 36 q 821 -66 849 -46 q 756 -89 793 -86 l 739 -89 q 653 -67 692 -89 q 584 -6 614 -44 q 533 80 554 33 q 497 166 513 126 q 467 232 481 206 q 440 254 454 254 l 438 254 q 418 253 426 253 q 404 254 410 253 l 400 254 q 392 244 392 254 q 383 115 388 171 q 369 18 378 60 q 345 -53 360 -24 q 307 -106 331 -83 q 260 -133 286 -125 q 225 -139 242 -139 q 199 -137 217 -139 q 158 -121 182 -135 q 119 -82 135 -107 q 96 -24 103 -53 q 89 29 89 4 l 89 40 q 92 74 89 58 q 100 99 96 90 q 126 118 107 114 l 135 118 q 158 111 149 118 q 163 103 163 107 q 160 97 163 100 q 144 64 147 89 q 143 42 143 53 q 147 3 143 26 q 163 -47 150 -19 q 196 -89 176 -75 q 206 -93 201 -93 q 217 -83 213 -93 q 235 -5 225 -67 q 252 144 244 57 q 265 332 260 231 q 269 489 269 413 q 269 564 269 507 q 259 699 268 621 q 231 818 250 776 q 218 829 226 829 q 207 826 213 829 q 124 747 163 801 q 68 622 86 692 q 57 533 57 579 q 64 453 57 506 q 124 332 71 400 q 149 317 133 317 q 157 313 153 315 q 161 306 161 311 q 140 290 161 294 q 131 289 135 289 q 96 300 113 289 q 45 354 67 318 q 12 438 24 390 q 0 539 0 485 q 16 646 0 592 q 65 751 32 700 q 151 844 99 803 q 240 875 190 875 q 263 874 251 875 q 338 826 310 867 q 380 726 365 785 q 397 598 394 667 q 399 469 400 529 q 397 364 399 408 q 396 326 396 342 q 397 307 396 313 q 479 391 447 346 q 533 484 511 436 q 573 581 556 532 q 611 676 590 631 q 662 760 632 721 q 738 831 692 800 q 803 851 771 851 q 853 842 833 851 q 878 818 874 832 q 879 814 879 815 q 863 799 879 803 q 849 796 854 796 q 835 799 842 796 q 824 808 829 803 q 814 817 819 814 l 811 818 q 797 811 806 818 q 750 749 768 786 q 718 667 732 711 q 691 575 704 624 q 659 478 678 526 q 611 385 640 431 q 538 303 582 340 q 529 293 529 296 l 529 292 q 535 285 529 289 q 592 217 568 257 q 636 135 615 178 q 680 51 657 93 q 736 -24 703 10 q 760 -35 747 -35 q 792 -15 772 -35 q 836 56 813 6 q 877 165 860 106 q 900 268 894 225 z "},"L":{"ha":614,"x_min":0,"x_max":935,"o":"m 865 -185 q 900 -169 883 -172 l 910 -169 q 926 -172 918 -169 q 935 -181 933 -174 l 935 -182 q 924 -196 935 -189 q 888 -221 906 -207 q 851 -246 871 -235 q 783 -270 824 -261 q 693 -279 743 -279 q 586 -267 643 -279 q 468 -226 529 -254 q 392 -190 419 -204 q 351 -171 365 -176 q 333 -168 340 -168 q 328 -169 332 -168 q 315 -176 324 -169 q 284 -199 303 -189 q 244 -216 265 -210 q 203 -224 224 -222 l 197 -224 q 164 -217 179 -224 q 143 -196 149 -211 q 140 -185 140 -190 q 147 -162 140 -175 q 177 -135 154 -150 q 240 -114 200 -121 q 276 -76 263 -110 q 298 11 290 -42 q 309 128 306 64 q 314 257 313 193 q 315 381 315 321 l 315 479 q 315 489 315 485 q 311 497 315 493 q 306 496 307 497 q 250 466 276 479 q 198 440 224 453 q 147 413 172 428 q 96 378 122 399 q 63 331 72 358 q 56 285 56 308 q 57 260 56 279 q 73 216 58 242 q 113 178 88 190 q 119 176 117 176 q 129 182 125 176 q 138 203 135 192 q 149 219 140 213 q 168 225 158 225 q 183 218 176 225 q 188 206 188 214 q 186 197 188 201 q 154 153 178 164 q 121 144 138 144 q 92 149 111 144 q 47 176 74 153 q 8 238 21 199 q 0 288 0 264 q 12 338 0 310 q 58 396 24 367 q 137 447 92 425 q 222 488 182 468 q 291 527 263 507 q 321 574 319 547 q 328 635 322 601 q 341 705 333 669 q 360 773 349 740 q 385 829 371 806 q 431 872 404 863 q 458 878 444 878 q 487 872 469 878 q 520 841 504 865 q 537 781 536 817 q 517 701 538 746 q 449 610 497 657 q 438 582 438 600 l 438 529 q 440 376 438 451 q 443 233 443 301 q 442 153 443 210 q 428 21 442 97 q 378 -111 415 -56 q 372 -122 372 -119 q 372 -125 372 -124 q 382 -129 372 -126 q 505 -173 444 -147 q 626 -214 565 -199 q 728 -226 676 -226 q 771 -225 736 -226 q 865 -185 806 -224 m 454 831 q 447 797 450 818 q 442 752 443 775 q 440 708 440 729 q 443 674 440 686 q 482 768 481 724 l 482 775 q 467 832 482 814 q 460 838 463 838 q 454 831 457 838 z "},"M":{"ha":1350,"x_min":0,"x_max":1411,"o":"m 1360 271 q 1375 285 1364 281 q 1390 288 1382 288 q 1397 286 1392 288 q 1408 278 1403 285 q 1411 269 1411 275 q 1408 258 1411 265 q 1334 83 1363 151 q 1287 -28 1306 15 q 1255 -98 1268 -72 q 1228 -144 1242 -124 q 1171 -187 1208 -172 q 1121 -199 1146 -199 q 1078 -192 1107 -199 q 1013 -144 1050 -186 q 957 -11 975 -101 q 943 153 943 56 q 947 278 943 186 q 999 585 951 369 q 1000 590 1000 588 q 1001 594 1000 592 q 999 596 1000 596 q 997 597 999 596 q 908 401 943 481 q 844 274 872 322 q 788 203 815 225 q 724 181 761 182 q 706 179 714 181 l 699 179 q 686 181 693 179 q 601 236 635 188 q 546 351 567 285 q 515 488 525 417 q 503 610 506 558 q 497 597 499 603 q 494 585 496 590 q 477 422 481 508 q 469 249 474 336 q 456 80 465 163 q 421 -69 446 -3 q 349 -182 396 -136 q 224 -243 301 -228 q 172 -249 196 -249 q 95 -231 133 -249 q 31 -173 57 -214 q 1 -81 6 -132 q 0 -51 0 -65 q 11 23 0 -17 q 53 95 22 63 q 126 131 83 128 l 136 131 q 154 128 144 131 q 173 117 164 126 q 188 90 182 107 q 194 46 193 74 l 194 43 q 178 19 194 25 q 164 18 171 18 q 143 24 153 18 q 140 30 140 26 q 140 38 140 33 q 136 60 139 49 q 131 83 133 72 q 122 97 126 96 q 108 88 118 97 q 71 17 81 60 q 64 -40 64 -12 q 67 -84 64 -56 q 93 -149 71 -112 q 156 -199 115 -185 q 176 -203 167 -203 q 204 -194 190 -203 q 274 -111 249 -168 q 312 22 299 -54 q 331 186 325 97 q 345 366 338 275 q 365 543 353 457 q 403 701 378 629 q 471 822 428 772 q 583 889 514 872 q 599 891 589 890 q 619 890 610 892 q 637 885 629 889 q 647 872 644 881 l 647 865 q 645 856 647 860 q 639 849 643 853 q 631 841 635 846 q 626 826 626 836 q 625 749 626 788 q 622 671 624 710 q 629 569 622 626 q 649 455 636 513 q 681 344 663 397 q 722 253 700 290 q 733 240 729 240 l 735 240 q 747 250 739 240 q 822 360 781 285 q 909 528 864 436 q 1000 713 954 619 q 1088 875 1046 806 q 1103 890 1093 885 q 1122 896 1113 896 q 1137 890 1131 896 q 1143 871 1143 883 q 1128 714 1140 800 q 1104 535 1117 628 q 1081 349 1092 443 q 1071 169 1071 256 q 1085 6 1071 82 q 1133 -126 1099 -71 q 1140 -136 1138 -132 q 1144 -139 1142 -139 q 1150 -137 1146 -139 q 1163 -126 1154 -136 q 1186 -94 1171 -117 q 1240 3 1211 -56 q 1293 117 1268 61 q 1336 217 1318 174 q 1360 271 1354 261 z "},"N":{"ha":1157,"x_min":8,"x_max":1179,"o":"m 1121 857 q 1140 877 1128 871 q 1161 883 1151 883 q 1176 876 1171 882 q 1179 869 1179 874 q 1178 863 1179 867 q 1130 753 1153 822 q 1088 594 1107 683 q 1053 402 1068 504 q 1033 196 1039 300 q 1031 76 1031 136 q 1033 -39 1031 33 q 1053 -197 1036 -111 q 1054 -204 1054 -201 q 1033 -228 1054 -221 q 1010 -233 1019 -233 q 991 -229 1001 -233 q 966 -204 981 -225 q 935 -146 951 -183 q 894 -51 919 -108 q 838 72 864 19 q 788 169 813 125 q 740 252 764 213 q 690 337 715 292 q 634 436 664 382 q 569 565 604 490 q 569 567 569 567 q 567 571 568 568 q 563 560 563 565 q 563 551 563 556 q 576 222 569 371 q 578 138 578 179 q 563 -55 578 40 q 495 -222 549 -150 q 326 -321 442 -294 q 257 -331 289 -331 q 189 -321 229 -331 q 108 -279 149 -311 q 43 -200 68 -247 q 11 -101 18 -153 q 8 -65 8 -83 q 19 10 8 -32 q 64 90 29 51 q 114 122 85 114 q 142 126 128 126 q 175 120 156 126 q 216 88 194 114 q 246 19 238 63 q 247 8 247 14 q 242 -7 247 -1 q 221 -14 235 -14 l 213 -14 q 194 6 197 -12 q 183 48 192 29 q 158 83 174 67 q 140 97 147 97 q 121 83 132 96 q 78 -6 86 44 q 74 -53 74 -29 q 81 -117 74 -79 q 116 -198 89 -156 q 181 -262 143 -240 q 253 -283 214 -283 q 282 -282 258 -283 q 349 -240 306 -281 q 418 -121 399 -194 q 442 43 438 -47 q 443 121 443 81 q 439 253 443 175 q 433 431 435 332 l 433 454 q 442 624 433 539 q 485 781 450 710 q 497 803 492 796 q 508 815 503 811 q 518 823 514 819 q 526 833 522 826 q 554 850 536 844 q 567 851 561 851 q 585 847 576 851 q 597 831 592 844 q 601 814 601 821 q 600 807 601 810 q 594 782 594 796 q 606 727 594 763 q 647 632 617 692 q 718 501 676 572 q 803 356 760 431 q 891 206 847 281 q 968 61 935 131 q 972 67 972 64 q 972 74 972 71 q 984 263 975 157 q 1010 476 993 368 q 1053 684 1026 583 q 1121 857 1081 785 z "},"O":{"ha":726,"x_min":0,"x_max":646,"o":"m 467 868 q 581 715 539 810 q 639 510 624 619 q 646 392 646 451 q 637 253 646 338 q 589 71 628 168 q 485 -94 550 -26 q 332 -179 421 -162 q 272 -185 300 -185 q 178 -166 228 -185 q 85 -95 128 -147 q 22 33 43 -43 q 0 197 0 108 q 23 380 0 285 q 93 567 46 475 q 115 639 111 601 q 160 808 124 743 q 249 900 197 872 q 331 919 288 919 q 381 914 344 919 q 467 868 417 908 m 310 -119 q 426 -26 374 -87 q 515 119 479 36 q 565 300 550 201 q 575 424 575 360 q 571 504 575 463 q 537 658 563 588 q 478 778 511 728 q 408 858 444 829 q 339 889 371 888 q 328 890 333 890 q 295 882 311 890 q 264 858 279 874 q 205 765 219 818 q 185 656 190 713 l 185 653 q 188 647 185 649 q 198 646 190 646 q 215 644 206 646 q 236 638 225 643 q 249 622 249 631 q 243 610 249 617 q 217 559 228 586 q 194 506 206 532 q 192 489 192 499 q 197 452 192 476 q 217 393 201 428 q 255 326 232 358 q 306 278 278 294 q 318 274 313 274 q 338 281 326 274 q 360 305 349 288 q 379 346 372 322 q 382 372 382 360 q 381 393 382 383 q 375 418 378 406 q 367 442 372 431 q 353 461 363 453 q 326 472 343 469 q 319 479 319 474 q 322 488 319 482 q 340 496 325 493 q 353 497 346 497 q 391 484 372 497 q 422 445 410 471 q 439 389 435 419 q 440 365 440 376 q 435 322 440 346 q 409 274 429 297 q 354 242 389 250 q 308 236 329 236 q 226 264 265 236 q 154 358 186 292 q 151 351 151 353 q 150 347 150 350 q 133 201 133 269 q 140 110 133 171 q 174 -13 146 50 q 242 -106 203 -76 q 288 -125 267 -125 q 310 -119 299 -125 z "},"P":{"ha":869,"x_min":0,"x_max":842,"o":"m 668 892 q 758 841 722 879 q 812 749 793 803 q 838 629 831 694 q 842 542 842 586 q 839 477 842 521 q 826 372 836 433 q 803 265 815 311 q 757 172 788 207 q 667 133 726 138 q 633 132 649 132 q 578 137 604 132 q 538 147 553 142 q 517 152 522 153 q 513 135 513 151 l 513 78 q 510 -45 513 22 q 488 -178 507 -112 q 431 -287 469 -243 q 324 -343 393 -332 q 272 -347 297 -347 q 185 -331 231 -347 q 100 -276 139 -315 q 37 -182 61 -236 q 4 -71 13 -128 q 0 -11 0 -40 q 4 53 0 14 q 28 132 8 93 q 82 190 49 171 q 126 201 101 201 q 163 196 143 201 q 209 172 193 188 q 229 143 225 157 l 231 136 q 224 122 231 128 q 208 117 218 117 q 194 119 203 117 q 179 129 183 122 q 171 143 175 136 q 161 156 167 150 q 143 165 156 163 l 139 165 q 124 162 132 165 q 108 147 115 158 q 78 54 83 113 q 75 14 75 35 q 87 -79 75 -26 q 135 -189 99 -132 q 232 -276 171 -246 q 269 -289 256 -289 q 284 -287 274 -289 q 315 -257 294 -285 q 344 -203 335 -232 q 361 -143 354 -174 q 381 36 379 -54 l 381 72 q 376 223 381 144 q 363 381 371 301 q 354 526 354 460 l 354 542 q 364 645 354 599 q 406 719 374 692 q 447 742 425 736 q 481 746 465 746 q 494 745 483 746 q 511 736 504 744 q 514 729 514 733 q 507 715 514 724 q 483 667 489 694 q 479 608 479 644 q 480 569 479 599 q 488 459 481 539 q 506 253 496 379 q 519 233 506 239 q 533 224 529 231 q 542 212 538 218 q 553 199 546 206 q 576 189 560 193 q 618 182 604 182 l 619 182 q 642 201 632 182 q 673 281 658 232 q 697 390 688 331 q 708 513 706 449 l 708 544 q 704 643 708 592 q 685 743 700 694 q 644 822 669 792 q 593 844 626 844 q 569 843 590 844 q 504 817 549 842 q 415 749 460 793 q 332 649 369 706 q 272 524 294 592 q 250 388 250 458 l 250 379 q 229 357 250 358 l 226 357 q 199 375 204 357 q 194 417 194 394 q 203 488 194 443 q 239 596 211 533 q 310 718 267 658 q 410 822 354 778 q 531 888 465 867 q 606 899 567 899 q 668 892 636 899 z "},"Q":{"ha":792,"x_min":-1,"x_max":725,"o":"m 615 -28 q 662 -120 639 -69 q 701 -225 685 -171 q 724 -332 717 -279 q 725 -369 725 -351 q 719 -431 725 -401 q 696 -486 713 -460 q 656 -531 679 -512 q 604 -554 632 -549 q 582 -557 593 -557 q 547 -550 564 -557 q 531 -541 539 -547 q 519 -526 524 -535 q 517 -515 517 -521 q 517 -510 517 -514 q 525 -501 517 -506 q 549 -496 538 -496 q 575 -504 563 -496 q 589 -510 585 -510 q 592 -509 590 -510 q 601 -500 593 -508 q 626 -458 621 -481 q 629 -435 629 -447 q 626 -411 629 -424 q 608 -316 619 -364 q 583 -229 596 -268 q 559 -164 569 -190 q 546 -132 549 -137 q 538 -122 540 -122 q 528 -131 535 -122 q 393 -247 468 -203 q 256 -285 331 -285 q 226 -283 240 -285 q 83 -212 135 -275 q 13 -58 32 -150 q -1 79 -1 6 q 4 183 -1 111 q 38 359 10 254 q 108 551 65 464 q 201 686 151 639 q 216 725 208 693 q 239 798 224 757 q 281 881 254 839 q 350 951 307 924 q 400 972 372 965 q 446 978 424 978 q 467 976 451 978 q 511 964 483 975 q 561 931 539 953 q 635 821 606 886 q 682 677 665 756 q 703 513 699 599 l 704 469 q 696 326 704 403 q 666 165 688 250 q 611 7 644 81 q 608 -7 608 0 q 615 -28 608 -18 m 485 -47 q 491 -33 492 -40 q 486 -18 490 -26 q 432 76 456 33 q 391 155 408 118 q 363 226 374 192 q 346 294 351 260 q 331 307 343 307 q 248 353 278 313 q 203 443 218 393 q 144 243 161 347 q 132 92 132 164 q 135 10 132 68 q 167 -119 139 -49 q 240 -219 194 -190 q 264 -226 253 -226 q 276 -225 271 -226 q 394 -154 343 -203 q 485 -47 444 -106 m 543 90 q 550 85 547 85 q 557 90 554 85 q 572 128 560 94 q 599 215 585 161 q 625 337 614 268 q 636 482 636 406 q 584 797 628 683 q 485 939 540 910 q 443 950 464 950 q 360 908 407 950 q 278 738 313 865 q 276 731 276 733 q 290 721 276 721 q 326 714 311 721 q 340 699 340 707 q 332 685 340 693 q 324 677 328 681 q 315 669 319 674 q 294 640 304 657 q 274 605 283 622 q 258 572 264 588 q 251 550 251 557 l 251 533 q 253 492 251 515 q 263 440 256 468 q 283 388 271 413 q 315 347 296 364 l 326 339 q 333 336 329 336 q 339 338 336 336 q 344 346 344 340 q 343 357 343 351 q 367 437 350 408 q 406 476 385 465 q 429 482 418 482 q 449 478 436 482 q 469 456 461 474 q 475 431 475 444 q 471 403 475 422 q 439 351 467 383 q 429 329 429 342 q 432 315 429 322 q 440 292 433 311 q 458 244 446 274 q 491 175 471 214 q 543 90 511 136 z "},"R":{"ha":1031,"x_min":0,"x_max":1115,"o":"m 1053 268 q 1068 286 1057 281 q 1090 291 1079 292 q 1110 285 1101 290 q 1115 274 1115 279 q 1114 268 1115 271 q 1097 219 1108 253 q 1068 144 1085 186 q 1030 58 1051 103 q 984 -26 1008 13 q 934 -92 960 -64 q 882 -126 908 -119 q 825 -133 854 -133 q 769 -126 797 -133 q 715 -95 738 -117 q 675 -45 692 -74 q 646 15 658 -17 q 624 79 633 47 q 552 247 583 193 q 500 317 521 300 q 475 326 486 326 q 461 320 469 326 q 453 303 453 314 q 453 210 453 263 q 447 103 453 158 q 428 -4 442 49 q 388 -98 415 -57 q 317 -164 361 -139 q 207 -189 272 -189 q 104 -162 146 -189 q 38 -97 63 -136 q 4 -10 13 -57 q 0 36 0 14 q 6 90 0 58 q 38 153 13 121 q 101 193 63 185 q 128 196 115 196 q 190 181 160 196 q 203 172 197 176 q 207 164 207 168 q 206 158 207 161 q 186 146 203 149 q 179 144 182 144 q 154 156 165 144 q 129 168 140 168 q 106 153 118 168 q 72 92 79 125 q 69 57 69 75 q 74 13 69 40 q 94 -47 78 -14 q 131 -101 110 -79 q 175 -131 151 -122 q 193 -135 185 -135 q 215 -128 206 -135 q 287 -29 265 -94 q 315 119 308 36 q 321 296 321 203 q 328 476 321 389 q 358 638 335 564 q 433 760 381 713 q 469 781 450 775 q 496 783 485 783 q 508 782 500 783 q 524 775 517 781 q 526 769 526 772 q 522 763 526 765 q 496 723 507 750 q 477 660 485 696 q 465 583 469 624 q 457 503 460 542 q 453 434 454 465 q 453 385 453 403 q 457 369 454 372 q 464 367 458 367 q 472 368 467 367 q 565 412 528 376 q 622 496 601 447 q 650 601 643 544 q 653 665 653 633 q 650 728 653 689 q 633 812 647 767 q 600 881 619 857 q 554 913 579 906 q 531 915 543 915 q 499 911 515 915 q 382 858 432 894 q 297 776 332 822 q 240 680 261 731 q 213 583 219 629 q 207 528 207 553 q 209 491 207 514 q 226 454 211 468 q 261 476 239 476 q 272 475 267 476 q 286 458 286 471 q 285 450 286 454 q 267 424 279 433 q 239 411 254 414 q 222 410 231 410 q 203 413 215 410 q 178 428 190 415 q 149 497 154 451 q 146 533 146 514 q 154 606 146 563 q 190 708 163 650 q 261 816 218 765 q 364 904 304 867 q 499 956 424 942 q 557 961 528 961 q 608 956 575 961 q 683 922 640 951 q 741 855 717 900 q 776 754 765 810 q 786 650 786 704 q 785 609 786 643 q 765 519 783 575 q 709 419 746 463 q 617 353 672 375 q 606 349 611 350 q 597 344 601 349 q 600 339 597 340 q 606 335 603 338 q 683 248 653 304 q 738 130 714 192 q 783 11 761 68 q 833 -76 804 -46 q 846 -86 842 -86 l 847 -86 q 861 -79 851 -86 q 924 -7 892 -57 q 983 99 956 43 q 1028 202 1010 154 q 1053 268 1047 250 z "},"S":{"ha":575,"x_min":0,"x_max":499,"o":"m 493 46 q 499 -15 499 13 q 444 -160 499 -100 q 263 -219 390 -219 l 250 -219 q 150 -198 194 -219 q 73 -139 106 -176 q 22 -54 40 -101 q 1 42 4 -7 q 0 65 0 54 q 11 138 0 100 q 49 203 22 175 q 106 229 72 225 q 119 231 113 231 q 165 218 143 231 q 196 175 188 206 q 197 161 197 168 q 178 97 197 135 q 158 81 171 85 q 140 78 149 78 q 131 78 138 78 q 118 86 124 79 q 115 92 115 89 q 118 99 115 96 q 133 124 128 108 q 139 156 139 139 q 134 183 139 171 q 117 199 129 196 q 111 200 114 200 q 102 195 107 200 q 93 183 97 190 q 63 114 69 154 q 58 69 58 92 q 63 19 58 50 q 85 -53 67 -12 q 131 -125 103 -94 q 194 -171 158 -156 q 243 -181 218 -181 q 272 -178 257 -181 q 324 -151 304 -172 q 353 -101 343 -131 q 364 -39 363 -72 l 364 -22 q 361 26 364 3 q 300 240 344 140 q 210 425 256 339 q 133 586 165 511 q 108 699 108 644 q 110 726 108 713 q 136 796 114 764 q 189 850 158 828 q 257 883 219 872 q 315 892 288 892 q 343 890 322 892 q 394 870 364 889 q 442 813 425 851 q 454 757 454 786 q 451 725 454 749 q 426 673 447 701 q 374 628 406 644 q 321 615 349 615 q 303 617 313 615 q 290 619 296 617 q 285 629 285 622 q 297 640 285 639 q 319 642 308 642 q 357 663 336 642 q 389 714 378 683 q 396 757 396 735 q 392 792 396 768 q 350 844 388 815 q 324 853 339 853 q 296 847 308 854 q 233 764 243 813 q 231 729 231 747 q 244 646 231 694 q 294 528 258 597 q 369 382 329 460 q 443 219 408 304 q 493 46 478 135 z "},"T":{"ha":636,"x_min":0,"x_max":972,"o":"m 964 899 q 968 900 967 900 q 972 892 972 900 q 972 881 972 889 q 963 852 971 872 q 941 815 954 832 q 915 796 928 797 q 854 794 889 794 q 797 795 836 794 q 695 798 757 796 q 580 803 633 800 q 497 808 526 807 q 485 685 486 754 l 485 638 q 487 526 485 590 q 493 381 489 461 q 494 275 494 326 q 493 198 494 249 q 481 79 492 147 q 447 -42 471 11 q 380 -127 422 -94 q 272 -165 338 -160 q 249 -167 260 -167 q 154 -142 196 -167 q 87 -75 113 -118 q 56 21 61 -32 q 54 56 54 39 q 63 127 54 89 q 97 198 71 165 q 164 233 124 231 q 178 235 171 235 q 240 182 233 235 q 246 135 244 153 l 246 133 q 221 113 246 115 l 217 113 q 193 135 196 113 q 190 157 192 143 q 185 183 189 171 q 176 203 182 196 q 171 206 174 206 q 163 200 168 206 q 137 167 149 189 q 118 107 125 144 q 115 68 115 86 q 128 -4 115 33 q 165 -70 140 -42 q 218 -108 190 -99 q 239 -112 229 -112 q 261 -106 251 -112 q 331 3 310 -65 q 358 156 353 72 q 361 254 361 203 q 358 358 361 292 q 354 513 356 424 q 353 569 353 542 q 358 691 353 626 q 389 810 363 756 q 356 811 372 811 q 284 803 325 811 q 199 769 243 794 q 119 705 154 743 q 67 617 83 667 q 54 550 56 585 l 54 540 q 61 480 54 510 q 87 423 68 450 q 135 381 106 396 q 167 371 151 371 q 211 406 194 371 q 222 449 222 429 q 219 468 222 454 q 210 498 217 482 q 203 525 203 514 l 203 526 q 225 542 203 535 q 264 547 246 547 q 313 532 289 547 q 349 483 338 517 q 353 453 353 469 q 343 404 353 433 q 297 353 333 375 q 197 321 247 321 q 154 324 189 321 q 76 365 119 328 q 11 464 32 401 q 0 538 0 499 q 7 601 0 568 q 94 760 32 703 q 240 844 157 817 q 422 878 324 872 q 619 883 521 883 q 807 882 717 882 q 964 899 896 882 z "},"U":{"ha":1151,"x_min":0,"x_max":1214,"o":"m 1154 272 q 1170 293 1160 288 q 1191 298 1181 299 q 1208 292 1201 297 q 1214 281 1214 286 l 1213 276 q 1186 193 1204 243 q 1149 92 1168 143 q 1111 -1 1129 42 q 1083 -60 1093 -43 q 997 -108 1056 -108 q 976 -107 988 -108 q 884 -47 917 -99 q 835 77 851 6 q 813 226 819 149 q 801 364 807 304 l 799 364 q 779 299 790 338 q 752 219 768 261 q 715 135 736 178 q 667 58 694 93 q 604 -1 639 24 q 526 -33 569 -26 q 478 -37 501 -37 q 397 -22 439 -37 q 320 35 356 -6 q 264 134 285 76 q 233 258 243 192 q 225 378 225 317 q 225 426 225 388 q 233 531 225 465 q 235 547 235 539 q 235 564 236 554 q 167 536 200 550 q 103 496 135 522 q 69 451 81 476 q 57 401 57 426 l 57 394 q 66 349 57 372 q 94 307 75 325 q 110 297 104 297 q 116 300 113 297 q 125 311 119 303 q 140 326 131 319 q 150 329 144 329 q 167 325 157 329 q 178 314 176 321 l 178 310 q 176 298 178 304 q 166 285 174 292 q 149 274 158 278 q 111 265 129 265 q 62 280 89 265 q 17 332 35 294 q 0 399 0 361 q 2 433 0 406 q 40 496 4 460 q 114 547 71 525 q 222 593 157 569 q 249 625 244 601 q 306 806 269 728 q 374 919 343 883 q 457 957 407 957 l 469 957 q 518 922 503 953 q 529 868 529 899 q 525 830 529 858 q 490 750 521 801 q 397 653 458 699 q 378 624 382 642 q 361 458 365 547 q 360 394 360 426 q 367 271 360 339 q 400 133 374 203 q 476 25 426 63 q 500 15 486 15 q 518 19 508 15 q 613 100 572 42 q 685 231 654 158 q 741 380 717 303 q 785 518 765 457 q 801 617 800 567 q 806 675 803 639 q 813 749 808 711 q 826 822 818 788 q 844 878 833 857 q 867 901 853 893 q 896 909 882 908 q 920 903 910 910 q 932 882 931 896 q 935 864 933 874 q 936 838 936 854 q 935 796 936 821 q 933 733 935 771 q 928 560 928 646 q 928 482 928 542 q 935 331 929 422 q 951 166 942 240 q 973 41 961 92 q 999 -31 985 -10 q 1013 -43 1006 -43 q 1022 -37 1018 -43 q 1058 26 1039 -15 q 1097 114 1078 68 q 1131 203 1115 160 q 1154 272 1146 247 m 465 903 q 430 810 446 856 q 400 717 414 764 l 401 717 q 424 737 408 717 q 455 787 440 757 q 475 849 469 817 q 476 865 476 857 q 465 903 476 886 z "},"V":{"ha":967,"x_min":0,"x_max":940,"o":"m 911 915 q 940 894 940 913 q 937 848 940 886 q 926 753 933 810 q 910 624 919 696 q 888 477 900 553 q 860 325 875 401 q 827 182 844 249 q 790 64 810 115 q 749 -15 771 13 q 639 -72 708 -68 l 629 -72 q 485 0 542 -72 q 429 97 454 40 q 385 214 404 153 q 350 336 365 275 q 325 448 335 397 q 309 533 315 499 q 301 578 303 568 q 290 572 294 575 q 272 560 285 569 q 235 533 260 551 q 163 481 210 514 q 79 393 100 436 q 60 318 60 354 q 61 292 60 314 q 83 238 63 269 q 126 190 103 207 q 158 176 146 176 q 167 176 160 176 q 190 201 174 176 q 208 240 201 218 q 216 288 214 263 q 217 336 218 313 q 214 379 217 360 q 213 390 213 386 q 215 404 213 399 q 229 413 218 410 q 242 414 236 414 q 272 392 264 414 q 281 356 276 381 q 285 303 285 332 q 278 242 285 272 q 256 188 272 211 q 211 153 240 165 q 165 143 192 143 q 138 146 153 143 q 78 170 106 150 q 31 221 50 190 q 4 288 11 251 q 0 324 0 306 q 4 361 0 343 q 34 422 13 394 q 91 477 56 449 q 174 538 126 506 q 282 615 222 571 q 294 640 294 624 l 294 643 q 293 710 293 674 q 293 765 293 726 q 304 853 293 803 q 340 938 315 903 q 411 976 365 974 l 415 976 q 468 954 444 976 q 499 893 492 932 q 500 869 500 882 q 488 795 500 839 q 431 697 475 751 q 421 672 421 688 l 421 668 q 435 565 425 624 q 458 442 444 507 q 490 310 472 376 q 531 183 508 243 q 578 74 553 124 q 631 -4 603 25 q 643 -14 639 -14 q 657 -6 647 -14 q 722 93 692 25 q 776 249 751 161 q 820 433 801 336 q 853 620 839 531 q 874 782 867 710 q 885 892 882 854 q 911 915 888 915 m 426 932 q 414 847 415 889 l 414 761 q 436 803 428 778 q 446 853 444 828 l 446 865 q 442 902 446 883 q 426 932 438 921 z "},"W":{"ha":1368,"x_min":0,"x_max":1285,"o":"m 1233 839 q 1253 767 1243 818 q 1270 647 1263 717 q 1282 494 1278 576 q 1285 394 1285 444 q 1283 301 1285 360 q 1270 161 1281 242 q 1239 15 1260 81 q 1184 -94 1218 -50 q 1101 -150 1150 -137 q 1038 -160 1067 -160 q 966 -143 1004 -160 q 895 -81 928 -126 q 844 24 863 -36 q 817 142 826 83 q 803 249 807 200 q 793 319 799 297 q 774 240 785 283 q 748 158 764 197 q 708 88 732 118 q 650 44 685 57 q 586 32 615 32 q 540 40 569 32 q 478 78 511 47 q 422 158 446 110 q 381 262 399 206 q 351 379 364 318 q 331 497 339 440 q 325 518 328 511 q 319 519 321 519 q 315 518 318 519 q 310 514 313 517 q 247 473 278 493 q 183 432 215 453 q 96 351 122 392 q 65 276 69 311 q 64 254 64 265 q 74 207 64 232 q 101 163 83 182 q 135 139 118 144 q 147 136 142 136 q 157 142 154 136 q 167 176 164 156 q 170 221 169 197 q 169 267 171 244 q 167 307 168 290 q 184 333 167 324 q 223 342 201 342 q 265 335 244 343 q 289 310 285 326 q 300 251 296 282 q 301 228 301 239 q 298 186 301 210 q 281 139 294 163 q 243 103 268 115 q 169 83 206 83 q 146 84 167 83 q 93 102 125 85 q 38 149 61 119 q 6 214 15 178 q 0 257 0 235 q 5 300 0 272 q 39 363 10 328 q 91 416 61 392 q 154 462 121 440 q 220 503 188 483 q 282 542 253 522 q 292 549 288 544 q 303 556 296 553 q 318 582 318 563 l 318 589 q 311 644 314 610 q 308 718 308 679 q 312 795 308 757 q 324 860 315 833 q 356 910 333 892 q 411 932 379 929 l 422 932 q 489 904 463 932 q 522 831 515 876 q 525 800 525 815 q 513 724 525 768 q 460 639 500 681 q 447 617 449 628 q 446 606 446 611 q 447 593 446 600 q 456 540 450 575 q 469 458 461 504 q 490 361 478 413 q 516 261 501 310 q 550 172 531 213 q 592 106 569 131 q 604 99 597 99 q 615 104 610 99 q 663 164 642 125 q 701 254 683 203 q 735 369 719 306 q 771 501 751 432 q 781 554 779 535 q 783 588 783 574 q 782 615 782 601 q 788 650 782 629 q 800 674 790 664 q 822 690 810 685 q 842 693 832 693 q 853 692 846 693 q 874 683 861 692 q 899 621 890 672 q 913 495 907 569 q 925 334 918 421 q 946 165 932 247 q 984 14 960 82 q 1049 -90 1008 -54 q 1060 -94 1054 -94 q 1093 -77 1072 -94 q 1142 -6 1114 -60 q 1192 137 1169 49 q 1224 346 1215 225 q 1224 421 1225 376 q 1221 515 1224 465 q 1213 617 1218 565 q 1202 713 1208 668 q 1190 790 1196 757 q 1176 839 1183 824 q 1174 849 1174 844 q 1186 861 1174 857 q 1200 863 1193 863 q 1233 839 1222 863 m 435 890 q 431 844 431 874 l 431 814 q 431 776 431 799 q 433 726 431 753 q 439 690 436 700 q 467 750 458 719 q 472 800 472 775 q 472 822 472 806 q 460 859 471 838 q 435 890 450 881 z "},"X":{"ha":876,"x_min":0,"x_max":944,"o":"m 893 269 q 907 289 897 283 q 926 294 917 294 q 940 286 935 293 q 944 275 944 282 q 943 268 944 272 q 915 176 933 232 q 872 63 896 121 q 821 -47 847 6 q 769 -125 794 -99 q 717 -162 746 -150 q 658 -175 688 -175 l 651 -175 q 601 -165 626 -175 q 556 -136 575 -156 q 512 -77 529 -110 q 482 -8 494 -44 q 461 69 469 29 q 444 154 453 110 q 429 124 440 147 q 403 71 418 101 q 373 4 389 40 q 343 -66 357 -32 q 319 -128 329 -100 q 308 -172 310 -157 q 288 -193 306 -192 l 282 -193 q 261 -186 268 -193 q 257 -172 257 -182 q 262 -142 257 -164 q 283 -79 267 -121 q 320 10 299 -37 q 363 101 342 58 q 403 179 385 144 q 428 228 421 214 q 432 244 432 236 l 432 250 q 406 478 418 378 q 381 656 394 579 q 349 788 368 733 q 303 878 331 842 q 261 900 288 900 q 243 897 253 900 q 147 841 186 883 q 87 740 108 799 q 60 613 65 681 q 57 557 57 585 q 63 465 57 517 q 90 358 69 413 q 143 272 111 303 q 160 263 154 263 q 164 263 161 263 q 175 278 167 263 q 191 312 186 294 q 199 349 196 329 q 201 374 200 361 q 206 397 203 386 q 231 425 207 418 q 256 429 243 429 q 276 426 265 429 q 303 415 296 424 q 310 388 310 407 q 308 360 310 374 q 303 333 307 347 q 261 260 290 290 q 217 229 243 239 q 171 221 193 221 q 151 221 167 221 q 112 234 136 221 q 71 272 88 247 q 24 377 42 315 q 1 508 6 439 q 0 546 0 526 q 9 655 0 596 q 46 772 18 714 q 121 872 74 831 q 236 926 168 914 q 281 931 260 931 q 362 910 322 931 q 433 842 401 889 q 483 735 465 796 q 513 617 501 675 q 529 513 524 560 q 542 444 535 465 q 560 472 544 447 q 596 534 575 497 q 640 615 617 571 q 686 700 664 660 q 725 772 708 740 q 747 818 742 804 q 761 835 751 829 q 776 838 768 838 q 783 837 778 838 q 796 832 789 836 q 800 824 800 828 q 799 818 800 821 q 778 773 794 806 q 738 697 761 740 q 688 603 714 653 q 636 510 661 554 q 591 430 611 465 q 563 379 571 394 q 554 356 556 368 l 554 331 q 569 216 561 276 q 588 98 576 156 q 618 -11 600 40 q 665 -97 636 -62 q 682 -107 672 -104 q 689 -108 685 -108 q 699 -104 693 -108 q 756 -47 728 -89 q 808 49 783 -6 q 855 161 833 103 q 893 269 876 219 z "},"Y":{"ha":1185,"x_min":-21,"x_max":1240,"o":"m 1211 286 q 1225 292 1219 292 q 1231 290 1226 292 q 1239 283 1235 289 q 1240 275 1240 279 q 1239 268 1240 274 q 1232 257 1238 263 l 1029 93 q 1013 -40 1024 25 q 980 -158 1003 -106 q 917 -244 957 -210 q 814 -285 878 -279 q 793 -286 804 -286 q 733 -276 764 -286 q 682 -242 703 -265 q 658 -185 661 -218 q 657 -172 657 -179 q 674 -108 657 -144 q 736 -28 692 -72 q 857 60 781 15 q 890 88 879 72 q 900 129 900 103 q 902 196 900 153 q 907 285 904 239 q 912 369 910 331 q 914 421 914 407 l 911 422 q 851 271 879 343 q 790 144 824 199 q 715 56 757 89 q 610 22 672 22 q 525 45 560 22 q 469 108 490 68 q 437 199 447 147 q 422 308 426 251 q 419 378 419 343 q 421 440 419 400 q 425 532 422 481 q 419 533 421 533 q 415 533 418 533 q 410 529 413 532 q 309 483 368 506 q 194 428 250 460 q 95 353 139 397 q 42 240 51 308 q 39 204 39 222 q 53 131 39 169 q 111 57 67 93 q 167 33 143 33 q 200 44 179 33 q 236 103 221 56 q 249 203 249 144 q 248 243 249 208 q 231 335 247 278 q 229 342 229 339 q 242 363 229 354 q 274 372 254 371 q 316 362 294 372 q 347 328 338 351 q 372 205 371 265 q 344 82 372 144 q 297 23 328 44 q 226 -6 265 1 q 188 -10 207 -10 q 137 -4 168 -10 q 71 23 106 1 q 12 80 36 44 q -18 165 -12 115 q -21 203 -21 185 q -6 284 -21 243 q 42 363 8 325 q 122 428 76 400 q 219 481 168 457 q 320 527 269 506 q 414 572 371 549 q 426 593 424 578 q 434 697 429 640 q 453 802 439 753 q 493 883 467 851 q 560 914 518 914 l 564 914 q 611 884 592 913 q 636 815 631 856 q 638 794 638 806 q 626 723 638 763 q 581 649 615 683 q 562 631 568 636 q 554 622 556 626 q 553 614 553 618 l 553 474 q 553 416 553 451 q 556 331 553 381 q 565 235 558 281 q 582 151 571 189 q 611 89 593 113 q 626 76 619 78 q 631 75 628 75 q 644 81 636 75 q 711 140 681 99 q 773 244 742 181 q 838 396 804 308 q 914 596 872 483 q 926 651 924 622 q 931 714 928 679 q 954 751 933 744 q 976 756 965 756 q 1001 751 989 756 q 1026 728 1021 747 q 1039 651 1035 700 q 1044 543 1043 603 q 1042 420 1044 483 q 1038 301 1040 357 q 1034 206 1036 246 q 1032 150 1032 165 q 1135 226 1090 186 q 1211 286 1179 265 m 569 847 q 558 771 561 808 q 556 725 556 749 q 557 693 556 710 q 583 782 583 736 q 569 847 583 814 m 797 -228 q 842 -166 824 -206 q 870 -87 860 -126 q 885 -15 881 -47 q 889 26 889 18 q 861 13 882 26 q 816 -21 840 0 q 770 -69 792 -42 q 740 -124 749 -96 q 735 -158 735 -143 q 741 -190 735 -172 q 769 -228 747 -208 q 783 -233 776 -233 q 797 -228 790 -233 z "},"Z":{"ha":781,"x_min":1,"x_max":824,"o":"m 789 283 q 804 288 797 288 q 812 287 807 288 q 821 281 817 286 q 824 271 824 276 q 823 265 824 269 q 813 253 822 260 q 764 214 792 236 q 707 169 736 192 q 649 126 678 146 q 597 94 619 106 q 557 -43 586 31 q 492 -172 528 -117 q 389 -274 446 -243 q 288 -303 335 -303 q 260 -302 286 -303 q 203 -272 233 -301 q 178 -217 178 -250 q 179 -199 178 -208 q 213 -128 185 -162 q 280 -62 242 -93 q 360 -4 318 -31 q 433 42 401 22 q 453 68 451 53 q 467 174 461 117 q 468 194 468 185 q 453 275 468 239 q 446 289 449 286 l 444 289 q 432 285 440 289 q 383 256 397 267 q 358 233 369 244 q 329 203 346 221 q 274 157 313 186 q 236 143 256 143 q 196 150 217 143 q 182 167 182 156 q 188 183 182 174 q 219 232 203 208 q 256 278 236 256 q 431 533 374 415 q 500 735 488 650 q 504 788 504 763 q 489 865 504 835 q 435 904 468 904 q 424 903 429 904 q 280 854 343 889 q 171 773 217 819 q 99 674 125 726 q 67 575 72 622 q 64 546 64 560 q 76 485 64 517 q 126 436 89 453 q 140 433 133 433 q 163 440 150 433 q 190 468 176 447 q 212 519 203 489 q 221 583 221 549 q 260 629 221 629 q 274 628 267 629 q 311 613 299 625 q 326 576 324 601 q 328 549 328 563 q 312 480 328 514 q 260 422 296 446 q 179 392 225 397 q 157 390 168 390 q 86 404 121 390 q 17 465 36 422 q 1 538 1 497 q 5 584 1 550 q 40 677 8 618 q 124 788 71 736 q 249 878 176 840 q 410 929 321 917 q 461 933 435 933 q 511 926 486 933 q 604 854 578 910 q 624 757 624 813 q 618 690 624 739 q 572 549 613 642 q 465 364 531 456 q 458 353 460 358 q 467 354 461 354 q 496 350 475 354 q 544 325 517 346 q 590 263 571 304 q 603 190 603 233 q 600 147 603 169 q 656 181 626 161 q 710 220 685 200 q 757 257 736 240 q 789 283 778 274 m 265 -244 q 279 -253 271 -253 q 308 -235 289 -253 q 353 -178 326 -218 q 401 -90 379 -137 q 431 -11 424 -43 q 363 -58 400 -32 q 297 -115 325 -85 q 257 -179 268 -146 q 253 -204 253 -192 q 265 -244 253 -225 z "},"a":{"ha":519,"x_min":-24,"x_max":575,"o":"m 561 290 q 575 279 572 288 l 575 276 q 565 232 575 267 q 515 87 536 142 q 476 1 493 32 q 442 -43 458 -31 q 406 -58 426 -56 q 378 -61 392 -61 q 328 -51 351 -61 q 283 -10 296 -39 q 267 52 271 19 q 262 114 263 85 q 256 154 261 143 q 225 98 236 118 q 207 65 214 78 q 195 44 200 53 q 183 26 190 36 q 144 -8 167 3 q 97 -18 121 -18 l 90 -18 q 49 -11 69 -18 q 14 8 29 -4 q -19 75 -12 31 q -24 132 -24 101 q -21 183 -24 150 q -6 264 -18 217 q 19 343 7 311 q 76 432 42 400 q 144 457 101 457 q 171 454 157 457 q 188 449 181 453 q 203 435 194 444 q 224 410 211 426 q 260 368 238 394 q 265 408 264 389 q 270 442 265 428 q 290 464 275 457 q 315 468 299 468 q 338 467 325 468 q 388 421 378 463 q 390 404 390 413 q 390 388 390 396 q 390 344 390 376 q 391 269 390 311 q 393 182 392 228 q 397 98 394 136 q 402 35 399 60 q 411 10 406 10 l 413 10 q 428 26 418 10 q 449 69 438 42 q 474 130 461 97 q 496 192 486 163 q 512 240 506 221 q 519 263 518 260 q 535 288 525 278 q 549 293 540 293 q 561 290 554 293 m 244 264 q 247 273 246 268 q 242 288 247 278 q 227 315 238 299 q 196 360 217 332 q 184 374 190 367 q 169 386 178 381 q 141 318 154 365 q 119 219 128 271 q 111 122 111 168 l 111 113 q 121 56 111 74 q 146 90 131 67 q 178 143 161 114 q 212 204 194 172 q 244 264 229 236 z "},"b":{"ha":565,"x_min":0,"x_max":596,"o":"m 568 292 q 579 294 574 294 q 585 293 581 294 q 592 287 589 292 q 595 275 596 282 q 585 263 594 268 q 551 241 567 251 q 517 219 535 231 q 479 192 500 207 q 429 158 458 178 q 424 115 426 149 q 412 38 421 82 q 386 -53 403 -6 q 340 -139 369 -101 q 278 -176 318 -168 q 246 -181 261 -181 q 201 -171 222 -181 q 165 -126 172 -158 q 163 -101 163 -115 q 172 -50 163 -81 q 206 21 181 -19 q 265 93 231 61 q 281 122 279 107 q 283 143 281 125 q 289 188 286 161 q 295 244 292 214 q 301 301 299 274 q 302 350 303 329 q 299 379 301 371 l 297 379 q 278 365 293 379 q 245 324 264 351 q 206 258 226 296 q 172 175 186 219 q 147 78 151 113 q 140 26 142 43 q 136 3 139 8 q 118 -8 133 -3 q 86 -15 103 -14 l 75 -15 q 49 -13 63 -15 q 24 -3 36 -11 q 10 21 13 6 q 6 55 8 26 q 1 125 3 83 q 0 185 0 153 q 0 235 0 201 q 6 321 0 268 q 24 445 11 378 q 56 578 36 513 q 102 702 75 643 q 165 804 129 761 q 243 869 200 847 q 304 883 271 883 q 336 881 319 883 q 406 819 386 869 q 417 760 417 792 q 403 681 417 732 q 331 554 390 631 q 163 417 271 478 q 155 410 158 414 q 149 397 151 407 q 143 368 146 388 q 139 315 140 349 q 135 276 138 296 q 133 256 133 267 q 135 235 133 246 q 140 240 139 236 q 143 246 140 243 q 199 340 167 296 q 271 425 231 385 q 307 444 285 439 q 331 447 319 447 q 356 444 340 447 q 389 428 371 442 q 415 390 407 415 q 422 347 419 375 q 426 290 425 319 q 426 237 426 261 q 426 204 426 213 q 503 252 464 226 q 568 292 542 278 m 304 829 q 246 735 272 793 q 200 619 219 676 q 171 519 181 561 q 164 478 164 489 q 165 472 164 474 l 169 472 q 278 570 238 521 q 337 663 318 619 q 357 744 356 707 l 357 756 q 350 806 357 785 q 329 835 343 826 q 319 838 324 838 q 304 829 311 838 m 236 -96 q 244 -78 240 -93 q 252 -47 249 -64 q 258 -14 256 -29 q 263 6 261 1 q 238 -47 244 -18 q 233 -76 233 -62 q 236 -96 233 -87 z "},"c":{"ha":378,"x_min":-24,"x_max":435,"o":"m 385 281 q 400 293 390 290 q 410 294 406 294 q 422 292 415 294 q 433 282 428 289 q 435 275 435 278 q 432 264 435 269 q 392 192 421 239 q 329 94 364 144 q 258 1 294 44 q 194 -60 222 -42 q 138 -82 169 -76 q 107 -85 122 -85 q 69 -81 92 -85 q 24 -59 47 -76 q -10 -10 0 -42 q -24 86 -22 28 l -24 101 q -15 213 -24 153 q 13 335 -7 272 q 61 446 32 399 q 131 517 90 493 q 188 532 157 532 q 221 528 204 532 q 249 506 238 524 q 269 464 261 488 q 282 416 278 440 q 288 376 286 392 l 288 372 q 280 351 288 358 q 263 343 272 343 l 258 343 q 242 348 250 343 q 232 365 233 353 q 227 387 231 374 q 219 413 224 400 q 209 438 214 426 q 200 451 204 449 q 180 422 192 447 q 156 359 168 397 q 131 273 143 321 q 114 175 119 225 q 110 97 110 135 q 110 58 110 88 q 125 -10 111 29 q 135 -26 131 -25 l 138 -26 q 153 -19 142 -26 q 215 37 182 -1 q 279 119 247 75 q 338 206 311 163 q 385 281 365 250 z "},"d":{"ha":578,"x_min":-44,"x_max":675,"o":"m 589 282 q 604 294 594 292 l 608 294 q 624 291 617 294 q 635 279 631 288 q 638 271 638 275 q 635 261 638 267 q 592 174 615 219 q 542 88 569 128 q 485 22 515 49 q 422 -8 456 -6 l 408 -8 q 344 1 375 -8 q 293 31 313 13 q 263 66 274 49 q 249 98 253 83 q 244 117 246 113 q 211 52 232 94 q 161 -22 190 10 q 122 -47 144 -39 q 76 -54 99 -54 l 65 -54 q 31 -51 49 -54 q -1 -39 13 -47 q -36 8 -26 -25 q -44 74 -44 38 q -44 103 -44 79 q -33 175 -43 126 q -8 267 -24 224 q 28 347 8 311 q 68 401 49 383 q 128 435 96 428 q 153 438 140 438 q 194 432 172 438 q 217 422 203 429 q 235 408 231 414 q 241 435 239 422 q 246 464 243 449 q 301 666 264 572 q 388 824 339 760 q 497 911 438 888 q 547 921 522 921 q 619 901 583 921 q 674 810 675 872 q 634 676 674 749 q 527 535 594 604 q 382 419 460 465 q 369 403 371 413 q 363 299 363 351 q 367 200 363 246 q 382 118 372 154 q 404 64 392 82 q 426 50 414 50 l 433 50 q 450 60 440 51 q 510 136 469 76 q 589 282 551 196 m 550 871 q 492 794 521 844 q 441 685 464 743 q 403 570 418 628 q 382 474 388 513 q 426 500 396 475 q 489 563 456 525 q 553 647 522 601 q 603 738 585 693 q 619 814 619 779 q 618 836 619 817 q 583 875 617 856 q 566 881 572 882 q 550 871 560 881 m 156 90 q 204 182 189 153 q 226 228 219 211 q 231 253 231 242 q 230 264 231 256 q 229 304 229 272 q 230 312 229 308 q 228 318 231 315 q 213 342 218 329 q 197 365 207 354 q 182 376 188 376 q 163 350 175 376 q 124 256 140 306 q 99 162 108 207 q 89 82 90 117 q 88 64 88 72 q 93 33 88 43 q 103 25 96 25 q 118 33 107 25 q 156 90 129 42 z "},"e":{"ha":311,"x_min":-54,"x_max":365,"o":"m 317 274 q 333 289 322 283 q 347 292 340 292 q 355 290 350 292 q 364 281 360 289 q 365 274 365 278 q 361 258 365 267 q 319 181 344 225 q 261 94 293 136 q 192 19 229 53 q 114 -24 156 -14 q 65 -29 89 -29 q 18 -22 40 -29 q -20 -1 -4 -15 q -44 36 -36 13 q -53 88 -51 54 q -54 110 -54 99 q -49 166 -54 133 q -32 240 -44 199 q 3 317 -19 282 q 59 379 25 353 q 139 415 93 406 q 158 417 149 417 q 194 406 179 417 q 213 360 213 389 q 212 341 213 358 q 185 282 211 324 q 101 199 158 240 q 83 171 85 189 q 79 107 79 133 q 83 65 79 81 q 110 35 90 35 l 111 35 q 161 56 135 35 q 215 112 188 78 q 268 188 242 146 q 317 274 294 231 m 157 354 q 126 312 136 336 q 108 261 115 288 q 142 303 125 283 q 157 350 157 321 l 157 354 z "},"f":{"ha":300,"x_min":-32,"x_max":354,"o":"m 307 285 q 331 296 319 296 q 347 290 340 296 q 354 274 353 283 l 354 271 q 347 256 354 263 q 310 222 339 246 q 244 169 281 199 q 172 111 208 140 q 111 64 135 82 q 113 44 111 58 q 133 11 114 31 q 173 -41 160 -14 q 190 -97 186 -68 q 193 -126 193 -111 q 190 -165 193 -142 q 176 -222 186 -189 q 133 -274 165 -262 q 88 -282 113 -282 q 60 -279 74 -282 q 17 -260 33 -275 q -8 -225 1 -246 q -22 -177 -18 -204 q -29 -119 -26 -150 q -32 -42 -32 -83 q -26 83 -32 7 q -5 256 -21 160 q 30 434 11 353 q 64 561 49 515 q 81 585 69 576 q 108 596 93 593 q 129 597 118 597 q 144 597 133 597 q 165 592 154 596 q 186 581 181 588 q 190 563 190 575 q 189 548 190 560 q 178 501 188 536 q 157 407 169 467 q 152 382 156 403 q 143 333 149 361 q 132 272 138 304 q 123 211 126 239 q 118 164 119 183 l 118 156 q 121 143 118 144 l 122 143 q 149 158 128 143 q 199 195 169 172 q 258 243 228 218 q 307 285 288 268 m 106 -49 q 103 -75 103 -62 q 105 -99 103 -83 q 110 -136 107 -114 q 117 -99 117 -117 q 106 -49 117 -74 z "},"g":{"ha":538,"x_min":-76,"x_max":597,"o":"m 597 279 l 597 276 q 594 272 597 274 q 589 267 592 269 q 558 240 574 253 q 526 214 542 228 q 447 145 486 179 q 367 76 407 111 q 357 66 360 71 q 352 42 354 61 q 349 -14 350 24 q 343 -121 347 -51 q 335 -220 340 -168 q 320 -322 331 -272 q 292 -418 310 -372 q 244 -499 274 -464 q 194 -544 222 -526 q 136 -569 167 -561 q 83 -576 110 -576 q 60 -576 78 -576 q 13 -567 42 -575 q -49 -529 -28 -554 q -75 -471 -69 -504 q -76 -447 -76 -460 q -69 -394 -76 -425 q -44 -324 -62 -362 q 60 -163 -4 -240 q 200 -15 125 -86 q 210 -2 207 -8 q 216 17 214 4 q 220 51 218 29 q 225 114 222 74 q 225 122 225 118 q 221 131 225 125 q 187 85 200 103 q 164 56 174 68 q 147 35 154 43 q 133 19 140 26 q 81 -11 110 -3 q 39 -18 60 -18 q 13 -16 31 -18 q -26 1 -6 -14 q -53 43 -47 17 q -56 78 -56 60 q -51 126 -56 96 q -34 200 -47 157 q -2 283 -21 243 q 36 354 17 324 q 88 410 58 390 q 150 438 118 431 q 174 440 163 440 q 215 433 192 440 q 261 407 239 426 q 271 401 268 401 q 274 401 272 401 q 285 408 275 401 q 335 428 307 428 q 357 425 346 428 q 375 417 369 422 q 381 395 381 411 q 378 349 382 379 q 371 267 375 319 q 364 190 367 217 q 361 151 361 164 l 361 142 q 361 135 361 138 q 364 132 361 133 q 392 154 365 132 q 451 203 418 176 q 513 255 483 231 q 550 285 542 279 q 578 291 561 292 q 597 279 594 290 m 175 -362 q 201 -222 194 -292 q 211 -78 208 -151 q 181 -102 203 -81 q 130 -158 158 -124 q 72 -234 101 -192 q 22 -320 43 -276 q -7 -407 1 -364 q -10 -436 -10 -422 q 0 -483 -10 -461 q 50 -531 15 -521 q 61 -532 56 -532 q 95 -517 78 -532 q 129 -476 113 -503 q 158 -417 146 -449 q 175 -362 169 -386 m 253 325 l 253 331 q 251 342 253 336 q 233 361 249 349 q 200 383 208 383 q 174 356 192 383 q 129 273 149 317 q 97 188 110 229 q 79 111 85 146 q 75 69 75 88 q 76 54 75 61 q 106 81 85 58 q 150 131 126 103 q 196 187 174 158 q 231 232 218 215 q 236 240 235 236 q 240 254 238 244 q 244 280 242 264 q 253 325 247 296 z "},"h":{"ha":565,"x_min":-14,"x_max":619,"o":"m 576 279 q 590 292 581 288 q 601 293 596 293 q 609 292 604 293 q 618 283 614 290 q 619 276 619 281 q 615 263 619 271 l 607 246 q 583 196 599 228 q 547 126 567 164 q 505 52 526 88 q 463 -10 483 17 q 428 -43 443 -36 q 374 -54 406 -54 q 351 -53 371 -54 q 300 -35 331 -53 q 267 8 276 -21 q 258 74 258 36 q 265 150 258 110 q 278 227 271 190 q 290 296 285 264 q 294 331 294 317 q 293 343 294 338 q 270 333 288 343 q 231 301 253 322 q 186 251 208 281 q 150 183 164 221 q 133 136 139 154 q 124 108 126 118 q 121 90 121 97 q 122 78 121 83 l 125 47 l 125 36 q 123 15 125 26 q 113 -8 121 3 q 90 -21 106 -18 q 65 -22 76 -22 q 18 -8 36 -22 q -3 22 0 7 q -14 181 -14 93 l -14 200 q -4 362 -14 278 q 28 530 6 446 q 88 681 51 614 q 185 804 132 760 q 288 864 238 849 q 343 872 317 872 q 393 865 363 872 q 447 826 424 857 q 471 747 471 796 q 436 639 471 699 q 322 515 392 565 q 164 424 251 465 q 142 413 149 417 q 133 397 135 408 q 131 372 133 394 q 126 324 128 350 q 122 278 124 299 l 122 265 q 124 254 122 256 q 129 258 125 254 q 194 331 157 300 q 274 389 232 361 q 322 404 296 403 l 331 404 q 365 399 351 404 q 410 351 403 385 q 414 307 414 331 q 413 278 414 293 q 403 212 410 254 q 392 127 397 169 q 388 51 388 85 l 388 42 q 394 13 388 17 q 399 11 397 11 q 419 22 407 11 q 448 56 431 33 q 484 109 465 79 q 521 170 503 139 q 553 231 539 201 q 576 279 568 260 m 146 472 q 144 464 144 468 l 144 461 q 146 454 144 458 q 172 466 150 456 q 222 494 193 476 q 282 535 250 511 q 340 589 314 560 q 383 646 364 614 q 411 711 403 678 q 417 750 417 731 q 413 784 417 763 q 383 829 408 806 q 357 842 371 842 q 328 834 342 842 q 301 814 314 826 q 278 788 288 801 q 195 636 225 713 q 146 472 165 560 z "},"i":{"ha":265,"x_min":-15,"x_max":336,"o":"m 279 272 q 296 289 285 285 q 310 292 303 292 q 321 290 314 292 q 333 279 328 288 q 336 268 336 275 q 333 256 336 263 q 273 122 304 183 q 210 17 242 61 q 156 -29 188 -15 q 101 -40 128 -40 q 77 -39 96 -40 q 32 -19 58 -37 q -4 32 6 0 q -14 89 -12 57 q -15 131 -15 110 q -15 163 -15 142 q -10 217 -14 185 q -3 275 -7 249 q 8 360 4 326 q 18 412 11 393 q 39 438 25 431 q 71 442 50 442 l 82 442 q 127 428 117 440 q 138 381 138 415 q 131 289 138 339 q 121 189 125 239 q 118 117 118 151 q 118 77 118 106 q 132 18 118 49 q 168 57 147 26 q 210 126 189 88 q 249 203 231 164 q 279 272 267 243 m 89 486 q 49 519 64 503 q 25 553 33 535 q 19 574 19 563 q 22 589 19 581 q 54 613 33 613 q 68 611 56 613 q 90 586 81 610 q 103 600 94 594 q 123 606 113 606 q 143 604 133 607 q 157 593 153 601 q 164 572 164 582 q 157 550 164 564 q 135 521 150 536 q 89 486 117 503 z "},"j":{"ha":293,"x_min":-233,"x_max":333,"o":"m 293 283 q 314 292 304 292 q 326 288 321 292 q 333 274 333 281 q 328 260 333 267 q 313 245 326 257 q 281 217 300 233 q 240 181 261 200 q 199 144 218 161 q 165 116 179 128 q 150 103 151 104 q 132 52 135 89 q 129 -35 129 15 q 126 -146 129 -86 q 106 -263 122 -206 q 56 -372 90 -321 q -42 -456 21 -422 q -107 -472 -74 -472 q -161 -462 -133 -472 q -221 -404 -204 -446 q -233 -342 -233 -376 q -228 -290 -233 -326 q -192 -193 -224 -254 q -106 -75 -161 -132 q -49 -19 -69 -37 q -17 10 -28 0 q -4 26 -7 19 q -1 43 -1 32 l -1 99 q -1 206 -1 135 q 0 399 -1 276 q 13 440 0 428 q 47 450 24 450 l 54 450 q 103 436 86 449 q 126 390 119 424 q 133 296 132 356 q 135 140 133 236 q 191 190 169 171 q 224 219 213 208 q 242 237 236 231 q 255 249 249 243 q 269 262 261 254 q 293 283 276 269 m -83 -401 q -49 -340 -62 -376 q -26 -265 -35 -304 q -12 -186 -17 -225 q -6 -115 -7 -147 q -4 -86 -4 -99 q -6 -57 -4 -72 q -10 -39 -7 -42 q -57 -86 -28 -56 q -113 -156 -86 -117 q -158 -244 -140 -196 q -174 -326 -174 -283 q -172 -346 -174 -336 q -161 -390 -169 -369 q -133 -425 -153 -410 q -118 -431 -125 -431 q -112 -430 -117 -431 q -83 -401 -107 -429 m 51 493 q 11 526 28 510 q -14 560 -4 542 q -19 579 -19 569 q -17 594 -19 588 q -1 614 -11 607 q 15 618 7 618 q 23 617 17 618 q 38 610 29 617 q 53 592 47 604 q 66 607 57 601 q 85 613 75 613 q 106 611 96 614 q 119 600 115 608 q 126 578 126 589 q 119 556 126 569 q 97 526 113 542 q 51 493 79 508 z "},"k":{"ha":503,"x_min":-10,"x_max":560,"o":"m 513 282 q 531 291 521 290 q 547 288 540 292 q 558 276 554 283 q 560 271 560 274 q 556 260 560 265 l 397 31 q 347 -8 374 1 q 306 -17 326 -17 q 286 -15 301 -17 q 248 -1 271 -14 q 208 29 225 13 q 178 67 196 42 q 149 106 160 92 q 142 115 146 108 q 135 121 138 121 l 133 121 q 124 99 124 119 q 124 69 124 79 q 126 21 126 38 q 104 -6 126 4 q 71 -12 89 -11 q 57 -14 64 -14 q 34 -11 47 -14 q 9 1 21 -8 q -4 25 -3 10 q -10 147 -10 65 q 1 324 -10 228 q 33 519 11 419 q 96 696 56 618 q 196 817 136 774 q 297 849 240 849 q 339 844 317 849 q 406 801 382 836 q 424 733 424 772 q 422 698 424 726 q 385 613 419 669 q 283 503 351 556 q 211 453 238 468 q 170 433 185 439 q 151 422 156 426 q 144 404 146 418 q 141 378 143 397 q 136 337 139 358 q 132 295 133 315 q 131 267 131 275 q 139 275 138 269 q 143 285 140 281 q 181 344 157 311 q 233 405 204 378 q 294 447 263 432 q 333 456 314 456 q 356 453 344 456 q 394 413 386 444 q 397 389 397 401 q 386 335 397 367 q 342 266 375 304 q 263 207 310 228 q 240 197 251 201 q 217 188 228 192 q 209 184 213 185 q 203 178 206 183 q 233 152 218 168 q 263 119 249 136 q 292 84 278 101 q 317 54 306 67 q 328 47 324 47 l 329 47 q 342 53 333 47 q 375 89 354 63 q 420 149 396 115 q 469 217 444 182 q 513 282 493 253 m 172 550 q 157 482 158 497 l 157 479 q 161 471 157 471 q 167 474 164 471 q 207 499 185 483 q 251 533 229 514 q 294 575 274 553 q 329 621 314 597 q 361 704 356 663 q 364 735 364 721 q 356 778 364 756 q 329 811 349 801 q 317 814 324 814 q 278 795 301 814 q 227 717 256 776 q 172 550 199 658 m 299 399 q 267 373 286 392 q 231 331 249 354 q 201 285 214 308 q 185 246 188 261 q 253 313 226 275 q 299 399 281 351 z "},"l":{"ha":353,"x_min":0,"x_max":407,"o":"m 364 278 q 375 294 367 290 q 386 297 381 297 q 393 296 389 297 q 403 286 397 294 q 407 274 407 281 q 406 265 407 269 q 380 180 397 225 q 339 95 363 135 q 286 25 315 56 q 224 -17 257 -6 q 157 -26 193 -26 q 131 -26 153 -26 q 76 -3 108 -26 q 33 53 51 15 q 6 161 14 90 q 0 249 0 204 q 3 334 0 279 q 24 465 7 389 q 69 608 40 540 q 134 724 97 676 q 217 796 171 772 q 278 810 246 810 q 315 806 296 810 q 365 747 357 794 q 368 718 368 733 q 350 627 368 681 q 282 507 332 574 q 157 394 232 440 q 140 368 143 388 q 135 289 136 332 l 135 260 q 137 192 135 229 q 148 114 139 156 q 175 42 157 72 q 197 28 183 29 q 207 26 203 26 q 217 29 213 26 q 274 78 250 47 q 317 142 299 108 q 346 213 335 176 q 364 278 357 249 m 307 728 q 292 767 304 767 l 285 765 q 258 733 276 763 q 219 658 239 704 q 183 566 199 611 q 158 486 167 521 q 153 456 153 465 q 156 446 153 449 q 188 469 163 446 q 242 531 214 492 q 290 622 269 571 q 308 710 308 665 l 307 728 z "},"m":{"ha":678,"x_min":-10,"x_max":724,"o":"m 724 269 q 700 165 714 226 q 669 42 686 104 q 633 -71 653 -19 q 590 -144 613 -122 q 560 -162 581 -154 q 518 -171 540 -171 l 513 -171 q 473 -160 493 -171 q 440 -122 453 -150 q 424 -28 425 -89 l 424 -4 q 428 106 424 46 q 441 231 433 167 q 453 335 449 294 q 416 269 432 314 q 388 176 400 224 q 369 87 376 128 q 357 33 361 46 q 328 1 349 10 q 299 -4 314 -4 q 283 -3 292 -4 q 231 24 246 3 q 215 85 217 46 q 214 108 214 96 q 220 189 214 140 q 233 313 226 238 q 204 250 218 292 q 178 163 190 208 q 158 76 167 117 q 143 18 149 36 q 90 -24 132 -22 l 82 -24 q 47 -19 64 -24 q 2 39 14 -10 q -10 149 -10 88 q -3 270 -10 210 q 11 365 4 331 q 27 402 18 393 q 64 415 36 411 q 81 417 72 417 q 92 415 85 417 q 113 411 100 414 q 129 401 124 407 q 135 384 135 396 q 134 351 136 372 q 129 296 132 331 q 125 249 126 272 q 124 217 124 233 l 124 200 q 128 206 128 203 q 131 211 129 208 q 156 276 142 244 q 185 339 169 307 q 240 400 210 385 q 282 411 261 411 q 306 407 289 411 q 340 379 322 403 q 356 329 356 357 l 356 324 q 361 293 356 311 q 392 353 379 326 q 429 404 406 379 q 472 432 447 424 q 504 438 488 438 q 526 434 511 438 q 558 413 542 431 q 576 364 575 394 l 576 344 q 572 242 576 303 q 560 113 567 182 q 551 -15 554 44 l 551 -44 q 557 -110 551 -85 q 584 -72 571 -100 q 610 -6 597 -43 q 633 76 622 32 q 654 160 644 119 q 672 233 664 200 q 685 285 679 267 q 693 293 686 292 l 697 293 q 709 291 703 293 q 721 283 715 289 q 724 274 724 278 l 724 269 z "},"n":{"ha":506,"x_min":-7,"x_max":571,"o":"m 517 276 q 529 290 519 286 q 542 292 536 292 q 552 291 546 292 q 565 285 558 290 q 571 276 571 281 q 569 272 571 274 q 549 187 561 239 q 521 83 536 135 q 488 -10 506 32 q 450 -64 469 -51 q 422 -75 438 -71 q 382 -79 406 -79 q 315 -51 338 -79 q 285 22 293 -22 q 276 106 276 60 q 276 140 276 111 q 281 217 276 169 q 289 299 285 264 q 292 328 292 317 q 289 343 292 339 q 282 338 283 342 q 278 332 281 335 q 224 190 239 254 q 198 80 208 126 q 173 6 188 33 q 122 -28 158 -22 q 93 -31 107 -31 q 33 -9 57 -31 q 0 58 10 13 q -7 136 -7 93 q -6 184 -7 149 q -1 278 -4 219 q 1 352 0 324 q 6 397 3 381 q 15 419 8 413 q 35 429 22 425 q 69 435 51 435 q 89 433 79 435 q 117 417 108 429 q 129 379 126 406 q 131 347 131 365 q 128 292 131 328 q 125 182 126 257 q 126 144 125 163 q 129 107 126 126 q 144 143 135 118 q 164 199 153 168 q 186 260 175 229 q 208 314 197 290 q 238 372 225 349 q 266 407 251 394 q 297 424 281 419 q 319 426 307 426 q 336 425 328 426 q 396 372 381 417 q 403 344 401 358 q 407 308 406 329 q 408 257 408 288 q 407 182 407 226 q 408 147 407 176 q 410 83 408 117 q 415 22 413 50 q 422 -8 418 -7 q 442 26 431 0 q 466 92 453 53 q 492 178 479 131 q 517 276 506 226 z "},"o":{"ha":392,"x_min":-43,"x_max":449,"o":"m 404 285 q 418 294 408 293 l 424 294 q 435 292 429 294 q 446 285 440 290 q 449 278 449 282 q 446 268 449 274 q 360 131 414 176 q 242 83 306 85 l 240 83 q 240 81 240 82 q 239 78 240 81 q 181 3 219 32 q 101 -31 143 -25 q 78 -32 89 -32 q 17 -18 49 -32 q -31 39 -14 -4 q -42 94 -40 64 q -43 119 -43 107 q -40 163 -43 138 q -27 220 -36 189 q -4 278 -18 251 q 9 297 3 290 q 19 307 15 303 q 27 315 24 311 q 31 329 31 319 q 36 368 31 351 q 69 412 46 396 q 121 428 92 428 q 179 415 150 429 q 230 366 208 400 q 261 279 251 332 q 265 229 265 256 q 258 149 265 192 l 258 136 q 335 173 294 139 q 404 285 376 207 m 138 42 q 150 55 143 46 q 164 74 157 64 q 178 97 171 85 q 142 115 158 106 q 111 135 126 124 q 89 157 96 146 q 88 139 88 149 q 90 111 88 129 q 99 73 92 93 q 115 43 106 53 q 126 38 121 38 q 138 42 132 38 m 194 150 q 204 182 200 151 q 207 215 207 197 q 203 261 207 232 q 182 328 199 290 q 128 383 165 367 q 119 385 124 385 q 90 363 100 385 q 82 319 82 344 q 85 283 82 310 q 114 215 88 257 q 194 150 140 174 z "},"p":{"ha":551,"x_min":-22,"x_max":586,"o":"m 564 292 q 569 293 567 293 q 576 291 572 293 q 583 283 579 289 q 585 272 586 278 q 579 264 585 267 q 524 231 550 247 q 474 199 500 215 q 424 171 447 183 q 419 155 421 163 q 414 136 418 147 q 402 107 410 125 q 379 58 394 89 q 328 -3 360 21 q 265 -39 297 -26 q 208 -50 235 -50 q 190 -50 206 -50 q 158 -37 174 -50 q 147 -12 147 -28 q 150 8 147 -7 q 189 60 153 24 q 226 93 211 82 q 252 111 242 104 q 269 124 263 118 q 279 146 275 131 q 290 187 285 164 q 301 234 296 210 q 308 281 306 258 q 311 322 311 304 q 306 328 311 326 q 279 302 294 317 q 247 265 264 288 q 213 208 231 242 q 178 128 194 175 q 143 13 156 63 q 124 -85 131 -37 q 116 -186 118 -133 q 113 -308 114 -239 q 101 -334 113 -325 q 74 -346 89 -343 q 47 -349 61 -349 q 31 -348 43 -349 q 4 -343 19 -347 q -17 -329 -11 -337 q -22 -310 -22 -322 l -22 -304 q -19 -254 -21 -296 q -16 -164 -18 -212 q -12 -72 -14 -115 q -10 -17 -11 -29 q -1 170 -4 93 q 5 299 3 247 q 10 379 7 350 q 17 424 13 408 q 28 444 21 439 q 46 453 35 450 q 76 457 60 457 q 106 453 93 457 q 128 440 119 449 q 138 415 138 431 q 136 296 138 356 q 135 213 135 256 l 135 169 q 156 211 146 192 q 178 251 165 231 q 209 297 190 272 q 257 354 228 322 q 272 372 265 364 q 290 388 279 381 q 331 404 308 400 q 349 406 339 406 q 378 401 361 406 q 410 383 394 397 q 431 346 426 369 q 436 296 436 319 q 435 274 436 290 q 431 225 435 258 q 452 235 436 226 q 488 253 468 243 q 528 274 508 264 q 564 292 549 285 z "},"q":{"ha":542,"x_min":-40,"x_max":588,"o":"m 581 285 q 588 276 588 281 q 581 269 588 274 q 561 254 575 264 q 440 164 486 200 q 370 104 394 128 q 340 67 346 81 q 336 50 336 58 q 339 38 336 46 q 353 20 342 31 q 374 -7 364 10 q 392 -49 385 -24 q 396 -87 396 -65 q 394 -115 396 -100 q 352 -253 383 -211 q 286 -299 321 -294 q 272 -300 279 -300 q 219 -280 246 -300 q 185 -228 192 -260 q 175 -144 175 -187 q 178 -93 175 -131 q 188 26 181 -56 q 192 65 190 54 l 192 72 q 190 88 192 81 q 145 14 164 43 q 99 -22 126 -15 q 57 -28 76 -28 q -7 -7 19 -28 q -40 82 -40 18 l -40 101 q -24 210 -36 160 q 5 303 -11 261 q 38 374 21 344 q 71 419 56 404 q 107 444 85 433 q 154 458 129 456 l 160 458 q 204 449 181 458 q 249 411 228 439 q 255 424 253 415 q 263 443 257 433 q 281 460 269 453 q 308 465 290 465 l 315 465 q 353 454 340 464 q 369 422 365 444 q 371 401 371 413 q 367 353 371 383 q 354 268 363 324 q 343 199 347 224 q 338 163 339 175 q 336 149 336 151 q 338 142 336 144 q 342 140 340 140 q 344 142 343 140 q 349 147 346 144 q 434 211 392 179 q 521 275 476 243 q 557 291 542 290 q 581 285 572 292 m 96 64 q 111 83 99 64 q 140 128 124 101 q 173 188 156 156 q 204 249 190 219 q 226 300 218 278 q 232 322 232 315 q 231 326 232 325 q 190 388 217 360 q 183 392 186 392 q 178 385 181 392 q 144 312 160 353 q 116 228 128 271 q 99 143 104 185 q 94 89 94 114 q 96 64 94 76 m 314 -171 q 329 -101 325 -136 q 331 -87 331 -94 q 318 -33 331 -61 q 313 -101 314 -68 q 311 -129 311 -115 q 314 -171 311 -149 z "},"r":{"ha":411,"x_min":-47,"x_max":482,"o":"m 431 278 q 447 292 436 289 l 454 292 q 467 289 460 292 q 481 278 475 286 q 482 269 482 274 q 479 258 482 264 q 400 102 433 176 q 335 -25 367 28 q 267 -104 303 -78 q 210 -122 242 -122 q 178 -118 194 -122 q 111 -68 129 -106 q 93 21 93 -31 q 106 131 93 72 q 133 242 118 189 q 135 251 135 247 q 133 258 135 256 l 129 260 l 121 256 q 76 243 99 244 q 54 242 65 242 q 31 243 43 242 q -36 283 -19 249 q -47 333 -47 306 q -42 375 -47 346 q -10 451 -37 404 q 54 532 17 499 q 100 558 74 550 q 138 565 119 565 l 149 564 q 197 531 188 558 q 203 497 203 515 q 196 455 203 482 q 167 386 189 428 q 118 311 144 344 q 111 301 115 306 q 104 289 107 296 q 138 297 121 293 q 171 310 156 300 q 218 322 193 322 q 242 319 229 322 q 265 308 258 315 q 271 289 271 301 q 270 276 271 286 q 262 235 269 265 q 244 153 254 204 q 235 108 240 135 q 228 54 231 82 q 225 11 225 32 q 226 -13 225 4 q 235 -51 226 -31 q 257 -31 242 -51 q 291 20 272 -11 q 331 90 310 51 q 372 165 353 128 q 407 232 392 201 q 431 278 422 263 m 140 482 q 103 418 118 451 q 82 349 89 385 q 121 411 104 379 q 140 482 138 443 z "},"s":{"ha":299,"x_min":-6,"x_max":343,"o":"m 303 286 q 319 290 310 290 q 334 286 328 289 q 343 279 340 283 l 343 278 q 338 268 343 272 q 300 244 321 260 q 258 213 282 232 q 206 168 233 194 q 194 154 194 158 l 194 153 q 200 136 194 147 q 228 54 219 94 q 232 13 232 32 q 226 -27 232 -4 q 197 -72 221 -50 q 128 -99 174 -93 l 115 -99 q 72 -90 94 -99 q 35 -60 49 -82 q 22 -15 22 -42 q 24 8 22 -11 q 54 69 25 26 q 74 96 68 89 q 76 104 76 99 q 74 117 76 110 q 28 206 53 164 q -4 297 3 249 q -6 322 -6 310 q 8 376 -6 350 q 49 420 22 403 q 107 440 75 438 l 119 440 q 163 431 142 440 q 193 394 183 421 q 196 375 196 386 q 185 328 196 354 q 169 310 179 315 q 149 304 158 304 q 131 311 138 304 q 126 319 126 315 q 128 326 126 322 q 136 361 136 347 q 133 385 136 375 q 125 394 131 394 l 124 394 q 115 386 118 394 q 107 350 107 369 q 113 310 107 331 q 126 270 118 289 q 143 238 135 251 q 167 199 163 204 q 171 196 168 196 q 181 201 174 196 q 240 247 208 224 q 303 286 271 271 m 97 -37 q 101 -1 101 -18 q 99 33 100 15 q 88 0 89 17 l 88 -7 q 97 -37 88 -22 z "},"t":{"ha":304,"x_min":-110,"x_max":378,"o":"m 315 285 q 328 292 319 290 l 332 292 q 344 290 338 292 q 357 283 351 288 q 360 276 360 281 q 358 272 360 275 q 315 187 338 231 q 269 104 292 143 q 226 36 247 65 q 185 -6 204 7 q 149 -19 172 -14 q 124 -22 136 -22 q 90 -18 111 -22 q 45 6 69 -14 q 11 68 21 25 q -1 172 0 113 l -1 203 q 2 302 -1 247 q 13 417 6 357 q 24 525 19 478 l -90 524 l -93 524 q -105 529 -100 524 q -110 543 -110 535 l -110 546 q -103 558 -110 551 q -79 564 -97 564 l 26 564 l 40 669 q 65 704 43 693 q 113 715 88 715 q 157 706 138 715 q 174 676 174 696 l 174 674 q 172 652 174 668 q 168 619 169 636 q 165 587 167 601 q 163 568 163 572 q 210 569 182 569 q 267 569 239 569 q 321 569 296 569 q 358 569 346 569 q 372 565 367 569 q 377 555 376 561 q 372 542 378 549 q 354 535 367 536 q 325 533 351 535 q 267 531 299 532 q 203 531 235 531 q 158 531 172 531 q 143 395 151 468 q 131 254 135 322 q 129 188 129 219 q 132 113 129 157 q 154 38 135 69 q 219 119 185 57 q 315 285 254 181 z "},"u":{"ha":513,"x_min":-8,"x_max":574,"o":"m 518 278 q 533 290 522 286 q 554 294 544 294 q 571 288 564 293 q 574 279 574 285 q 572 271 574 275 q 519 136 540 193 q 478 42 497 79 q 438 -15 458 4 q 388 -33 418 -33 l 375 -33 q 303 -12 328 -33 q 271 40 279 8 q 263 104 263 71 q 258 157 263 138 q 214 83 238 122 q 163 15 190 44 q 122 -6 147 0 q 96 -8 110 -8 q 64 -4 83 -8 q 24 21 44 0 q -3 81 3 42 q -8 157 -8 118 q -6 233 -8 196 q 2 306 -3 271 q 10 368 7 340 q 22 397 11 386 q 48 411 33 407 q 80 415 63 415 q 113 408 97 414 q 139 385 135 401 q 140 364 140 376 q 138 326 140 351 q 129 253 135 301 q 124 172 124 218 q 125 133 124 154 q 125 102 125 118 q 131 68 125 86 q 164 108 146 82 q 200 163 182 135 q 233 219 218 192 q 260 264 249 246 q 267 283 265 274 q 271 303 269 292 q 275 331 272 315 q 285 371 278 347 q 305 399 290 389 q 337 409 319 408 q 369 400 354 410 q 390 369 385 390 q 394 333 393 360 q 394 270 394 306 q 393 196 393 235 l 393 158 q 393 117 393 142 q 396 69 393 92 q 406 42 399 46 q 432 85 417 53 q 463 154 447 117 q 494 226 479 192 q 518 278 508 261 z "},"v":{"ha":488,"x_min":-11,"x_max":531,"o":"m 494 286 q 506 293 497 292 l 510 293 q 520 291 515 293 q 529 283 525 289 q 531 279 531 281 q 528 271 531 275 q 483 203 508 238 q 431 145 458 169 q 372 111 403 121 q 342 106 357 106 q 308 113 325 106 q 283 67 293 85 q 263 33 272 49 q 218 -4 246 8 q 167 -15 193 -15 q 148 -15 164 -15 q 106 1 132 -15 q 65 51 79 18 q 19 205 35 128 q -10 364 4 282 q -11 382 -11 374 q -1 415 -11 401 q 29 432 10 429 q 40 433 35 433 q 72 426 54 433 q 99 404 89 419 q 117 357 110 386 q 134 287 125 328 q 156 192 143 246 q 189 72 168 139 q 196 61 192 63 l 197 61 q 210 72 201 61 q 228 99 218 83 q 246 131 238 115 q 257 154 254 147 q 233 289 233 231 q 235 335 233 299 q 254 408 238 371 q 281 442 264 432 q 314 453 297 453 q 345 442 331 453 q 368 413 360 432 q 377 353 378 386 q 369 287 376 321 q 349 219 361 253 q 326 160 338 186 q 353 154 339 154 q 377 159 361 154 q 415 183 393 164 q 458 228 438 201 q 494 286 478 256 m 294 254 q 315 329 307 292 q 318 363 318 346 q 314 406 318 383 q 296 332 300 369 q 293 285 293 308 q 294 254 293 269 z "},"w":{"ha":708,"x_min":-3,"x_max":757,"o":"m 718 286 q 729 293 721 293 q 744 289 736 293 q 756 278 751 285 q 757 272 757 275 q 754 263 757 267 q 702 180 732 213 q 642 130 672 147 q 586 108 613 113 q 563 106 574 106 q 544 108 553 106 q 534 67 540 90 q 518 19 528 43 q 496 -26 508 -6 q 469 -57 483 -46 q 417 -75 446 -72 q 394 -76 406 -76 q 360 -72 378 -76 q 326 -58 340 -68 q 302 -28 313 -47 q 285 22 292 -8 q 272 94 278 51 q 269 121 271 107 q 267 151 268 135 q 238 83 250 111 q 204 28 226 56 q 163 -3 186 6 q 119 -11 140 -11 q 79 -5 97 -11 q 53 8 61 1 q 17 69 29 28 q 0 158 4 110 q -3 229 -3 194 q -2 270 -3 242 q 3 329 -1 299 q 26 386 8 367 q 75 401 40 401 q 92 400 82 401 q 115 392 107 399 q 127 367 124 385 q 131 316 131 349 q 131 231 131 283 q 131 199 131 221 q 134 155 132 178 q 140 112 136 132 q 150 85 144 92 q 174 113 160 89 q 201 165 188 138 q 224 217 214 193 q 236 246 233 242 q 254 303 253 278 q 256 348 256 329 q 263 376 257 367 q 297 388 269 386 l 304 388 q 344 380 326 388 q 372 344 363 372 q 383 295 378 326 q 392 227 388 264 q 400 153 396 190 q 408 85 404 115 q 417 34 413 54 q 425 13 421 14 l 426 13 q 440 23 432 13 q 458 51 449 33 q 474 89 467 68 q 483 128 481 110 q 456 189 467 151 q 438 265 444 226 q 432 338 432 303 q 439 389 432 372 q 457 412 446 404 q 481 421 468 419 l 486 421 q 506 416 496 421 q 524 401 515 411 q 549 348 540 379 q 561 282 557 317 q 563 235 563 258 q 561 199 563 224 q 554 144 560 175 l 563 144 q 610 158 585 144 q 657 193 635 171 q 695 241 679 215 q 718 286 711 267 m 499 229 q 499 256 499 239 q 497 289 499 272 q 493 321 496 306 q 488 344 490 336 q 486 321 486 336 l 486 306 q 487 285 486 297 q 490 256 488 272 q 499 229 493 240 z "},"x":{"ha":471,"x_min":-58,"x_max":519,"o":"m 476 285 q 490 296 481 293 q 499 297 494 297 q 508 295 503 297 q 518 286 514 293 q 519 281 519 283 q 515 267 519 274 q 458 162 486 214 q 403 68 431 110 q 349 -1 376 26 q 297 -29 322 -28 q 274 -29 288 -29 q 244 -22 261 -29 q 207 0 226 -15 q 165 44 188 15 q 144 72 151 61 q 131 88 136 82 q 122 99 125 94 q 113 110 118 103 q 83 56 97 82 q 58 7 69 31 q 36 -11 51 -7 q 28 -12 32 -12 q 10 -4 18 -12 q 6 8 6 1 q 15 38 6 18 q 43 94 24 57 q 63 130 56 117 q 75 151 71 143 q 78 166 79 160 q 72 181 78 172 q 50 215 69 185 q 9 281 31 246 q -32 349 -12 317 q -54 388 -51 381 q -58 401 -58 396 q -49 418 -58 410 q -19 427 -40 426 q 28 418 3 428 q 71 386 53 408 q 117 320 101 344 q 140 285 133 296 q 150 275 146 275 l 151 275 q 160 286 153 275 q 198 341 183 321 q 222 373 213 361 q 237 388 231 385 q 251 393 243 392 q 263 394 256 394 q 275 390 269 393 q 282 382 281 386 l 282 381 q 276 368 282 375 q 233 307 253 339 q 190 243 213 275 q 186 229 186 236 q 186 221 186 226 q 198 194 186 215 q 237 133 210 172 q 310 28 264 94 q 346 69 325 42 q 389 133 367 97 q 433 208 411 168 q 476 285 456 247 z "},"y":{"ha":571,"x_min":-1,"x_max":611,"o":"m 586 289 q 597 292 592 292 q 610 282 606 292 q 611 274 611 278 q 604 258 611 264 q 482 176 525 206 q 419 128 439 146 q 399 101 400 110 q 397 89 397 94 l 397 82 q 401 33 400 67 q 399 -42 401 -1 q 391 -122 397 -82 q 374 -192 385 -162 q 312 -281 351 -249 q 231 -325 272 -314 q 186 -331 207 -331 q 137 -324 167 -331 q 83 -292 107 -318 q 56 -225 58 -267 l 56 -218 q 86 -133 56 -181 q 164 -39 121 -79 q 254 43 207 1 q 262 51 260 47 q 265 64 264 56 q 265 90 265 72 q 264 139 264 107 q 260 144 264 143 q 245 115 251 135 q 227 75 239 94 q 197 41 215 56 q 147 26 178 26 l 121 26 q 107 28 114 26 q 58 49 76 33 q 28 85 39 64 q 12 135 17 107 q 6 194 7 163 q 0 294 3 239 q -1 325 -1 310 q 4 392 -1 363 q 31 422 8 415 q 58 426 44 426 q 76 425 68 426 q 117 390 111 419 q 129 296 122 360 q 133 243 131 272 q 139 185 136 214 q 147 131 142 156 q 158 96 151 107 q 183 127 168 101 q 211 183 197 153 q 236 238 225 213 q 251 271 247 264 q 263 325 263 293 q 267 384 263 357 q 288 428 271 411 q 321 439 299 439 q 350 435 333 439 q 382 407 378 428 q 389 338 386 386 q 392 255 390 283 q 394 211 393 226 q 397 188 396 196 q 399 167 397 179 q 435 190 413 174 q 483 226 457 207 q 537 263 510 244 q 586 289 564 281 m 219 -235 q 256 -126 247 -182 q 265 -11 265 -69 q 254 -15 258 -11 q 225 -44 239 -31 q 197 -72 211 -57 q 133 -171 147 -128 q 124 -221 124 -200 q 128 -251 124 -232 q 151 -281 133 -271 q 169 -286 161 -286 q 183 -282 176 -286 q 219 -235 206 -265 z "},"z":{"ha":469,"x_min":0,"x_max":507,"o":"m 483 289 l 489 289 q 504 282 499 289 q 507 275 507 279 q 496 261 507 268 q 458 240 476 250 q 422 220 440 231 q 382 199 403 210 q 336 174 361 188 l 336 164 q 331 117 336 143 q 316 63 326 92 q 292 6 306 33 q 264 -43 278 -21 q 199 -99 238 -83 q 140 -111 168 -111 q 110 -109 132 -111 q 64 -86 89 -107 q 39 -35 39 -67 q 39 -17 39 -33 q 72 43 39 0 q 185 133 104 86 q 201 148 196 140 q 207 168 207 156 q 208 190 207 181 q 210 207 210 200 q 207 216 210 213 q 194 219 204 219 q 143 229 156 221 q 132 244 132 235 q 134 255 132 247 q 150 280 136 263 q 178 319 164 297 q 201 368 192 342 q 207 401 207 383 q 206 422 207 411 q 197 440 203 438 q 193 442 196 442 q 178 436 188 442 q 110 384 139 415 q 63 314 82 353 q 55 287 56 299 q 36 272 54 275 l 29 272 q 8 276 17 272 q 0 292 0 279 l 0 299 q 13 335 3 315 q 38 378 22 356 q 74 422 53 400 q 121 460 94 443 q 178 482 146 475 q 221 488 200 488 q 249 485 231 488 q 291 467 268 482 q 322 424 314 451 q 325 400 325 413 q 316 348 325 381 q 267 260 307 315 q 304 240 286 253 q 329 208 322 226 q 399 244 360 221 q 483 289 439 267 m 169 35 q 180 59 175 47 q 189 86 185 71 q 138 46 157 69 q 109 0 118 22 q 100 -37 100 -22 q 110 -54 100 -54 l 111 -54 q 134 -35 119 -54 q 169 35 149 -15 z "},"D":{"ha":926,"x_min":0,"x_max":836,"o":"m 647 835 q 765 710 722 792 q 824 529 807 629 q 836 375 836 454 q 833 281 836 349 q 807 119 829 214 q 749 -48 785 24 q 672 -147 714 -119 q 618 -169 647 -164 q 567 -175 593 -175 q 544 -175 563 -175 q 496 -169 525 -175 q 443 -154 467 -162 q 435 -153 439 -153 q 418 -162 425 -153 q 323 -235 376 -212 q 206 -261 269 -258 l 192 -261 q 98 -242 138 -261 q 34 -189 58 -222 q 3 -117 10 -156 q 0 -85 0 -100 q 8 -37 0 -64 q 40 14 15 -10 q 106 39 65 38 q 125 35 118 39 q 133 25 132 31 l 133 22 q 129 13 133 18 q 113 8 125 8 q 82 -7 96 8 q 63 -46 68 -22 q 58 -79 58 -61 q 60 -109 58 -89 q 82 -158 63 -129 q 171 -222 118 -215 q 185 -224 178 -224 q 272 -186 231 -224 q 329 -91 313 -150 q 349 40 346 -32 q 350 89 350 64 q 345 206 350 139 q 335 350 340 272 q 331 469 331 413 q 331 526 331 485 q 346 621 331 568 q 397 704 361 674 q 489 731 431 731 l 500 731 q 537 722 525 729 q 551 706 549 714 l 551 701 q 546 688 551 694 q 526 679 540 681 q 511 681 517 679 q 501 685 506 683 q 494 685 497 686 q 485 676 490 685 q 456 589 461 642 q 453 525 453 558 q 456 453 453 500 q 467 335 458 407 q 482 190 476 263 q 485 104 485 147 q 483 28 485 76 q 460 -79 481 -21 q 458 -87 458 -83 q 464 -103 458 -96 q 483 -117 469 -111 q 515 -126 496 -124 q 540 -128 528 -128 l 553 -128 q 608 -72 579 -125 q 661 63 638 -19 q 699 247 685 146 q 708 413 708 331 q 706 491 708 432 q 681 639 704 550 q 604 783 657 728 q 476 843 547 843 q 336 803 406 843 q 210 693 267 763 q 124 544 153 624 q 101 426 101 485 q 107 358 101 407 q 178 250 113 308 q 188 246 183 246 q 199 253 194 246 q 218 294 214 276 q 224 323 222 311 q 230 341 226 335 q 249 349 233 347 l 251 349 q 278 324 278 349 l 278 317 q 250 242 271 268 q 203 213 229 217 q 192 211 197 211 q 146 225 171 211 q 99 272 121 239 q 51 425 51 342 l 51 432 q 84 586 51 510 q 178 729 117 663 q 316 835 239 796 q 479 878 393 874 l 493 878 q 647 835 571 878 z "},"":{"ha":608,"x_min":-107,"x_max":674,"o":"m 619 285 q 631 292 622 292 q 647 290 639 293 q 660 283 654 288 q 663 275 663 279 l 663 272 q 618 170 642 218 q 570 83 594 122 q 522 17 546 44 q 479 -24 499 -11 q 442 -37 467 -32 q 415 -40 429 -40 q 381 -37 401 -40 q 336 -13 360 -33 q 306 50 313 7 q 300 122 300 76 q 301 161 300 140 q 241 58 271 103 q 185 -6 211 13 q 149 -19 172 -14 q 124 -22 136 -22 q 90 -18 111 -22 q 45 6 69 -14 q 11 68 21 25 q 0 171 0 113 l 0 200 q 3 295 0 243 q 15 406 7 347 q 26 511 22 464 l -87 510 l -90 510 q -102 515 -97 510 q -107 529 -107 521 l -107 532 q -101 544 -107 538 q -76 550 -94 550 l 26 550 l 42 665 q 56 695 44 686 q 89 710 68 704 q 114 711 99 711 q 142 707 128 711 q 167 694 157 703 q 175 674 175 686 l 175 669 q 173 646 175 663 q 169 611 171 629 q 165 576 167 593 q 163 554 163 560 q 225 556 178 556 q 331 558 272 557 l 338 619 q 363 654 340 643 q 410 665 385 665 q 453 656 433 665 q 471 626 471 646 l 471 624 l 464 561 q 514 563 483 561 q 574 565 544 564 q 627 568 604 567 q 654 569 650 569 q 667 565 663 569 q 673 555 672 561 q 668 542 674 549 q 650 535 663 536 q 627 533 649 535 q 576 530 606 532 q 514 526 546 528 q 460 525 482 525 q 448 397 454 463 q 439 267 442 331 q 436 192 436 228 q 438 125 436 167 q 451 32 440 83 q 494 69 472 43 q 539 131 517 96 q 581 205 561 165 q 619 285 601 244 m 154 38 q 187 71 168 47 q 226 127 206 94 q 267 197 246 160 q 307 268 288 233 q 315 393 311 335 q 326 519 319 451 q 219 517 267 517 l 161 517 q 145 384 154 454 q 132 247 136 314 q 131 183 131 214 q 133 111 131 153 q 154 38 135 69 z "},"":{"ha":228,"x_min":0,"x_max":158,"o":"m 146 735 q 152 693 149 718 q 157 640 156 668 l 158 611 q 157 576 158 597 q 147 531 156 554 q 117 511 140 511 l 110 511 q 74 518 90 511 q 60 533 65 522 q 50 558 54 544 q 44 585 46 571 q 43 608 43 599 q 46 669 44 649 q 47 688 47 681 q 46 701 47 694 q 41 708 44 707 q 29 710 38 708 q 4 718 14 713 q 0 725 0 721 q 4 735 0 729 q 26 758 15 747 q 47 781 36 769 q 68 789 53 786 q 79 790 74 790 q 101 787 89 790 q 128 771 114 783 q 146 735 142 758 z "},"":{"ha":311,"x_min":0,"x_max":240,"o":"m 194 561 q 211 563 204 563 q 231 558 222 563 q 240 547 240 554 q 229 533 240 539 q 201 528 219 528 l 193 528 q 138 533 158 531 q 107 535 118 535 q 89 535 96 536 q 75 533 82 535 q 54 532 68 532 q 26 536 39 532 q 8 550 14 540 q 7 558 7 554 q 13 578 7 567 q 30 607 21 593 q 47 635 39 621 q 63 668 56 650 q 74 710 69 686 q 76 718 75 714 q 72 728 76 722 q 61 718 63 724 q 60 706 60 713 q 57 695 60 700 q 43 689 54 690 l 38 689 q 6 706 17 689 q 0 721 0 713 q 11 746 0 733 q 51 775 26 765 q 88 782 69 782 q 109 780 94 782 q 144 765 124 778 q 172 726 164 751 q 176 696 176 713 q 171 656 176 682 q 133 582 165 629 q 128 572 128 575 q 128 569 128 571 q 140 565 129 568 q 168 561 154 563 q 181 560 175 560 q 194 561 188 560 z "},"":{"ha":288,"x_min":0,"x_max":218,"o":"m 215 636 q 218 617 218 626 q 207 579 218 600 q 168 547 196 558 q 94 532 126 532 q 72 532 92 532 q 31 540 53 532 q 7 558 10 547 q 6 563 6 560 q 22 574 6 571 q 35 575 29 575 q 56 571 46 575 q 68 568 61 568 q 81 569 72 568 q 102 578 90 571 q 123 594 114 585 q 135 613 132 604 q 138 628 138 619 q 135 644 138 633 q 111 658 133 656 q 65 674 71 664 q 63 682 63 678 q 67 697 63 689 q 81 718 72 706 q 85 728 85 724 q 79 740 85 735 q 71 743 74 743 l 68 743 q 60 738 65 742 q 38 731 51 731 q 26 731 36 731 q 7 742 15 732 q 0 754 0 749 q 8 768 0 760 q 39 782 15 776 q 64 785 51 785 q 101 781 78 785 q 151 761 124 778 q 179 733 174 747 q 181 722 181 728 q 175 694 181 710 q 174 689 174 692 q 176 682 174 685 q 187 675 179 679 q 202 663 194 671 q 215 636 210 654 z "},"%":{"ha":643,"x_min":69,"x_max":575,"o":"m 447 481 q 475 453 475 478 q 449 351 475 428 q 410 228 425 279 q 385 140 394 178 q 368 76 375 103 q 354 25 361 49 q 339 7 350 14 q 314 -3 328 0 q 292 -6 304 -6 q 279 -5 289 -6 q 257 1 269 -4 q 238 17 242 8 q 235 29 235 21 q 236 40 235 33 q 278 204 254 124 q 336 363 303 285 q 363 419 353 401 q 372 444 372 438 q 363 450 372 450 l 331 450 l 311 451 l 292 450 l 283 450 q 251 454 268 450 q 254 447 253 447 q 271 406 271 428 q 269 386 271 401 q 244 347 268 371 q 200 322 226 331 q 160 317 179 317 q 136 318 153 317 q 99 333 119 319 q 72 372 78 346 q 69 393 69 383 q 75 426 69 407 q 97 465 81 446 q 136 496 113 485 q 168 501 151 501 q 189 500 178 501 q 203 494 200 497 q 207 490 206 492 q 214 485 208 488 q 236 479 219 482 q 285 476 260 476 l 318 476 q 365 474 342 476 q 383 472 376 472 q 393 473 388 472 q 406 476 399 474 q 421 481 413 479 q 432 482 425 482 q 447 481 439 482 m 178 389 q 184 407 185 399 q 181 424 183 415 q 174 404 174 415 q 178 389 174 397 m 481 193 q 492 194 486 194 q 520 188 503 194 q 553 160 538 181 q 574 107 568 139 q 575 94 575 101 q 560 33 575 67 q 525 -14 546 0 q 467 -28 504 -28 l 461 -28 q 413 -15 432 -28 q 386 21 393 -1 q 381 51 381 35 q 383 77 381 60 q 397 119 385 94 q 431 165 410 144 q 481 193 453 185 m 493 47 q 511 104 511 79 q 504 131 511 119 q 494 92 497 111 q 492 65 492 79 q 493 47 492 57 z "},"$":{"ha":501,"x_min":71,"x_max":431,"o":"m 364 219 q 410 165 393 194 q 431 107 428 136 l 431 101 q 417 51 431 75 q 368 13 403 28 q 308 -5 329 -4 q 277 -6 288 -6 q 265 -12 267 -6 q 261 -49 263 -19 q 260 -57 261 -53 q 256 -64 260 -61 q 239 -71 249 -69 l 232 -71 q 218 -69 226 -71 q 203 -60 210 -67 q 196 -43 196 -54 q 197 -14 196 -24 q 197 1 197 -4 q 192 8 196 7 q 181 13 189 10 q 135 25 157 19 q 104 44 113 31 q 100 54 100 50 q 103 60 100 57 q 117 64 107 63 l 122 64 q 138 62 129 64 q 154 56 147 60 q 169 49 161 50 q 185 46 176 47 l 192 46 q 199 48 197 46 q 203 61 201 50 q 205 114 204 92 q 206 154 206 136 q 208 187 207 172 q 210 217 208 201 q 208 230 210 225 q 199 240 207 235 q 175 255 190 246 q 133 281 160 264 q 81 331 94 304 q 71 365 71 349 q 75 390 71 374 q 103 428 79 406 q 165 465 128 450 q 193 475 182 472 q 211 480 204 478 q 221 485 218 482 q 224 496 224 488 q 226 542 224 525 q 231 568 228 560 q 240 579 233 576 q 247 581 243 581 q 254 579 250 581 q 276 573 269 578 q 284 558 282 568 q 285 535 286 549 q 285 501 285 521 q 287 487 285 489 q 301 482 289 485 q 375 431 349 474 q 384 404 385 415 q 376 388 383 393 q 357 382 368 382 l 353 382 q 335 386 343 382 q 327 395 328 389 q 325 408 326 401 q 317 425 324 417 q 304 439 311 433 q 291 445 297 444 q 283 436 285 446 q 279 362 279 394 q 276 297 279 329 l 276 292 q 279 280 276 285 q 292 269 282 275 q 319 252 301 263 q 364 219 336 242 m 215 332 q 216 370 215 351 q 218 410 217 389 q 189 378 193 396 q 188 363 188 369 q 192 342 188 353 q 206 325 196 331 q 210 324 208 324 q 215 332 214 324 m 265 57 q 272 44 265 44 q 282 47 275 44 q 297 69 289 50 q 304 111 304 86 q 303 133 304 115 q 272 183 301 150 q 269 160 271 179 q 267 120 268 142 q 266 80 267 99 q 265 57 265 61 z "},"":{"ha":486,"x_min":71,"x_max":417,"o":"m 399 174 q 415 167 410 172 q 417 164 417 165 q 408 150 417 158 q 349 96 369 114 q 317 68 328 78 q 306 53 307 58 q 304 42 304 49 l 306 31 q 303 17 306 25 q 301 -3 301 8 q 294 -18 301 -11 q 274 -24 289 -24 l 268 -24 q 244 -17 250 -24 q 239 0 239 -10 q 242 19 239 10 l 242 25 q 240 32 242 29 q 235 36 238 36 q 231 35 232 36 q 221 33 226 33 l 217 33 q 197 36 213 35 q 160 44 181 38 q 118 67 139 51 q 85 108 97 82 q 71 176 72 135 l 71 182 q 89 279 71 222 q 144 385 108 342 q 242 438 179 428 q 258 456 258 439 q 261 471 260 463 q 263 488 263 479 q 271 507 264 499 q 288 513 276 513 l 297 511 q 319 499 317 510 q 321 482 321 492 q 319 469 321 478 q 318 446 318 460 q 331 426 318 432 q 382 392 361 413 q 399 344 399 372 l 399 336 q 376 314 399 314 l 371 314 q 354 319 358 314 q 348 333 350 324 q 342 354 346 342 q 325 379 339 367 q 319 383 322 383 q 316 383 318 383 q 314 375 314 382 q 312 295 313 339 q 310 213 311 251 q 307 122 308 167 q 338 143 326 133 q 357 160 349 153 q 375 172 365 168 q 389 174 381 174 l 399 174 m 249 256 q 251 306 251 281 q 249 357 251 331 q 224 305 238 342 q 204 225 210 268 q 200 178 200 201 q 203 131 200 160 q 232 83 207 103 q 238 81 235 81 q 242 85 240 81 q 244 111 243 90 q 245 167 244 132 q 249 256 246 203 z "},"":{"ha":599,"x_min":71,"x_max":529,"o":"m 519 583 q 529 571 529 578 l 529 567 q 513 539 528 561 q 435 431 465 472 q 388 365 406 390 q 363 325 369 339 q 354 301 356 311 l 354 294 q 356 280 354 289 q 361 251 358 271 q 365 243 361 244 l 369 243 q 375 243 371 243 q 387 244 379 243 q 403 240 394 244 q 412 232 411 238 q 404 222 413 226 q 388 215 396 217 q 374 212 379 214 q 367 206 369 210 q 365 197 365 203 l 365 192 q 370 181 365 183 q 383 178 375 178 q 399 178 390 178 q 415 176 407 179 q 424 174 419 175 q 429 167 428 172 q 426 158 429 160 q 418 154 422 157 q 392 147 401 147 l 386 147 q 376 149 381 149 q 371 147 374 149 q 368 133 368 144 q 368 120 368 131 q 369 63 368 110 q 352 22 369 36 q 313 8 335 8 l 308 8 q 269 19 289 8 q 246 56 250 31 q 242 81 243 68 q 240 104 240 93 l 240 126 q 235 138 239 135 q 226 140 232 140 q 215 141 221 140 q 201 146 208 142 q 194 154 194 150 q 200 163 194 157 q 226 171 206 169 q 236 177 235 172 q 238 189 238 182 q 235 201 238 196 q 228 204 233 204 l 224 204 q 203 204 217 204 q 182 206 189 204 q 169 215 172 208 l 169 217 q 179 226 169 222 q 199 232 189 232 l 225 232 q 236 243 236 233 q 239 290 236 253 q 222 321 239 294 q 184 379 206 347 q 141 441 163 411 q 110 482 119 471 q 71 543 74 528 l 71 547 q 86 564 71 558 q 114 569 100 569 q 149 560 128 569 q 186 532 169 551 q 249 462 228 486 q 280 424 269 438 q 295 401 290 410 q 308 379 300 392 q 321 368 317 368 q 332 378 325 368 q 410 481 382 438 q 456 549 438 524 q 488 583 474 575 q 501 588 494 588 q 519 583 510 588 z "},"":{"ha":576,"x_min":71,"x_max":506,"o":"m 497 42 q 506 33 504 39 l 506 32 q 497 22 506 26 q 479 18 488 18 q 456 22 469 18 q 423 33 443 26 q 372 51 403 40 q 315 70 335 64 q 288 78 296 76 l 283 78 q 277 75 279 78 q 271 65 275 72 q 193 -3 240 13 q 147 -10 169 -10 q 106 -3 126 -10 q 78 19 86 4 q 71 42 71 31 q 73 58 71 47 q 92 85 75 69 q 142 110 110 101 q 163 119 160 115 q 168 140 165 122 q 172 204 172 172 q 171 235 172 211 q 167 299 169 258 q 159 316 165 313 q 142 319 153 319 q 119 319 132 319 l 114 319 q 90 324 103 319 q 79 336 79 328 q 90 346 79 343 q 106 348 100 349 q 116 347 111 347 q 128 346 121 346 q 144 349 133 346 q 156 352 153 350 q 160 363 160 354 q 158 388 160 371 q 153 440 156 406 q 151 492 151 464 l 151 510 q 153 551 151 529 q 165 597 156 574 q 193 635 174 619 q 238 660 214 651 q 263 664 250 664 q 288 660 275 664 q 317 643 307 656 q 329 614 326 631 l 329 604 q 325 574 329 592 q 311 540 321 557 q 293 523 303 525 q 276 521 283 521 q 264 519 268 521 q 260 514 260 518 q 261 507 260 511 q 275 419 271 449 q 283 376 279 389 q 290 363 286 364 q 300 363 293 363 q 331 365 315 364 q 363 372 347 365 q 383 376 372 376 q 400 373 393 376 q 410 364 407 369 l 410 363 q 403 350 410 356 q 393 344 399 346 q 377 340 388 342 q 350 337 367 339 q 306 331 333 335 q 293 328 294 329 q 292 321 292 326 q 292 310 292 318 q 295 278 292 301 q 299 213 299 256 q 296 155 299 175 q 292 125 293 135 q 290 117 290 119 q 292 110 290 113 q 304 106 293 108 q 340 96 324 101 q 378 83 357 90 q 427 66 399 76 q 497 42 456 56 m 267 626 q 256 592 256 608 q 256 578 256 589 q 257 547 257 567 q 275 588 272 567 l 275 596 q 267 626 275 613 z "},"":{"ha":506,"x_min":69,"x_max":436,"o":"m 378 171 q 399 183 386 181 q 413 185 406 185 q 423 183 417 185 q 435 176 429 182 q 436 171 436 174 q 433 163 436 167 q 392 111 418 142 q 346 53 367 81 q 306 24 331 32 q 265 17 286 17 q 244 18 260 17 q 204 34 228 19 q 169 76 181 49 q 148 144 153 118 q 142 184 143 169 q 138 203 142 199 q 121 208 135 208 q 97 210 110 208 q 85 224 85 213 q 96 237 85 233 q 126 243 107 240 q 135 245 132 243 q 139 253 138 247 q 142 272 140 260 q 144 306 143 283 q 141 319 144 315 q 131 322 138 322 q 113 322 124 322 q 88 326 101 322 q 75 330 81 328 q 69 340 69 332 q 76 351 69 347 q 92 356 83 354 q 111 357 101 357 q 126 357 121 357 q 149 360 146 357 q 156 381 153 363 q 173 442 163 413 q 199 499 183 471 q 257 553 221 538 q 311 565 285 565 q 338 562 318 565 q 382 535 358 558 q 406 476 406 513 q 383 450 406 451 q 372 449 378 449 q 361 452 365 449 q 354 463 357 456 q 348 481 351 471 q 336 500 344 490 q 326 506 331 506 q 318 499 322 506 q 296 442 306 476 q 281 379 286 407 q 279 372 279 375 q 282 365 279 367 q 289 364 283 364 l 296 364 l 306 365 q 317 364 311 365 q 332 360 324 363 q 346 350 343 357 l 346 349 q 333 336 346 342 q 307 329 318 331 q 288 327 296 328 q 275 323 279 326 q 271 310 271 319 q 269 282 271 293 q 268 268 268 274 q 268 260 268 265 q 272 254 268 256 q 281 253 275 253 l 288 253 q 301 255 293 254 q 319 255 310 256 q 335 251 328 254 q 344 243 342 249 l 344 240 q 322 225 344 231 q 294 219 304 221 q 277 215 283 217 q 269 211 271 214 q 267 200 267 208 q 285 71 267 135 q 320 103 303 82 q 378 171 338 125 z "},"&":{"ha":567,"x_min":71,"x_max":496,"o":"m 457 356 q 465 357 461 357 q 483 353 474 357 q 496 335 496 349 l 496 329 q 475 286 493 301 q 436 260 457 271 q 425 251 428 254 q 424 247 424 250 q 429 224 424 240 q 435 182 435 203 q 431 149 435 171 q 415 102 428 128 q 387 56 403 76 q 357 26 371 36 q 289 -4 326 3 q 251 -7 269 -7 q 204 -2 232 -7 q 144 22 176 3 q 92 68 111 40 q 71 133 72 96 l 71 140 q 93 213 71 174 q 119 249 107 238 q 138 265 131 260 q 146 274 144 269 l 146 275 q 142 286 146 278 q 108 397 110 343 l 108 406 q 139 511 108 454 q 214 588 169 567 q 274 601 246 601 q 306 597 283 601 q 350 561 329 592 q 363 515 363 542 q 358 482 363 500 q 338 435 351 456 q 307 394 325 414 q 271 379 292 379 q 251 382 261 379 q 238 393 239 385 l 238 396 q 241 401 238 400 q 249 404 244 403 q 274 428 263 411 q 292 467 286 446 q 299 509 299 488 q 293 546 300 531 q 285 554 290 551 q 247 510 265 538 q 219 449 229 483 q 213 392 213 422 q 213 357 213 382 q 236 286 214 332 q 244 274 239 279 q 254 265 250 269 q 258 256 258 261 q 250 242 258 250 q 223 206 236 226 q 203 161 210 185 q 196 113 196 138 q 207 63 196 86 q 233 36 217 42 q 253 32 243 32 q 274 35 261 32 q 306 53 288 39 q 340 85 325 67 q 376 151 364 117 q 383 189 383 169 q 378 224 383 206 q 374 232 375 231 l 371 232 q 364 231 368 232 q 344 214 349 224 q 336 195 339 204 q 328 181 333 186 q 313 176 324 176 l 307 176 q 279 206 279 181 q 299 253 279 238 q 349 281 319 269 q 406 301 376 290 q 446 344 436 311 q 457 356 447 353 z "},"*":{"ha":450,"x_min":71,"x_max":381,"o":"m 364 650 q 375 647 369 649 q 381 638 381 644 q 374 628 379 631 q 364 625 369 626 l 351 625 q 334 625 346 625 q 313 624 322 625 q 299 622 306 624 q 285 619 293 621 q 294 606 286 618 q 313 578 303 593 q 333 551 324 564 q 342 536 342 538 q 344 525 344 531 q 337 513 344 519 q 314 506 329 506 l 308 506 q 277 511 294 506 q 250 532 260 517 l 236 553 q 233 554 235 554 q 225 547 231 554 q 215 532 222 543 q 196 512 207 521 q 168 499 185 503 q 158 497 163 497 q 131 504 146 497 q 118 517 119 508 q 117 525 117 521 q 118 535 117 529 q 125 552 119 542 q 136 572 131 563 q 149 593 143 583 q 161 614 154 603 q 148 616 158 615 q 125 617 138 617 q 101 617 113 617 q 85 618 89 618 q 71 626 74 618 l 71 629 q 83 640 71 636 q 99 643 92 643 l 114 643 q 138 645 125 643 q 165 647 150 647 q 174 649 174 647 q 172 658 175 651 q 160 678 168 665 q 143 710 153 690 q 140 722 140 717 q 158 739 140 736 q 168 740 164 740 q 204 722 189 740 q 219 708 214 711 q 224 707 222 707 q 230 709 226 707 q 242 722 233 711 q 267 753 250 733 q 285 764 274 760 q 297 765 292 765 q 308 765 301 765 q 319 758 314 764 q 322 750 322 756 q 319 740 322 746 q 298 688 307 706 q 286 661 289 669 l 285 657 q 289 652 285 653 q 307 651 293 651 q 342 652 325 651 q 364 650 358 653 z "},"@":{"ha":793,"x_min":71,"x_max":724,"o":"m 561 664 q 661 571 625 624 q 713 460 697 518 q 724 369 724 415 q 720 321 724 357 q 699 235 717 285 q 644 156 679 178 q 572 136 617 136 q 551 138 563 136 q 497 154 522 140 q 460 196 471 168 q 453 206 456 203 q 444 196 449 203 q 431 181 439 189 q 413 165 424 172 q 385 154 401 157 q 347 151 365 151 q 308 158 328 151 q 258 211 269 171 q 251 257 251 233 l 251 265 q 261 339 253 299 q 283 418 269 379 q 315 488 296 457 q 358 535 333 519 q 393 550 374 544 q 424 554 408 554 q 440 553 428 554 q 469 542 451 551 q 499 513 486 532 q 512 499 506 501 q 525 496 518 496 q 542 497 532 496 q 568 492 553 497 q 593 467 588 485 q 594 449 594 460 q 589 389 594 426 q 583 352 586 374 q 581 307 581 331 l 581 282 q 581 253 581 271 q 586 217 581 235 q 592 208 588 208 q 599 210 594 208 q 610 223 603 213 q 623 246 617 233 q 632 267 629 258 q 653 385 653 326 q 639 482 653 419 q 550 607 625 544 q 507 638 529 624 q 462 660 485 651 q 415 668 439 668 q 369 656 392 668 q 300 608 333 636 q 203 479 235 551 q 165 322 172 407 q 164 276 164 299 q 175 168 164 221 q 235 47 192 100 q 272 14 251 28 q 333 -8 301 -8 q 371 -1 351 -8 q 460 61 425 19 q 484 70 467 69 q 510 63 501 71 q 514 51 514 57 q 504 35 514 43 q 467 8 485 21 q 428 -15 449 -6 q 360 -36 394 -31 q 324 -39 342 -39 q 288 -36 306 -39 q 210 -7 244 -29 q 149 47 176 15 q 86 176 107 99 q 71 290 71 231 q 76 368 71 314 q 124 504 82 422 q 249 646 165 586 q 413 707 332 704 l 417 707 q 561 664 494 707 m 465 438 q 468 453 468 446 q 465 467 468 460 q 447 485 461 475 q 442 488 444 488 q 436 482 438 488 q 408 406 421 450 q 388 314 394 363 q 383 281 385 297 q 382 264 382 272 q 383 246 382 256 q 397 259 388 246 q 415 288 406 272 q 431 319 424 304 q 440 338 439 333 q 449 355 446 347 q 453 372 451 363 q 458 396 456 381 q 465 438 460 411 z "},"#":{"ha":621,"x_min":69,"x_max":551,"o":"m 540 454 q 551 442 551 449 q 539 431 550 435 q 515 425 525 425 q 499 425 506 425 q 489 422 493 425 q 482 407 485 419 q 475 371 478 383 q 474 358 474 363 q 474 352 474 356 q 477 347 474 349 q 488 346 481 346 l 497 346 q 509 346 501 346 q 529 339 517 346 q 538 328 538 333 q 532 318 538 325 q 499 307 526 311 q 469 302 476 304 q 458 286 461 300 q 444 213 450 240 q 432 169 439 185 q 414 147 425 153 q 383 140 403 142 l 371 140 q 353 141 364 140 q 332 146 343 142 q 315 160 321 150 q 310 175 310 165 q 311 183 310 179 q 324 242 317 221 q 333 275 331 264 q 335 283 335 281 q 332 287 335 286 q 315 288 329 288 q 289 283 296 286 q 278 269 282 279 q 272 240 275 258 q 258 188 269 221 q 235 160 251 168 q 203 151 219 151 l 194 151 q 167 155 181 151 q 150 163 154 158 q 140 185 140 172 q 141 197 140 188 q 150 249 142 207 q 154 272 154 265 q 151 276 154 275 q 125 278 149 278 q 112 278 118 278 q 99 283 106 279 q 93 293 93 288 q 94 299 93 294 q 115 306 96 303 q 155 310 146 308 q 167 322 164 311 q 180 368 175 351 q 185 393 185 385 q 184 403 186 401 q 175 404 182 404 q 131 401 147 403 q 104 400 114 400 q 89 401 94 400 q 79 403 83 401 q 69 413 69 407 l 69 417 q 79 424 71 421 q 100 426 85 425 q 133 430 115 428 q 165 433 150 432 q 185 435 181 435 q 202 451 196 436 q 215 488 208 465 q 231 540 221 511 q 257 597 240 568 q 290 619 268 614 q 303 621 297 621 q 329 614 318 621 q 338 604 335 610 q 340 589 340 599 q 338 560 340 578 q 331 514 335 543 l 322 464 l 319 456 l 319 453 q 321 449 319 450 l 368 449 q 384 461 378 449 q 399 507 390 474 q 435 607 407 540 q 464 631 443 628 l 471 631 q 497 625 486 631 q 507 601 507 618 q 506 570 507 589 q 502 533 504 551 q 497 499 500 514 q 494 478 494 483 q 493 469 493 472 q 496 462 493 464 q 506 460 499 460 q 522 460 513 460 q 540 454 531 460 m 368 406 l 368 410 q 358 416 368 417 q 319 413 349 415 q 313 410 315 413 q 308 401 311 408 q 302 379 306 394 q 293 336 299 364 q 299 329 293 329 q 317 330 304 329 q 338 333 331 331 q 346 336 343 335 q 351 344 349 338 q 358 366 354 351 q 368 406 361 381 z "},"|":{"ha":251,"x_min":71,"x_max":181,"o":"m 169 676 q 176 596 174 649 q 180 489 179 543 q 181 390 181 435 q 181 335 181 346 q 176 150 176 225 q 176 83 176 132 q 173 -10 176 33 q 158 -64 169 -53 q 132 -74 150 -74 q 119 -72 126 -74 q 95 -65 103 -71 q 84 -30 88 -58 q 79 59 81 -1 q 74 229 78 119 q 73 259 74 235 q 72 317 72 283 q 72 390 72 351 q 71 465 71 429 q 71 531 71 501 q 71 574 71 560 q 74 640 72 614 q 78 682 75 667 q 90 704 82 697 q 111 713 97 711 l 126 713 q 158 704 150 713 q 169 676 167 696 z "},",":{"ha":254,"x_min":69,"x_max":185,"o":"m 165 58 q 185 1 182 26 l 185 -6 q 176 -45 185 -28 q 151 -74 168 -62 q 114 -87 133 -85 l 110 -87 q 97 -72 97 -87 l 97 -65 q 92 -38 97 -53 q 82 -8 88 -24 q 69 33 69 19 q 72 46 69 38 q 86 69 75 54 q 103 80 92 76 q 126 83 114 83 q 149 76 138 82 q 165 58 160 71 z "},":":{"ha":281,"x_min":71,"x_max":211,"o":"m 96 275 q 75 293 81 281 q 71 314 71 303 q 72 324 71 317 q 81 344 72 332 q 101 364 89 357 q 138 371 119 371 q 170 365 156 371 q 194 352 185 360 q 204 336 203 344 q 206 325 206 331 q 183 282 206 300 q 144 268 168 271 l 133 268 q 96 275 114 268 m 193 89 q 211 60 211 74 q 210 47 211 57 q 192 25 208 38 q 150 10 175 13 l 142 10 q 100 22 121 10 q 81 41 88 29 q 75 65 75 53 q 82 88 75 78 q 104 104 89 99 q 136 110 121 110 q 193 89 167 110 z "},";":{"ha":275,"x_min":69,"x_max":206,"o":"m 96 275 q 75 293 81 281 q 71 314 71 303 q 72 324 71 317 q 81 344 72 332 q 101 364 89 357 q 138 371 119 371 q 170 365 156 371 q 194 352 185 360 q 204 336 203 344 q 206 325 206 331 q 183 282 206 300 q 144 268 168 271 l 133 268 q 96 275 114 268 m 165 58 q 185 1 182 26 l 185 -6 q 176 -45 185 -28 q 151 -74 168 -62 q 114 -87 133 -85 l 110 -87 q 97 -72 97 -87 l 97 -65 q 92 -38 97 -53 q 82 -8 88 -24 q 69 33 69 19 q 72 46 69 38 q 86 69 75 54 q 103 80 92 76 q 126 83 114 83 q 149 76 138 82 q 165 58 160 71 z "},"-":{"ha":496,"x_min":69,"x_max":428,"o":"m 404 236 q 428 215 428 228 q 423 202 428 213 q 394 188 418 192 q 309 179 346 182 q 243 176 272 176 q 188 177 213 176 q 139 178 163 178 l 132 178 q 106 182 119 178 q 81 193 92 186 q 69 210 71 200 l 69 211 q 81 225 69 219 q 113 233 88 229 q 172 238 138 236 q 244 241 206 240 q 315 242 282 242 q 373 240 349 242 q 404 236 397 239 z "},"<":{"ha":464,"x_min":71,"x_max":394,"o":"m 236 174 q 319 119 286 140 q 370 85 353 99 q 390 63 388 71 l 390 60 q 382 46 390 53 q 365 38 374 39 q 346 36 356 38 q 324 39 335 38 q 303 47 313 40 q 253 75 285 57 q 189 113 222 93 q 126 151 156 132 q 82 182 96 169 q 71 201 71 192 q 92 233 71 211 q 157 297 113 256 q 278 411 201 338 q 338 442 308 439 l 346 442 q 379 436 368 442 q 394 417 394 428 l 394 410 q 372 376 393 401 q 312 310 351 350 q 214 210 272 269 q 207 200 207 204 q 209 195 207 199 q 236 174 211 192 z "},">":{"ha":464,"x_min":69,"x_max":393,"o":"m 228 311 q 144 365 178 344 q 94 400 111 386 q 74 422 76 414 l 74 425 q 82 439 74 432 q 99 447 90 446 q 118 449 108 447 q 140 446 129 447 q 161 438 151 444 q 210 409 179 426 q 275 372 242 392 q 338 334 308 353 q 382 303 367 315 q 393 283 393 292 q 372 251 393 274 q 307 188 351 229 q 186 74 263 147 q 128 44 156 46 q 113 43 119 43 q 85 49 94 43 q 69 68 69 57 q 70 76 69 69 q 92 109 71 83 q 152 174 113 135 q 250 275 192 214 q 257 286 257 282 q 255 290 257 288 q 228 311 253 293 z "},"/":{"ha":404,"x_min":71,"x_max":335,"o":"m 324 494 q 334 474 335 488 q 331 449 333 461 q 316 392 326 426 q 292 317 306 357 q 264 235 279 276 q 235 156 249 193 q 211 90 222 118 q 196 50 200 63 q 156 6 182 14 q 131 1 143 1 q 94 8 114 1 q 71 36 71 17 q 89 104 71 54 q 138 238 115 181 q 181 339 161 294 q 220 417 201 383 q 256 481 239 451 q 288 500 265 496 q 297 501 293 501 q 324 494 313 501 z "},"?":{"ha":429,"x_min":71,"x_max":358,"o":"m 203 596 q 243 601 221 601 q 265 601 249 601 q 305 588 281 600 q 344 554 329 576 q 358 503 358 533 l 358 497 q 355 463 358 479 q 345 425 351 446 q 330 376 339 404 q 308 308 321 347 q 286 216 292 254 q 274 153 281 178 q 253 118 268 129 q 203 107 239 107 q 149 161 149 108 l 149 164 q 166 268 153 217 q 199 368 179 319 q 217 414 207 389 q 237 463 228 439 q 253 509 246 488 q 260 543 260 531 q 251 567 260 560 q 235 571 244 571 q 226 569 233 571 q 204 560 218 568 q 178 539 190 551 q 151 506 164 525 q 131 466 138 486 q 124 429 124 446 q 136 403 124 411 q 140 394 140 400 q 140 388 140 393 q 132 379 139 383 q 113 374 124 374 q 94 376 107 374 q 76 394 82 379 q 71 429 71 410 q 74 458 71 439 q 92 507 76 478 q 136 560 108 536 q 203 596 164 583 m 268 68 q 293 38 290 58 l 293 29 q 282 -6 293 11 q 246 -33 271 -24 q 219 -39 233 -39 q 183 -32 203 -39 q 157 -13 167 -26 q 147 17 147 0 l 147 22 q 153 49 147 35 q 176 72 160 63 q 217 85 199 85 q 237 81 224 85 q 268 68 250 76 z "},".":{"ha":288,"x_min":71,"x_max":217,"o":"m 192 93 q 217 63 214 83 l 217 54 q 206 19 217 36 q 169 -8 194 1 q 143 -14 157 -14 q 107 -7 126 -14 q 81 12 90 -1 q 71 42 71 25 l 71 47 q 77 74 71 60 q 100 97 83 88 q 140 110 122 110 q 160 106 147 110 q 192 93 174 101 z "},"!":{"ha":290,"x_min":71,"x_max":219,"o":"m 161 131 q 135 128 149 128 l 128 128 q 105 131 117 128 q 83 142 93 133 q 74 164 74 150 q 74 247 74 197 q 78 350 75 296 q 86 458 82 404 q 97 553 90 511 q 115 606 104 596 q 144 617 126 615 l 153 617 q 174 613 164 617 q 190 597 183 610 q 199 563 196 585 q 201 504 201 540 l 201 404 l 200 404 q 199 252 200 306 q 193 173 197 199 q 181 141 189 147 q 161 131 174 135 m 104 78 q 154 89 133 89 q 187 82 168 89 q 215 56 206 75 q 219 35 219 46 q 213 7 219 24 q 181 -19 207 -10 q 147 -26 163 -26 q 114 -19 133 -26 q 82 8 94 -11 q 71 38 71 22 q 73 56 71 43 q 104 78 75 68 z "},"(":{"ha":340,"x_min":71,"x_max":271,"o":"m 236 518 q 269 504 265 514 q 271 499 271 501 q 261 475 271 490 q 233 415 249 457 q 206 314 217 372 q 196 201 196 263 q 196 155 196 194 q 217 42 196 115 q 223 7 222 22 q 204 -15 224 -8 q 172 -21 189 -21 q 141 -17 161 -21 q 108 15 121 -12 q 72 156 76 83 q 71 203 71 179 q 79 302 71 249 q 109 406 88 356 q 153 479 131 456 q 197 511 172 501 q 232 518 218 518 l 236 518 z "},")":{"ha":340,"x_min":69,"x_max":269,"o":"m 104 -25 q 71 -11 75 -21 q 69 -6 69 -8 q 79 18 69 4 q 108 78 92 36 q 135 179 124 121 q 145 308 146 238 q 124 451 144 378 q 118 486 118 471 l 118 488 q 136 508 118 501 q 169 514 151 514 q 200 510 181 514 q 232 478 219 506 q 268 338 263 408 q 269 286 269 311 q 261 190 269 242 q 231 88 253 138 q 188 14 210 38 q 144 -17 168 -8 q 108 -25 122 -25 l 104 -25 z "},"[":{"ha":376,"x_min":71,"x_max":306,"o":"m 306 21 l 306 18 q 283 0 306 6 q 236 -4 263 -4 q 208 -4 229 -4 q 155 0 188 -4 q 113 8 122 4 q 85 33 90 17 q 76 86 79 50 q 72 172 74 124 q 71 238 71 204 q 71 288 71 254 q 75 369 71 321 q 88 453 79 417 q 111 501 96 489 q 149 510 124 510 l 163 510 q 201 506 182 507 q 240 503 221 506 q 253 499 247 500 q 258 490 258 497 q 253 481 258 485 q 241 476 249 478 q 226 475 233 475 q 213 475 218 475 l 189 475 q 183 460 183 474 q 183 444 183 457 q 188 381 183 432 q 196 229 192 331 q 199 146 197 178 q 200 95 200 114 q 199 67 200 76 q 197 49 199 57 q 196 40 196 44 q 199 33 196 36 q 218 29 201 29 q 244 29 235 29 q 264 32 254 29 q 279 33 271 33 q 294 33 283 33 q 306 21 304 32 z "},"]":{"ha":376,"x_min":71,"x_max":307,"o":"m 71 472 l 71 475 q 95 493 71 488 q 154 498 119 499 q 222 493 189 497 q 264 485 254 489 q 292 460 286 476 q 300 407 297 443 q 305 322 303 369 q 306 223 307 274 q 301 124 306 172 q 289 40 297 76 q 265 -7 281 4 q 226 -17 253 -17 l 214 -17 q 175 -13 194 -14 q 136 -10 156 -12 q 124 -6 129 -7 q 118 3 118 -4 q 123 12 118 8 q 135 17 128 15 q 151 18 143 18 q 164 18 158 18 q 188 19 182 18 q 194 40 194 19 q 189 112 193 61 q 181 264 185 163 q 177 347 178 315 q 176 399 176 379 q 177 426 176 417 q 179 444 178 436 q 181 454 181 450 q 178 461 181 458 q 158 464 175 464 q 132 464 142 464 q 113 461 122 464 q 97 460 106 460 q 83 460 93 460 q 71 472 72 461 z "},"{":{"ha":371,"x_min":71,"x_max":300,"o":"m 265 -25 q 299 -33 292 -25 q 300 -40 300 -36 q 290 -53 300 -46 q 253 -61 281 -60 l 244 -61 q 182 -47 218 -61 q 147 -26 160 -39 q 128 5 135 -12 q 120 44 122 22 q 118 89 118 65 q 115 158 117 133 q 110 194 114 182 q 103 210 107 207 q 92 215 99 213 q 71 235 71 221 l 71 239 q 76 258 71 249 q 103 308 97 285 q 110 358 108 332 q 113 413 111 383 q 126 478 114 442 q 155 518 136 504 q 194 535 174 532 q 207 536 201 536 q 235 531 219 536 q 258 515 250 526 q 264 501 264 507 q 256 490 264 496 q 233 483 249 483 q 223 483 226 483 q 219 476 219 483 l 219 467 q 220 449 219 461 q 224 404 221 436 q 229 360 226 379 q 231 325 232 342 q 224 294 231 308 q 203 263 218 279 q 185 246 192 251 q 181 239 181 243 q 185 232 181 236 q 210 194 201 217 q 224 146 219 172 q 231 93 229 119 q 233 46 233 67 q 238 3 235 18 q 244 -17 240 -11 q 253 -24 249 -24 q 265 -25 258 -25 z "},"}":{"ha":371,"x_min":71,"x_max":301,"o":"m 106 485 q 72 494 78 485 q 71 500 71 497 q 81 513 71 506 q 119 522 90 519 l 124 522 q 189 507 150 522 q 224 485 211 499 q 242 455 236 472 q 251 416 249 438 q 253 371 253 394 q 256 302 254 326 q 260 265 257 278 q 268 249 264 253 q 279 244 272 246 q 301 226 300 239 q 294 201 301 213 q 268 151 274 175 q 261 102 263 128 q 258 47 260 76 q 244 -18 257 18 q 216 -59 235 -46 q 178 -75 197 -72 q 164 -76 171 -76 q 136 -72 151 -76 q 113 -56 121 -67 q 107 -42 107 -47 q 115 -30 107 -36 q 138 -24 122 -24 q 148 -24 144 -24 q 152 -17 151 -24 q 151 7 153 -10 q 147 56 150 24 q 142 100 144 81 q 140 124 140 113 q 140 140 140 129 q 147 166 140 151 q 168 197 153 181 q 188 215 179 208 q 190 221 190 218 q 186 228 190 224 q 160 265 169 242 q 147 314 151 288 q 140 367 142 340 q 138 414 138 393 q 133 456 136 442 q 126 477 131 471 q 117 484 122 483 q 106 485 113 485 z "},"":{"ha":636,"x_min":69,"x_max":567,"o":"m 288 503 q 364 513 329 513 q 450 494 404 513 q 528 424 496 475 q 565 306 560 372 q 567 282 567 293 q 548 167 567 226 q 485 57 529 108 q 372 -12 440 6 q 306 -22 340 -22 q 265 -20 294 -22 q 195 1 236 -18 q 123 56 154 21 q 79 146 92 92 q 69 222 69 186 q 82 302 69 256 q 129 394 94 349 q 208 467 164 439 q 288 503 251 494 m 400 74 q 474 178 453 122 q 490 272 490 226 q 489 307 490 278 q 466 379 488 336 q 414 446 444 422 q 349 469 383 469 q 282 435 313 469 q 224 347 244 393 q 200 257 204 301 q 197 221 197 239 q 203 161 197 194 q 229 94 210 128 q 303 33 258 42 q 315 32 310 32 q 400 74 356 32 m 415 317 q 407 315 411 315 q 378 339 386 315 q 369 314 374 332 q 360 274 364 296 q 356 232 357 253 l 356 196 q 365 204 363 199 q 372 214 368 210 q 393 228 379 225 q 401 229 397 229 q 418 225 410 229 q 428 217 425 222 l 428 215 q 418 194 428 208 q 385 151 400 169 q 356 124 371 133 q 324 113 340 114 q 313 111 318 111 q 282 117 299 111 q 243 154 253 125 q 235 204 235 176 q 236 234 235 213 q 249 293 238 256 q 274 356 261 331 q 297 383 282 372 q 329 399 313 393 q 363 403 346 404 q 394 397 381 403 q 417 379 408 392 q 431 354 426 367 q 432 342 432 347 q 429 326 432 335 q 415 317 426 318 z "},"":{"ha":578,"x_min":71,"x_max":508,"o":"m 457 529 q 488 478 475 507 q 506 418 500 450 q 508 385 508 401 q 504 342 508 368 q 483 283 500 317 q 416 207 458 233 q 325 175 374 181 q 299 174 311 174 q 218 186 261 174 q 136 233 175 199 q 79 324 93 272 q 71 382 71 353 q 78 438 71 403 q 118 515 85 474 q 204 578 151 557 q 250 594 228 588 q 283 600 268 600 l 289 600 q 384 582 343 599 q 457 529 425 565 m 272 222 q 304 214 288 214 q 344 224 319 214 q 394 267 368 235 q 433 344 421 299 q 440 390 440 367 q 433 438 440 414 q 416 410 424 418 q 392 393 408 401 q 361 378 367 379 q 358 375 358 378 q 365 365 358 372 q 382 349 372 358 q 398 332 392 340 q 405 317 404 324 q 396 306 406 310 q 382 303 389 303 q 357 311 368 303 q 325 339 340 324 q 322 326 322 333 q 322 317 322 324 q 317 303 322 310 q 293 286 306 292 q 271 281 282 281 q 261 281 269 281 q 242 291 253 282 q 228 318 232 300 q 219 358 224 335 q 213 406 214 382 q 211 438 211 421 q 211 460 211 444 q 217 493 211 476 q 235 519 224 517 q 267 522 246 522 q 292 516 285 522 q 303 503 300 510 q 311 493 307 496 q 314 492 313 492 q 322 494 318 492 q 363 507 342 507 q 381 505 367 507 q 406 500 394 503 q 363 544 386 526 q 310 564 340 561 q 297 565 304 565 q 249 548 272 565 q 208 499 225 531 q 188 426 192 467 q 185 390 185 408 q 190 339 185 369 q 216 274 196 308 q 272 222 236 240 m 326 403 q 364 421 346 404 q 375 443 375 431 q 371 460 375 451 q 361 471 367 471 q 351 463 357 471 q 336 435 340 450 q 326 403 332 419 z "},"":{"ha":347,"x_min":71,"x_max":276,"o":"m 254 203 q 230 194 243 196 q 200 193 217 193 q 232 151 221 165 q 249 124 243 136 q 257 92 257 107 q 242 60 257 76 q 197 38 228 43 q 178 36 188 36 q 127 46 156 36 q 86 89 99 56 q 78 117 81 103 q 72 146 75 131 q 71 156 71 150 q 72 163 71 158 q 81 172 72 168 q 99 178 89 178 q 113 176 103 178 q 122 160 122 174 q 124 143 122 156 q 130 117 125 131 q 142 89 135 103 q 163 68 150 75 q 172 65 168 65 q 179 67 175 65 q 186 76 183 69 q 188 93 189 83 q 183 113 188 103 q 154 155 175 128 q 118 212 133 182 q 101 274 103 242 l 101 279 q 128 328 101 306 q 133 335 133 331 q 129 342 133 338 q 96 389 108 363 q 88 421 88 406 q 96 451 88 433 q 129 481 104 469 q 169 489 147 489 q 198 486 178 489 q 244 456 218 483 q 258 428 257 443 q 252 402 258 414 q 233 385 246 390 q 219 382 226 382 q 206 385 213 382 q 197 394 197 389 q 198 399 197 396 q 201 411 199 403 q 204 424 204 418 q 201 437 204 429 q 190 451 197 444 q 175 458 183 457 q 161 451 167 458 q 154 429 154 440 q 154 419 154 426 q 161 398 154 411 q 178 372 168 385 q 200 351 189 360 q 258 294 242 318 q 276 243 274 269 l 276 236 q 254 203 276 214 m 163 281 l 163 276 q 169 254 163 267 q 185 234 176 242 q 203 226 194 226 q 208 235 208 226 l 208 238 q 185 288 201 268 q 179 297 182 292 q 174 301 178 301 q 169 300 172 301 q 163 292 164 297 q 163 281 163 286 z "},"+":{"ha":456,"x_min":69,"x_max":385,"o":"m 346 289 q 357 290 351 290 q 375 287 365 290 q 385 276 385 283 q 366 262 385 268 q 299 254 347 256 q 285 253 289 254 q 278 239 281 251 q 276 197 276 226 q 275 110 276 167 q 269 65 275 86 q 239 39 263 44 q 219 36 229 36 q 191 47 204 36 q 170 83 178 57 q 161 142 163 108 q 160 213 160 176 q 158 245 158 240 q 143 251 158 250 q 118 253 131 251 q 94 256 106 254 q 69 269 69 257 q 76 279 69 276 q 94 283 83 282 q 116 283 104 283 q 139 282 128 282 q 156 284 151 282 q 160 298 160 286 q 162 333 161 310 q 168 400 163 357 q 173 424 169 413 q 184 442 176 435 q 206 453 192 450 q 218 454 211 454 q 243 451 229 454 q 270 440 263 449 q 279 413 278 432 q 280 383 281 397 q 279 356 279 369 l 281 356 q 281 299 281 311 q 293 286 281 286 q 321 288 307 288 l 329 288 q 346 289 338 288 z "},"":{"ha":435,"x_min":71,"x_max":364,"o":"m 263 208 q 258 193 258 200 q 263 174 258 186 q 279 142 268 163 q 308 85 290 122 q 315 63 315 69 q 312 53 315 58 q 285 47 308 47 q 261 54 269 47 q 246 72 253 61 q 234 94 239 83 q 222 117 229 106 q 215 110 217 114 q 211 104 214 107 q 189 68 204 83 q 158 38 174 53 q 135 26 150 29 q 115 24 125 24 q 99 25 110 24 q 79 33 89 26 q 71 47 71 39 l 71 51 q 76 78 75 68 q 85 103 78 88 q 107 150 92 119 q 153 240 122 181 q 157 253 157 249 q 150 273 157 257 q 128 322 143 289 q 85 419 113 354 q 79 438 81 431 l 79 439 q 90 450 79 444 q 107 454 100 454 q 122 449 114 454 q 142 427 131 444 q 166 383 154 410 q 194 321 178 356 q 205 333 201 328 q 211 346 208 339 q 249 405 232 382 q 280 441 265 428 q 308 458 294 454 q 331 461 319 461 l 339 461 q 364 443 363 458 l 364 440 q 352 394 364 424 q 316 319 340 365 q 263 208 292 272 z "},"=":{"ha":481,"x_min":71,"x_max":411,"o":"m 408 314 q 388 294 408 301 q 338 285 368 288 q 293 283 317 283 q 257 283 282 283 q 199 285 232 283 q 141 288 165 286 q 110 292 117 290 q 72 310 76 296 q 71 317 71 313 q 82 329 71 324 q 112 338 94 335 q 159 342 129 340 q 234 343 189 343 q 346 343 279 343 q 365 342 354 343 q 385 337 375 340 q 401 328 394 333 q 408 314 408 322 m 379 233 q 407 219 399 228 q 411 210 411 215 q 405 199 411 206 q 375 186 399 193 q 308 179 351 179 q 199 175 250 178 q 171 174 185 174 q 100 182 135 174 q 79 194 85 186 q 78 200 78 197 q 88 213 78 206 q 136 226 99 219 q 246 233 174 233 q 267 235 250 233 q 304 237 283 236 q 346 237 325 238 q 379 233 367 236 z "},"~":{"ha":622,"x_min":69,"x_max":551,"o":"m 456 297 q 532 249 510 281 q 551 190 551 221 q 550 169 551 188 q 523 122 549 150 q 458 85 497 93 q 411 79 433 79 q 342 94 379 79 q 268 138 304 108 q 207 199 232 167 q 168 246 182 231 q 151 258 157 258 q 138 242 144 257 q 125 193 125 215 l 125 185 q 131 151 125 167 q 145 124 136 135 q 161 110 154 113 q 169 100 169 106 l 168 96 q 157 89 167 90 q 143 88 149 88 q 122 90 132 88 q 99 108 111 93 q 71 176 75 140 q 69 194 69 185 q 79 247 69 221 q 110 288 88 272 q 164 304 132 303 l 169 304 q 233 290 197 304 q 308 238 269 275 q 344 203 329 218 q 372 176 360 188 q 397 155 385 164 q 425 139 410 146 q 436 136 431 136 q 456 141 444 136 q 478 160 467 146 q 493 194 489 175 l 494 204 q 488 233 494 219 q 462 261 479 253 q 433 276 444 269 q 428 285 428 281 q 433 293 428 289 q 449 299 442 299 q 456 297 453 299 z "},"":{"ha":357,"x_min":71,"x_max":288,"o":"m 258 -47 q 288 -107 288 -78 q 283 -132 288 -112 q 249 -169 279 -151 q 188 -185 222 -185 q 151 -182 179 -185 q 79 -142 124 -179 q 71 -128 71 -135 q 73 -122 71 -126 q 88 -114 75 -117 q 99 -112 94 -112 q 110 -114 104 -112 q 122 -119 115 -115 q 135 -129 128 -124 q 153 -140 142 -135 q 167 -144 160 -144 q 180 -138 172 -144 q 193 -115 188 -132 q 196 -90 196 -104 q 195 -74 196 -85 q 185 -50 194 -62 q 169 -43 178 -43 q 160 -44 168 -43 q 142 -46 153 -46 q 120 -35 129 -46 q 108 13 111 -25 q 107 35 107 25 q 113 68 107 60 q 140 78 118 78 l 151 78 q 174 72 167 78 q 185 50 181 65 q 189 22 189 36 q 188 7 189 15 q 186 -3 186 1 q 190 -12 186 -10 q 203 -16 193 -14 q 227 -24 213 -18 q 258 -47 242 -29 z "},"":{"ha":325,"x_min":71,"x_max":254,"o":"m 196 572 q 242 540 226 564 q 254 496 254 519 q 253 480 254 494 q 235 444 253 465 q 183 418 218 422 q 164 417 174 417 q 111 428 135 417 q 78 460 88 439 q 71 488 71 472 q 75 516 71 497 q 103 560 79 535 q 140 579 118 576 l 146 579 q 196 572 167 579 m 168 468 q 175 464 171 464 q 183 468 178 464 q 192 486 188 472 q 193 504 193 494 q 192 520 193 510 q 178 539 190 531 q 171 543 174 543 q 165 536 168 543 q 158 501 158 519 q 168 468 158 483 z "},"":{"ha":325,"x_min":71,"x_max":254,"o":"m 196 572 q 242 540 226 564 q 254 496 254 519 q 253 480 254 494 q 235 444 253 465 q 183 418 218 422 q 164 417 174 417 q 111 428 135 417 q 78 460 88 439 q 71 488 71 472 q 75 516 71 497 q 103 560 79 535 q 140 579 118 576 l 146 579 q 196 572 167 579 m 168 468 q 175 464 171 464 q 183 468 178 464 q 192 486 188 472 q 193 504 193 494 q 192 520 193 510 q 178 539 190 531 q 171 543 174 543 q 165 536 168 543 q 158 501 158 519 q 168 468 158 483 z "},"":{"ha":325,"x_min":71,"x_max":254,"o":"m 196 572 q 242 540 226 564 q 254 496 254 519 q 253 480 254 494 q 235 444 253 465 q 183 418 218 422 q 164 417 174 417 q 111 428 135 417 q 78 460 88 439 q 71 488 71 472 q 75 516 71 497 q 103 560 79 535 q 140 579 118 576 l 146 579 q 196 572 167 579 z "},"`":{"ha":281,"x_min":68,"x_max":211,"o":"m 90 603 q 103 604 96 604 q 122 601 111 604 q 145 584 132 597 q 172 546 158 571 q 206 481 186 521 q 211 460 211 469 q 178 435 211 438 l 171 435 q 140 441 153 435 q 115 467 126 447 q 72 565 83 531 q 68 582 68 575 q 90 603 68 600 z "},"":{"ha":281,"x_min":69,"x_max":213,"o":"m 190 603 q 213 581 213 600 q 205 552 213 574 q 165 467 197 531 q 140 440 154 447 q 110 435 128 435 l 103 435 q 69 460 69 438 q 75 481 69 469 q 108 546 93 521 q 135 584 122 571 q 163 601 149 597 q 179 604 169 604 q 190 603 185 604 z "},"":{"ha":390,"x_min":71,"x_max":319,"o":"m 318 457 q 319 446 319 451 q 307 425 319 435 q 272 415 294 415 l 267 415 q 224 424 246 415 q 192 457 201 433 q 181 480 186 468 q 171 506 176 492 q 147 469 160 488 q 124 440 133 451 q 107 431 117 433 q 96 429 101 429 q 84 431 92 429 q 72 439 76 432 q 71 444 71 442 q 74 453 71 449 q 115 519 100 496 q 138 554 131 543 q 147 569 146 565 q 149 578 149 574 q 161 596 149 589 q 192 603 174 603 q 229 596 210 603 q 263 572 249 589 q 278 548 269 563 q 294 517 286 533 q 308 484 301 500 q 318 457 314 468 z "},"":{"ha":390,"x_min":69,"x_max":319,"o":"m 72 554 q 69 565 69 560 q 83 586 69 576 q 119 597 96 596 q 165 588 142 597 q 199 554 189 578 q 209 531 204 543 q 219 506 214 519 q 244 542 231 524 q 267 571 257 560 q 285 581 274 578 q 297 582 292 582 q 308 581 301 582 q 318 574 314 579 q 319 568 319 571 q 317 558 319 563 q 274 492 289 515 q 252 457 260 468 q 243 442 244 446 q 242 433 242 438 q 229 415 242 422 q 199 408 217 408 q 161 415 181 408 q 128 439 142 422 q 113 463 121 449 q 97 494 104 478 q 83 527 89 511 q 72 554 76 543 z "},"":{"ha":463,"x_min":71,"x_max":393,"o":"m 135 544 q 154 542 142 542 q 179 540 167 542 q 201 531 192 538 q 214 511 211 525 q 215 497 215 504 q 203 464 215 478 q 172 444 192 450 q 149 442 160 442 q 122 444 139 442 q 92 456 106 446 q 72 485 75 467 q 71 494 71 489 q 77 518 71 506 q 100 540 83 531 q 122 546 110 546 q 135 544 128 546 m 351 539 q 382 525 372 535 q 392 503 392 515 q 385 481 393 492 q 364 461 378 469 q 336 452 350 454 q 307 449 322 450 q 247 472 261 454 q 235 499 235 485 q 238 513 235 503 q 258 536 240 524 q 286 546 271 546 q 296 544 290 546 q 324 542 310 542 q 351 539 338 542 z "},"":{"ha":440,"x_min":71,"x_max":371,"o":"m 289 561 q 303 563 296 563 q 326 558 313 563 q 351 542 339 554 q 369 515 364 531 q 371 507 371 511 q 363 483 371 496 q 324 447 347 460 q 274 433 300 433 l 268 433 q 217 444 243 433 q 168 483 190 456 q 146 513 153 503 q 142 515 143 515 q 131 503 136 515 q 126 486 126 493 q 129 475 126 482 q 139 463 132 468 q 153 453 146 457 q 160 444 160 449 q 147 432 160 436 q 135 431 142 431 q 115 433 128 431 q 88 446 103 435 q 71 481 74 457 l 71 490 q 82 529 71 511 q 117 556 93 547 q 150 561 132 561 q 179 558 160 561 q 229 532 199 554 q 260 506 249 517 q 278 489 271 494 q 286 485 282 485 q 290 485 288 485 q 300 494 293 485 q 307 513 307 504 q 286 540 307 528 q 278 550 278 544 q 278 555 278 551 q 289 561 279 558 z "},"":{"ha":404,"x_min":71,"x_max":335,"o":"m 324 488 q 334 467 335 481 q 331 442 333 454 q 316 385 326 419 q 292 310 306 350 q 264 228 279 269 q 235 149 249 186 q 211 83 222 111 q 196 43 200 56 q 156 -1 182 7 q 131 -6 143 -6 q 94 1 114 -6 q 71 29 71 10 q 89 97 71 47 q 138 231 115 174 q 181 332 161 288 q 220 410 201 376 q 256 474 239 444 q 288 493 265 489 q 297 494 293 494 q 324 488 313 494 z "},"'":{"ha":233,"x_min":71,"x_max":163,"o":"m 103 696 q 128 683 118 692 q 146 658 139 675 q 156 612 153 640 q 163 539 160 583 l 163 536 q 138 504 163 504 q 119 507 129 504 q 74 560 79 521 q 71 632 71 603 q 72 667 71 653 q 94 697 74 697 q 103 696 99 697 z "},"\"":{"ha":336,"x_min":71,"x_max":265,"o":"m 103 696 q 128 683 118 692 q 146 658 139 675 q 156 612 153 640 q 163 539 160 583 l 163 536 q 138 504 163 504 q 119 507 129 504 q 74 560 79 521 q 71 632 71 603 q 72 667 71 653 q 94 697 74 697 q 103 696 99 697 m 206 696 q 231 683 221 692 q 249 658 242 675 q 259 612 256 640 q 265 539 263 583 l 265 536 q 240 504 265 504 q 222 507 232 504 q 176 560 182 521 q 174 632 174 603 q 175 667 174 653 q 197 697 176 697 q 206 696 201 697 z "},"":{"ha":400,"x_min":69,"x_max":332,"o":"m 190 603 q 213 581 213 600 q 205 552 213 574 q 165 467 197 531 q 140 440 154 447 q 110 435 128 435 l 103 435 q 69 460 69 438 q 75 481 69 469 q 108 546 93 521 q 135 584 122 571 q 163 601 149 597 q 179 604 169 604 q 190 603 185 604 m 310 597 q 332 575 332 594 q 324 547 332 568 q 285 461 317 525 q 260 435 274 442 q 229 429 247 429 l 222 429 q 189 454 189 432 q 194 475 189 464 q 227 540 213 515 q 255 578 242 565 q 282 596 268 592 q 299 599 289 599 q 310 597 304 599 z "},"":{"ha":469,"x_min":0,"x_max":507,"o":"m 483 289 l 489 289 q 504 282 499 289 q 507 275 507 279 q 496 261 507 268 q 458 240 476 250 q 422 220 440 231 q 382 199 403 210 q 336 174 361 188 l 336 164 q 331 117 336 143 q 316 63 326 92 q 292 6 306 33 q 264 -43 278 -21 q 199 -99 238 -83 q 140 -111 168 -111 q 110 -109 132 -111 q 64 -86 89 -107 q 39 -35 39 -67 q 39 -17 39 -33 q 72 43 39 0 q 185 133 104 86 q 201 148 196 140 q 207 168 207 156 q 208 190 207 181 q 210 207 210 200 q 207 216 210 213 q 194 219 204 219 q 143 229 156 221 q 132 244 132 235 q 134 255 132 247 q 150 280 136 263 q 178 319 164 297 q 201 368 192 342 q 207 401 207 383 q 206 422 207 411 q 197 440 203 438 q 193 442 196 442 q 178 436 188 442 q 110 384 139 415 q 63 314 82 353 q 55 287 56 299 q 36 272 54 275 l 29 272 q 8 276 17 272 q 0 292 0 279 l 0 299 q 13 335 3 315 q 38 378 22 356 q 74 422 53 400 q 121 460 94 443 q 178 482 146 475 q 221 488 200 488 q 249 485 231 488 q 291 467 268 482 q 322 424 314 451 q 325 400 325 413 q 316 348 325 381 q 267 260 307 315 q 304 240 286 253 q 329 208 322 226 q 399 244 360 221 q 483 289 439 267 m 169 35 q 180 59 175 47 q 189 86 185 71 q 138 46 157 69 q 109 0 118 22 q 100 -37 100 -22 q 110 -54 100 -54 l 111 -54 q 134 -35 119 -54 q 169 35 149 -15 m 81 665 q 78 676 78 671 q 91 697 78 688 q 127 708 104 707 q 174 699 150 708 q 207 665 197 689 q 217 642 213 654 q 228 617 222 631 q 252 653 239 635 q 275 682 265 671 q 293 692 282 689 q 306 693 300 693 q 316 692 310 693 q 326 685 322 690 q 328 679 328 682 q 325 669 328 674 q 283 603 297 626 q 260 568 268 579 q 251 553 253 557 q 250 544 250 549 q 238 526 250 533 q 207 519 225 519 q 169 526 189 519 q 136 550 150 533 q 121 574 129 560 q 105 606 113 589 q 91 638 97 622 q 81 665 85 654 z "},"":{"ha":781,"x_min":1,"x_max":824,"o":"m 789 283 q 804 288 797 288 q 812 287 807 288 q 821 281 817 286 q 824 271 824 276 q 823 265 824 269 q 813 253 822 260 q 764 214 792 236 q 707 169 736 192 q 649 126 678 146 q 597 94 619 106 q 557 -43 586 31 q 492 -172 528 -117 q 389 -274 446 -243 q 288 -303 335 -303 q 260 -302 286 -303 q 203 -272 233 -301 q 178 -217 178 -250 q 179 -199 178 -208 q 213 -128 185 -162 q 280 -62 242 -93 q 360 -4 318 -31 q 433 42 401 22 q 453 68 451 53 q 467 174 461 117 q 468 194 468 185 q 453 275 468 239 q 446 289 449 286 l 444 289 q 432 285 440 289 q 383 256 397 267 q 358 233 369 244 q 329 203 346 221 q 274 157 313 186 q 236 143 256 143 q 196 150 217 143 q 182 167 182 156 q 188 183 182 174 q 219 232 203 208 q 256 278 236 256 q 431 533 374 415 q 500 735 488 650 q 504 788 504 763 q 489 865 504 835 q 435 904 468 904 q 424 903 429 904 q 280 854 343 889 q 171 773 217 819 q 99 674 125 726 q 67 575 72 622 q 64 546 64 560 q 76 485 64 517 q 126 436 89 453 q 140 433 133 433 q 163 440 150 433 q 190 468 176 447 q 212 519 203 489 q 221 583 221 549 q 260 629 221 629 q 274 628 267 629 q 311 613 299 625 q 326 576 324 601 q 328 549 328 563 q 312 480 328 514 q 260 422 296 446 q 179 392 225 397 q 157 390 168 390 q 86 404 121 390 q 17 465 36 422 q 1 538 1 497 q 5 584 1 550 q 40 677 8 618 q 124 788 71 736 q 249 878 176 840 q 410 929 321 917 q 461 933 435 933 q 511 926 486 933 q 604 854 578 910 q 624 757 624 813 q 618 690 624 739 q 572 549 613 642 q 465 364 531 456 q 458 353 460 358 q 467 354 461 354 q 496 350 475 354 q 544 325 517 346 q 590 263 571 304 q 603 190 603 233 q 600 147 603 169 q 656 181 626 161 q 710 220 685 200 q 757 257 736 240 q 789 283 778 274 m 265 -244 q 279 -253 271 -253 q 308 -235 289 -253 q 353 -178 326 -218 q 401 -90 379 -137 q 431 -11 424 -43 q 363 -58 400 -32 q 297 -115 325 -85 q 257 -179 268 -146 q 253 -204 253 -192 q 265 -244 253 -225 m 296 1117 q 293 1128 293 1122 q 306 1149 293 1139 q 342 1159 319 1158 q 389 1150 365 1160 q 422 1117 413 1140 q 433 1094 428 1106 q 443 1068 438 1082 q 467 1104 454 1086 q 490 1133 481 1122 q 508 1143 497 1140 q 521 1144 515 1144 q 531 1143 525 1144 q 542 1136 538 1142 q 543 1131 543 1133 q 540 1121 543 1125 q 498 1054 513 1078 q 476 1019 483 1031 q 467 1004 468 1008 q 465 996 465 1000 q 453 978 465 985 q 422 971 440 971 q 385 978 404 971 q 351 1001 365 985 q 336 1026 344 1011 q 320 1057 328 1040 q 306 1090 313 1074 q 296 1117 300 1106 z "},"\\":{"ha":404,"x_min":71,"x_max":333,"o":"m 81 494 q 107 501 92 501 q 126 499 113 501 q 149 481 139 496 q 184 417 165 451 q 223 339 203 383 q 266 238 243 294 q 315 104 289 181 q 333 36 333 54 q 310 8 333 17 q 274 1 290 1 q 242 8 261 1 q 208 50 222 14 q 192 90 203 63 q 169 156 182 118 q 140 235 156 193 q 112 317 125 276 q 88 392 99 357 q 74 449 78 426 q 71 475 71 461 l 71 478 q 81 494 71 489 z "},"^":{"ha":531,"x_min":69,"x_max":461,"o":"m 214 667 q 155 588 178 619 q 117 540 132 557 q 93 521 101 524 l 90 521 q 76 531 82 521 q 71 548 71 539 q 69 567 71 557 q 74 589 72 578 q 83 608 76 600 q 115 656 96 626 q 157 718 135 686 q 199 778 179 750 q 233 819 219 806 q 253 830 244 831 q 283 807 263 829 q 342 738 304 785 q 449 610 381 690 q 460 585 461 593 q 452 574 460 578 q 435 567 444 569 q 422 557 426 564 q 407 536 414 542 q 401 535 404 535 q 382 545 396 535 q 338 590 368 556 q 251 686 307 624 q 242 694 246 694 q 237 692 240 694 q 214 667 233 690 z "},"_":{"ha":626,"x_min":69,"x_max":558,"o":"m 535 28 q 558 7 558 19 q 553 -6 558 4 q 525 -21 549 -17 q 419 -28 476 -26 l 363 -28 q 294 -28 335 -28 q 208 -26 253 -28 q 139 -24 163 -24 l 132 -24 q 106 -19 119 -24 q 81 -8 92 -15 q 69 8 71 -1 l 69 10 q 81 24 69 18 q 122 31 88 28 q 206 35 157 33 q 309 36 254 36 q 412 35 364 36 q 494 33 460 35 q 535 28 528 31 z "},"":{"ha":254,"x_min":69,"x_max":185,"o":"m 165 58 q 185 1 182 26 l 185 -6 q 176 -45 185 -28 q 151 -74 168 -62 q 114 -87 133 -85 l 110 -87 q 97 -72 97 -87 l 97 -65 q 92 -38 97 -53 q 82 -8 88 -24 q 69 33 69 19 q 72 46 69 38 q 86 69 75 54 q 103 80 92 76 q 126 83 114 83 q 149 76 138 82 q 165 58 160 71 z "},"":{"ha":378,"x_min":69,"x_max":308,"o":"m 165 58 q 185 1 182 26 l 185 -6 q 176 -45 185 -28 q 151 -74 168 -62 q 114 -87 133 -85 l 110 -87 q 97 -72 97 -87 l 97 -65 q 92 -38 97 -53 q 82 -8 88 -24 q 69 33 69 19 q 72 46 69 38 q 86 69 75 54 q 103 80 92 76 q 126 83 114 83 q 149 76 138 82 q 165 58 160 71 m 289 58 q 308 1 306 26 l 308 -6 q 300 -45 308 -28 q 274 -74 292 -62 q 238 -87 257 -85 l 233 -87 q 221 -72 221 -87 l 221 -65 q 216 -38 221 -53 q 206 -8 211 -24 q 193 33 193 19 q 196 46 193 38 q 210 69 199 54 q 226 80 215 76 q 249 83 238 83 q 272 76 261 82 q 289 58 283 71 z "},"":{"ha":863,"x_min":71,"x_max":792,"o":"m 192 93 q 217 63 214 83 l 217 54 q 206 19 217 36 q 169 -8 194 1 q 143 -14 157 -14 q 107 -7 126 -14 q 81 12 90 -1 q 71 42 71 25 l 71 47 q 77 74 71 60 q 100 97 83 88 q 140 110 122 110 q 160 106 147 110 q 192 93 174 101 m 479 93 q 504 63 501 83 l 504 54 q 493 19 504 36 q 457 -8 482 1 q 431 -14 444 -14 q 394 -7 414 -14 q 368 12 378 -1 q 358 42 358 25 l 358 47 q 365 74 358 60 q 388 97 371 88 q 428 110 410 110 q 448 106 435 110 q 479 93 461 101 m 767 93 q 792 63 789 83 l 792 54 q 781 19 792 36 q 744 -8 769 1 q 718 -14 732 -14 q 682 -7 701 -14 q 656 12 665 -1 q 646 42 646 25 l 646 47 q 652 74 646 60 q 675 97 658 88 q 715 110 697 110 q 735 106 722 110 q 767 93 749 101 z "},"":{"ha":496,"x_min":69,"x_max":428,"o":"m 404 503 q 428 482 428 494 q 423 469 428 479 q 394 454 418 458 q 342 449 367 451 q 297 444 318 446 l 297 335 q 293 150 293 225 q 293 83 293 132 q 290 -10 293 33 q 275 -64 286 -53 q 249 -74 267 -74 q 236 -72 243 -74 q 212 -65 219 -71 q 201 -30 204 -58 q 196 59 197 -1 q 190 229 194 119 q 190 256 190 235 q 188 307 189 276 q 188 373 188 338 q 188 443 188 408 q 163 444 175 443 q 139 444 150 444 l 132 444 q 106 449 119 444 q 81 460 92 453 q 69 476 71 467 l 69 478 q 81 492 69 486 q 118 499 89 496 q 186 506 147 503 q 187 547 186 529 q 188 574 188 564 q 190 640 189 614 q 195 682 192 667 q 206 704 199 697 q 228 713 214 711 l 243 713 q 275 704 267 713 q 286 676 283 696 q 292 605 289 651 q 296 508 294 558 q 367 507 336 508 q 404 503 397 506 z "},"":{"ha":490,"x_min":71,"x_max":421,"o":"m 389 128 q 417 114 408 122 q 421 104 421 110 q 415 94 421 100 q 385 81 408 88 q 318 74 361 74 q 305 74 311 74 q 292 72 299 74 q 290 -6 292 24 q 283 -51 288 -36 q 267 -71 278 -67 q 250 -74 260 -74 q 236 -72 244 -74 q 216 -67 224 -71 q 204 -51 208 -64 q 198 -10 200 -37 q 194 68 196 18 q 151 69 172 68 q 110 76 129 71 q 90 86 97 79 q 88 93 88 90 q 92 103 88 97 q 121 115 97 108 q 193 125 144 122 q 192 174 193 149 q 190 229 192 199 q 190 260 190 235 q 188 321 189 286 q 187 396 188 356 q 186 472 186 436 q 137 476 158 475 q 110 479 115 478 q 72 497 76 483 q 71 504 71 500 q 82 517 71 511 q 121 526 97 524 q 186 529 144 529 q 187 556 186 544 q 188 574 188 567 q 190 640 189 614 q 195 682 192 667 q 206 704 199 697 q 228 713 214 711 l 243 713 q 275 704 267 713 q 286 676 283 696 q 291 613 289 653 q 296 529 293 574 q 319 530 307 529 q 346 531 331 531 q 365 529 354 531 q 385 524 375 528 q 401 515 394 521 q 408 501 408 510 q 375 478 408 485 q 297 469 342 471 q 298 383 299 421 q 297 335 297 344 q 294 220 294 271 q 292 129 293 169 q 344 132 315 132 q 389 128 374 132 z "},"":{"ha":575,"x_min":0,"x_max":499,"o":"m 493 46 q 499 -15 499 13 q 444 -160 499 -100 q 263 -219 390 -219 l 250 -219 q 150 -198 194 -219 q 73 -139 106 -176 q 22 -54 40 -101 q 1 42 4 -7 q 0 65 0 54 q 11 138 0 100 q 49 203 22 175 q 106 229 72 225 q 119 231 113 231 q 165 218 143 231 q 196 175 188 206 q 197 161 197 168 q 178 97 197 135 q 158 81 171 85 q 140 78 149 78 q 131 78 138 78 q 118 86 124 79 q 115 92 115 89 q 118 99 115 96 q 133 124 128 108 q 139 156 139 139 q 134 183 139 171 q 117 199 129 196 q 111 200 114 200 q 102 195 107 200 q 93 183 97 190 q 63 114 69 154 q 58 69 58 92 q 63 19 58 50 q 85 -53 67 -12 q 131 -125 103 -94 q 194 -171 158 -156 q 243 -181 218 -181 q 272 -178 257 -181 q 324 -151 304 -172 q 353 -101 343 -131 q 364 -39 363 -72 l 364 -22 q 361 26 364 3 q 300 240 344 140 q 210 425 256 339 q 133 586 165 511 q 108 699 108 644 q 110 726 108 713 q 136 796 114 764 q 189 850 158 828 q 257 883 219 872 q 315 892 288 892 q 343 890 322 892 q 394 870 364 889 q 442 813 425 851 q 454 757 454 786 q 451 725 454 749 q 426 673 447 701 q 374 628 406 644 q 321 615 349 615 q 303 617 313 615 q 290 619 296 617 q 285 629 285 622 q 297 640 285 639 q 319 642 308 642 q 357 663 336 642 q 389 714 378 683 q 396 757 396 735 q 392 792 396 768 q 350 844 388 815 q 324 853 339 853 q 296 847 308 854 q 233 764 243 813 q 231 729 231 747 q 244 646 231 694 q 294 528 258 597 q 369 382 329 460 q 443 219 408 304 q 493 46 478 135 m 156 1064 q 153 1075 153 1069 q 166 1096 153 1086 q 202 1106 179 1106 q 249 1097 225 1107 q 282 1064 272 1088 q 292 1041 288 1053 q 303 1015 297 1029 q 327 1051 314 1033 q 350 1081 340 1069 q 368 1090 357 1088 q 381 1092 375 1092 q 391 1090 385 1092 q 401 1083 397 1089 q 403 1078 403 1081 q 400 1068 403 1072 q 358 1001 372 1025 q 335 967 343 978 q 326 951 328 956 q 325 943 325 947 q 313 925 325 932 q 282 918 300 918 q 244 925 264 918 q 211 949 225 932 q 196 973 204 958 q 180 1004 188 988 q 166 1037 172 1021 q 156 1064 160 1053 z "},"":{"ha":464,"x_min":71,"x_max":394,"o":"m 236 174 q 319 119 286 140 q 370 85 353 99 q 390 63 388 71 l 390 60 q 382 46 390 53 q 365 38 374 39 q 346 36 356 38 q 324 39 335 38 q 303 47 313 40 q 253 75 285 57 q 189 113 222 93 q 126 151 156 132 q 82 182 96 169 q 71 201 71 192 q 92 233 71 211 q 157 297 113 256 q 278 411 201 338 q 338 442 308 439 l 346 442 q 379 436 368 442 q 394 417 394 428 l 394 410 q 372 376 393 401 q 312 310 351 350 q 214 210 272 269 q 207 200 207 204 q 209 195 207 199 q 236 174 211 192 z "},"":{"ha":853,"x_min":69,"x_max":785,"o":"m 447 481 q 475 453 475 478 q 449 351 475 428 q 410 228 425 279 q 385 140 394 178 q 368 76 375 103 q 354 25 361 49 q 339 7 350 14 q 314 -3 328 0 q 292 -6 304 -6 q 279 -5 289 -6 q 257 1 269 -4 q 238 17 242 8 q 235 29 235 21 q 236 40 235 33 q 278 204 254 124 q 336 363 303 285 q 363 419 353 401 q 372 444 372 438 q 363 450 372 450 l 331 450 l 311 451 l 292 450 l 283 450 q 251 454 268 450 q 254 447 253 447 q 271 406 271 428 q 269 386 271 401 q 244 347 268 371 q 200 322 226 331 q 160 317 179 317 q 136 318 153 317 q 99 333 119 319 q 72 372 78 346 q 69 393 69 383 q 75 426 69 407 q 97 465 81 446 q 136 496 113 485 q 168 501 151 501 q 189 500 178 501 q 203 494 200 497 q 207 490 206 492 q 214 485 208 488 q 236 479 219 482 q 285 476 260 476 l 318 476 q 365 474 342 476 q 383 472 376 472 q 393 473 388 472 q 406 476 399 474 q 421 481 413 479 q 432 482 425 482 q 447 481 439 482 m 178 389 q 184 407 185 399 q 181 424 183 415 q 174 404 174 415 q 178 389 174 397 m 481 193 q 492 194 486 194 q 520 188 503 194 q 553 160 538 181 q 574 107 568 139 q 575 94 575 101 q 560 33 575 67 q 525 -14 546 0 q 467 -28 504 -28 l 461 -28 q 413 -15 432 -28 q 386 21 393 -1 q 381 51 381 35 q 383 77 381 60 q 397 119 385 94 q 431 165 410 144 q 481 193 453 185 m 493 47 q 511 104 511 79 q 504 131 511 119 q 494 92 497 111 q 492 65 492 79 q 493 47 492 57 m 690 204 q 701 206 696 206 q 730 199 713 206 q 763 171 747 192 q 783 118 778 150 q 785 106 785 113 q 769 44 785 78 q 735 -3 756 11 q 676 -17 714 -17 l 671 -17 q 622 -3 642 -17 q 596 32 603 10 q 590 63 590 46 q 592 88 590 71 q 607 131 594 106 q 641 176 619 156 q 690 204 663 196 m 703 58 q 721 115 721 90 q 714 142 721 131 q 704 103 707 122 q 701 76 701 90 q 703 58 701 68 z "},"":{"ha":1017,"x_min":0,"x_max":1090,"o":"m 467 868 q 542 786 510 833 q 596 681 574 739 q 662 792 619 749 q 753 856 704 836 q 842 874 799 874 q 870 873 846 874 q 926 851 894 872 q 961 792 957 831 l 961 783 q 938 708 961 747 q 862 632 915 668 q 725 582 808 596 q 708 576 710 579 q 706 560 706 574 l 706 551 q 715 490 706 519 q 735 436 725 460 q 745 398 744 413 q 725 378 746 383 q 683 353 704 372 q 642 303 661 333 q 614 146 635 222 q 558 7 593 69 q 573 -100 558 -50 q 624 -186 588 -150 q 672 -208 646 -208 q 706 -200 688 -208 q 876 -42 800 -160 q 1032 269 953 75 q 1047 285 1036 279 q 1068 291 1057 290 q 1086 286 1079 292 q 1090 276 1090 283 q 1089 268 1090 272 q 1065 206 1082 247 q 1026 119 1047 165 q 983 31 1004 74 q 950 -35 963 -12 q 900 -114 929 -75 q 835 -184 871 -153 q 758 -235 800 -215 q 665 -258 715 -256 l 644 -258 q 523 -223 572 -258 q 449 -125 474 -187 q 393 -158 422 -144 q 332 -179 364 -172 q 272 -185 300 -185 q 178 -166 228 -185 q 85 -95 128 -147 q 22 33 43 -43 q 0 197 0 108 q 23 380 0 285 q 93 567 46 475 q 115 639 111 601 q 160 808 124 743 q 249 900 197 872 q 331 919 288 919 q 381 914 344 919 q 467 868 417 908 m 310 -119 q 426 -25 375 -85 q 425 11 425 -7 q 431 95 425 49 q 456 195 438 142 q 505 294 475 249 q 572 372 535 340 q 574 438 575 404 q 571 504 574 471 q 537 658 563 588 q 478 778 511 728 q 408 858 444 829 q 339 889 371 888 q 328 890 333 890 q 295 882 311 890 q 264 858 279 874 q 205 765 219 818 q 185 656 190 713 l 185 653 q 188 647 185 649 q 198 646 190 646 q 215 644 206 646 q 236 638 225 643 q 249 622 249 631 q 243 610 249 617 q 217 559 228 586 q 194 506 206 532 q 192 489 192 499 q 197 452 192 476 q 217 393 201 428 q 255 326 232 358 q 306 278 278 294 q 318 274 313 274 q 338 281 326 274 q 360 305 349 288 q 379 346 372 322 q 382 372 382 360 q 381 393 382 383 q 375 418 378 406 q 367 442 372 431 q 353 461 363 453 q 326 472 343 469 q 319 479 319 474 q 322 488 319 482 q 340 496 325 493 q 353 497 346 497 q 391 484 372 497 q 422 445 410 471 q 439 389 435 419 q 440 365 440 376 q 435 322 440 346 q 409 274 429 297 q 354 242 389 250 q 308 236 329 236 q 226 264 265 236 q 154 358 186 292 q 151 351 151 353 q 150 347 150 350 q 133 201 133 269 q 140 110 133 171 q 174 -13 146 50 q 242 -106 203 -76 q 288 -125 267 -125 q 310 -119 299 -125 m 715 628 l 715 622 q 725 611 715 611 l 732 613 q 824 651 789 626 q 878 703 860 676 q 901 758 897 731 q 903 772 903 765 q 896 806 903 790 q 872 826 889 821 q 863 828 868 828 q 832 817 849 828 q 760 745 793 793 q 715 628 728 697 z "},"":{"ha":254,"x_min":69,"x_max":183,"o":"m 71 547 q 69 569 69 560 q 76 612 69 592 q 99 646 83 632 q 133 664 114 660 q 150 665 142 665 q 172 663 161 665 q 183 651 183 660 q 182 643 183 647 q 174 611 175 628 q 172 578 174 594 l 172 568 q 164 528 172 539 q 140 507 156 517 q 126 504 135 504 q 117 504 124 504 q 99 509 110 504 q 79 524 88 514 q 71 547 71 533 z "},"":{"ha":254,"x_min":71,"x_max":185,"o":"m 183 625 q 185 603 185 613 q 178 560 185 581 q 156 526 171 540 q 121 508 140 513 q 104 507 113 507 q 82 510 93 507 q 71 521 71 513 q 72 529 71 525 q 80 561 79 544 q 82 594 81 578 l 82 603 q 90 644 82 633 q 114 665 99 656 q 133 669 122 669 q 156 663 144 668 q 175 648 167 657 q 183 625 183 639 z "},"":{"ha":379,"x_min":69,"x_max":308,"o":"m 71 547 q 69 569 69 560 q 76 612 69 592 q 99 646 83 632 q 133 664 114 660 q 150 665 142 665 q 172 663 161 665 q 183 651 183 660 q 182 643 183 647 q 174 611 175 628 q 172 578 174 594 l 172 568 q 164 528 172 539 q 140 507 156 517 q 126 504 135 504 q 117 504 124 504 q 99 509 110 504 q 79 524 88 514 q 71 547 71 533 m 196 547 q 194 569 194 560 q 201 612 194 592 q 224 646 208 632 q 258 664 239 660 q 275 665 267 665 q 297 663 286 665 q 308 651 308 660 q 307 643 308 647 q 299 611 300 628 q 297 578 299 594 l 297 568 q 289 528 297 539 q 265 507 281 517 q 251 504 260 504 q 242 504 249 504 q 224 509 235 504 q 204 524 213 514 q 196 547 196 533 z "},"":{"ha":379,"x_min":71,"x_max":310,"o":"m 308 625 q 310 603 310 613 q 303 560 310 581 q 281 526 296 540 q 246 508 265 513 q 229 507 238 507 q 207 510 218 507 q 196 521 196 513 q 197 529 196 525 q 205 561 204 544 q 207 594 206 578 l 207 603 q 215 644 207 633 q 239 665 224 656 q 258 669 247 669 q 281 663 269 668 q 300 648 292 657 q 308 625 308 639 m 183 625 q 185 603 185 613 q 178 560 185 581 q 156 526 171 540 q 121 508 140 513 q 104 507 113 507 q 82 510 93 507 q 71 521 71 513 q 72 529 71 525 q 80 561 79 544 q 82 594 81 578 l 82 603 q 90 644 82 633 q 114 665 99 656 q 133 669 122 669 q 156 663 144 668 q 175 648 167 657 q 183 625 183 639 z "},"":{"ha":560,"x_min":69,"x_max":492,"o":"m 468 274 q 492 253 492 265 q 487 240 492 250 q 458 225 482 229 q 363 218 410 219 l 317 218 q 263 218 294 218 q 197 220 232 218 q 139 222 163 222 l 132 222 q 106 226 119 222 q 81 238 92 231 q 69 254 71 244 l 69 256 q 81 269 69 264 q 117 276 88 274 q 188 281 147 279 q 276 282 229 282 q 363 281 322 282 q 432 278 403 281 q 468 274 461 276 z "},"":{"ha":613,"x_min":69,"x_max":544,"o":"m 521 274 q 544 253 544 265 q 540 240 544 250 q 511 225 535 229 q 408 218 463 219 l 354 218 q 288 218 328 218 q 206 220 249 218 q 139 222 163 222 l 132 222 q 106 226 119 222 q 81 238 92 231 q 69 254 71 244 l 69 256 q 81 269 69 264 q 122 276 88 274 q 202 281 156 279 q 302 282 249 282 q 402 281 356 282 q 481 278 449 281 q 521 274 514 276 z "},"":{"ha":464,"x_min":69,"x_max":393,"o":"m 228 311 q 144 365 178 344 q 94 400 111 386 q 74 422 76 414 l 74 425 q 82 439 74 432 q 99 447 90 446 q 118 449 108 447 q 140 446 129 447 q 161 438 151 444 q 210 409 179 426 q 275 372 242 392 q 338 334 308 353 q 382 303 367 315 q 393 283 393 292 q 372 251 393 274 q 307 188 351 229 q 186 74 263 147 q 128 44 156 46 q 113 43 119 43 q 85 49 94 43 q 69 68 69 57 q 70 76 69 69 q 92 109 71 83 q 152 174 113 135 q 250 275 192 214 q 257 286 257 282 q 255 290 257 288 q 228 311 253 293 z "},"":{"ha":290,"x_min":71,"x_max":219,"o":"m 129 401 q 156 404 142 404 l 163 404 q 185 401 174 404 q 207 390 197 399 q 217 368 217 382 q 216 285 217 335 q 212 182 215 236 q 204 74 208 128 q 193 -21 200 21 q 175 -74 186 -64 q 146 -85 164 -83 l 138 -85 q 117 -81 126 -85 q 101 -65 107 -78 q 92 -31 94 -53 q 89 28 89 -8 l 89 128 l 90 128 q 92 280 90 226 q 97 359 93 333 q 109 391 101 385 q 129 401 117 397 m 186 454 q 136 443 157 443 q 103 450 122 443 q 75 476 85 457 q 71 497 71 488 q 77 525 71 508 q 110 551 83 542 q 143 558 128 558 q 176 551 157 558 q 208 524 196 543 q 219 494 219 510 q 217 476 219 489 q 186 454 215 464 z "},"":{"ha":299,"x_min":-10,"x_max":343,"o":"m 303 286 q 319 290 310 290 q 334 286 328 289 q 343 279 340 283 l 343 278 q 338 268 343 272 q 300 244 321 260 q 258 213 282 232 q 206 168 233 194 q 194 154 194 158 l 194 153 q 200 136 194 147 q 228 54 219 94 q 232 13 232 32 q 226 -27 232 -4 q 197 -72 221 -50 q 128 -99 174 -93 l 115 -99 q 72 -90 94 -99 q 35 -60 49 -82 q 22 -15 22 -42 q 24 8 22 -11 q 54 69 25 26 q 74 96 68 89 q 76 104 76 99 q 74 117 76 110 q 28 206 53 164 q -4 297 3 249 q -6 322 -6 310 q 8 376 -6 350 q 49 420 22 403 q 107 440 75 438 l 119 440 q 163 431 142 440 q 193 394 183 421 q 196 375 196 386 q 185 328 196 354 q 169 310 179 315 q 149 304 158 304 q 131 311 138 304 q 126 319 126 315 q 128 326 126 322 q 136 361 136 347 q 133 385 136 375 q 125 394 131 394 l 124 394 q 115 386 118 394 q 107 350 107 369 q 113 310 107 331 q 126 270 118 289 q 143 238 135 251 q 167 199 163 204 q 171 196 168 196 q 181 201 174 196 q 240 247 208 224 q 303 286 271 271 m 97 -37 q 101 -1 101 -18 q 99 33 100 15 q 88 0 89 17 l 88 -7 q 97 -37 88 -22 m -7 624 q -10 635 -10 629 q 3 656 -10 646 q 40 666 17 665 q 86 657 63 667 q 119 624 110 647 q 130 601 125 613 q 140 575 135 589 q 165 611 151 593 q 188 640 178 629 q 206 650 194 647 q 218 651 213 651 q 228 650 222 651 q 239 643 235 649 q 240 638 240 640 q 238 628 240 632 q 195 561 210 585 q 173 526 181 538 q 164 511 165 515 q 163 503 163 507 q 150 485 163 492 q 119 478 138 478 q 82 485 101 478 q 49 508 63 492 q 33 533 42 518 q 17 564 25 547 q 3 597 10 581 q -7 624 -3 613 z "},"":{"ha":554,"x_min":-43,"x_max":619,"o":"m 571 274 q 588 289 576 283 q 601 292 594 292 q 609 290 604 292 q 618 281 614 289 q 619 274 619 278 q 615 258 619 267 q 573 181 599 225 q 515 94 547 136 q 447 19 483 53 q 368 -24 410 -14 q 321 -29 344 -29 q 274 -23 296 -29 q 236 -3 253 -17 q 211 32 219 11 q 149 -16 185 0 q 78 -32 113 -32 q 13 -15 42 -32 q -31 39 -17 3 q -42 94 -40 64 q -43 119 -43 107 q -40 163 -43 138 q -27 220 -36 189 q -4 278 -18 251 q 9 297 3 290 q 19 307 15 303 q 27 315 24 311 q 31 329 31 319 q 36 368 31 351 q 76 417 47 400 q 125 429 100 429 q 154 426 133 429 q 207 394 175 422 q 254 311 239 367 q 310 378 276 350 q 393 415 344 406 q 413 417 403 417 q 449 406 433 417 q 467 360 467 389 q 466 341 467 358 q 439 282 465 324 q 356 199 413 240 q 338 171 339 189 q 333 107 333 133 q 338 65 333 81 q 364 35 344 35 l 365 35 q 415 56 389 35 q 469 112 442 78 q 522 188 496 146 q 571 274 549 231 m 194 150 q 204 182 200 151 q 207 215 207 197 q 203 261 207 232 q 182 328 199 290 q 128 383 165 367 q 119 385 124 385 q 90 363 100 385 q 82 319 82 344 q 85 283 82 310 q 114 215 88 257 q 194 150 140 174 m 138 42 q 150 55 143 46 q 164 74 157 64 q 178 97 171 85 q 142 115 158 106 q 111 135 126 124 q 89 157 96 146 q 88 139 88 149 q 90 111 88 129 q 99 73 92 93 q 115 43 106 53 q 126 38 121 38 q 138 42 132 38 m 411 354 q 380 312 390 336 q 363 261 369 288 q 396 303 379 283 q 411 350 411 321 l 411 354 z "},"":{"ha":1185,"x_min":-21,"x_max":1240,"o":"m 1211 286 q 1225 292 1219 292 q 1231 290 1226 292 q 1239 283 1235 289 q 1240 275 1240 279 q 1239 268 1240 274 q 1232 257 1238 263 l 1029 93 q 1013 -40 1024 25 q 980 -158 1003 -106 q 917 -244 957 -210 q 814 -285 878 -279 q 793 -286 804 -286 q 733 -276 764 -286 q 682 -242 703 -265 q 658 -185 661 -218 q 657 -172 657 -179 q 674 -108 657 -144 q 736 -28 692 -72 q 857 60 781 15 q 890 88 879 72 q 900 129 900 103 q 902 196 900 153 q 907 285 904 239 q 912 369 910 331 q 914 421 914 407 l 911 422 q 851 271 879 343 q 790 144 824 199 q 715 56 757 89 q 610 22 672 22 q 525 45 560 22 q 469 108 490 68 q 437 199 447 147 q 422 308 426 251 q 419 378 419 343 q 421 440 419 400 q 425 532 422 481 q 419 533 421 533 q 415 533 418 533 q 410 529 413 532 q 309 483 368 506 q 194 428 250 460 q 95 353 139 397 q 42 240 51 308 q 39 204 39 222 q 53 131 39 169 q 111 57 67 93 q 167 33 143 33 q 200 44 179 33 q 236 103 221 56 q 249 203 249 144 q 248 243 249 208 q 231 335 247 278 q 229 342 229 339 q 242 363 229 354 q 274 372 254 371 q 316 362 294 372 q 347 328 338 351 q 372 205 371 265 q 344 82 372 144 q 297 23 328 44 q 226 -6 265 1 q 188 -10 207 -10 q 137 -4 168 -10 q 71 23 106 1 q 12 80 36 44 q -18 165 -12 115 q -21 203 -21 185 q -6 284 -21 243 q 42 363 8 325 q 122 428 76 400 q 219 481 168 457 q 320 527 269 506 q 414 572 371 549 q 426 593 424 578 q 434 697 429 640 q 453 802 439 753 q 493 883 467 851 q 560 914 518 914 l 564 914 q 611 884 592 913 q 636 815 631 856 q 638 794 638 806 q 626 723 638 763 q 581 649 615 683 q 562 631 568 636 q 554 622 556 626 q 553 614 553 618 l 553 474 q 553 416 553 451 q 556 331 553 381 q 565 235 558 281 q 582 151 571 189 q 611 89 593 113 q 626 76 619 78 q 631 75 628 75 q 644 81 636 75 q 711 140 681 99 q 773 244 742 181 q 838 396 804 308 q 914 596 872 483 q 926 651 924 622 q 931 714 928 679 q 954 751 933 744 q 976 756 965 756 q 1001 751 989 756 q 1026 728 1021 747 q 1039 651 1035 700 q 1044 543 1043 603 q 1042 420 1044 483 q 1038 301 1040 357 q 1034 206 1036 246 q 1032 150 1032 165 q 1135 226 1090 186 q 1211 286 1179 265 m 569 847 q 558 771 561 808 q 556 725 556 749 q 557 693 556 710 q 583 782 583 736 q 569 847 583 814 m 797 -228 q 842 -166 824 -206 q 870 -87 860 -126 q 885 -15 881 -47 q 889 26 889 18 q 861 13 882 26 q 816 -21 840 0 q 770 -69 792 -42 q 740 -124 749 -96 q 735 -158 735 -143 q 741 -190 735 -172 q 769 -228 747 -208 q 783 -233 776 -233 q 797 -228 790 -233 m 722 882 q 742 879 729 879 q 767 877 754 879 q 789 869 779 875 q 801 849 799 863 q 803 835 803 842 q 791 801 803 815 q 760 782 779 788 q 736 779 747 779 q 710 781 726 779 q 679 793 693 783 q 660 822 663 804 q 658 832 658 826 q 665 856 658 843 q 688 878 671 868 q 710 883 697 883 q 722 882 715 883 m 939 876 q 969 863 960 872 q 980 841 979 853 q 973 818 981 829 q 951 799 965 807 q 924 790 938 792 q 894 786 910 788 q 835 810 849 792 q 822 836 822 822 q 825 851 822 840 q 846 874 828 861 q 874 883 858 883 q 883 882 878 883 q 911 879 897 879 q 939 876 925 879 z "},"":{"ha":640,"x_min":71,"x_max":571,"o":"m 236 174 q 319 119 286 140 q 370 85 353 99 q 390 63 388 71 l 390 60 q 382 46 390 53 q 365 38 374 39 q 346 36 356 38 q 324 39 335 38 q 303 47 313 40 q 253 75 285 57 q 189 113 222 93 q 126 151 156 132 q 82 182 96 169 q 71 201 71 192 q 92 233 71 211 q 157 297 113 256 q 278 411 201 338 q 338 442 308 439 l 346 442 q 379 436 368 442 q 394 417 394 428 l 394 410 q 372 376 393 401 q 312 310 351 350 q 214 210 272 269 q 207 200 207 204 q 209 195 207 199 q 236 174 211 192 m 413 174 q 496 119 463 140 q 547 85 529 99 q 567 63 564 71 l 567 60 q 558 46 567 53 q 541 38 550 39 q 522 36 532 38 q 500 39 511 38 q 479 47 489 40 q 430 75 461 57 q 365 113 399 93 q 302 151 332 132 q 258 182 272 169 q 247 201 247 192 q 268 233 247 211 q 333 297 289 256 q 454 411 378 338 q 514 442 485 439 l 522 442 q 556 436 544 442 q 571 417 571 428 l 571 410 q 549 376 569 401 q 488 310 528 350 q 390 210 449 269 q 383 200 383 204 q 385 195 383 199 q 413 174 388 192 z "},"":{"ha":640,"x_min":69,"x_max":569,"o":"m 404 311 q 321 365 354 344 q 270 400 288 386 q 250 422 253 414 l 250 425 q 258 439 250 432 q 276 447 267 446 q 294 449 285 447 q 317 446 306 447 q 338 438 328 444 q 387 409 356 426 q 451 372 418 392 q 514 334 485 353 q 558 303 543 315 q 569 283 569 292 q 549 251 569 274 q 483 188 528 229 q 363 74 439 147 q 304 44 332 46 q 289 43 296 43 q 261 49 271 43 q 246 68 246 57 q 247 76 246 69 q 268 109 247 83 q 328 174 289 135 q 426 275 368 214 q 433 286 433 282 q 431 290 433 288 q 404 311 429 293 m 228 311 q 144 365 178 344 q 94 400 111 386 q 74 422 76 414 l 74 425 q 82 439 74 432 q 99 447 90 446 q 118 449 108 447 q 140 446 129 447 q 161 438 151 444 q 210 409 179 426 q 275 372 242 392 q 338 334 308 353 q 382 303 367 315 q 393 283 393 292 q 372 251 393 274 q 307 188 351 229 q 186 74 263 147 q 128 44 156 46 q 113 43 119 43 q 85 49 94 43 q 69 68 69 57 q 70 76 69 69 q 92 109 71 83 q 152 174 113 135 q 250 275 192 214 q 257 286 257 282 q 255 290 257 288 q 228 311 253 293 z "},"":{"ha":560,"x_min":69,"x_max":492,"o":"m 468 274 q 492 253 492 265 q 487 240 492 250 q 458 225 482 229 q 363 218 410 219 l 317 218 q 263 218 294 218 q 197 220 232 218 q 139 222 163 222 l 132 222 q 106 226 119 222 q 81 238 92 231 q 69 254 71 244 l 69 256 q 81 269 69 264 q 117 276 88 274 q 188 281 147 279 q 276 282 229 282 q 363 281 322 282 q 432 278 403 281 q 468 274 461 276 z "},"":{"ha":560,"x_min":69,"x_max":492,"o":"m 468 51 q 492 31 492 43 q 487 17 492 28 q 458 3 482 7 q 363 -4 410 -3 l 317 -4 q 263 -4 294 -4 q 197 -2 232 -4 q 139 0 163 0 l 132 0 q 106 4 119 0 q 81 15 92 8 q 69 32 71 22 l 69 33 q 81 47 69 42 q 117 54 88 51 q 188 58 147 57 q 276 60 229 60 q 363 59 322 60 q 432 56 403 58 q 468 51 461 54 m 386 346 q 397 347 392 347 q 415 344 406 347 q 425 333 425 340 q 406 319 425 325 q 339 311 388 313 q 325 310 329 311 q 319 296 321 308 q 317 253 317 283 q 315 167 317 224 q 309 122 315 143 q 279 96 303 101 q 260 93 269 93 q 231 103 244 93 q 210 140 218 114 q 201 199 203 165 q 200 269 200 233 q 199 302 199 297 q 183 308 199 307 q 158 310 171 308 q 135 313 146 311 q 110 326 110 314 q 117 336 110 333 q 134 340 124 339 q 156 340 144 340 q 179 339 168 339 q 196 341 192 339 q 201 355 200 343 q 202 390 201 367 q 208 457 203 414 q 213 481 210 469 q 224 499 217 492 q 246 510 232 507 q 258 511 251 511 q 283 508 269 511 q 310 497 303 506 q 319 469 318 489 q 320 440 321 454 q 319 413 319 426 l 321 413 q 321 356 321 368 q 333 343 321 343 q 361 344 347 344 l 369 344 q 386 346 378 344 z "},"":{"ha":429,"x_min":71,"x_max":358,"o":"m 226 -110 q 186 -115 208 -115 q 165 -115 181 -115 q 124 -102 149 -114 q 85 -68 100 -90 q 71 -17 71 -47 l 71 -11 q 74 24 71 7 q 84 61 78 40 q 99 110 90 82 q 121 178 108 139 q 143 270 138 232 q 155 333 149 308 q 176 368 161 357 q 226 379 190 379 q 281 325 281 378 l 281 322 q 263 218 276 269 q 231 118 250 167 q 212 72 222 97 q 192 23 201 47 q 176 -23 183 -1 q 169 -57 169 -44 q 178 -81 169 -74 q 194 -85 185 -85 q 203 -83 196 -85 q 225 -74 211 -82 q 251 -53 239 -65 q 278 -19 265 -39 q 299 20 292 0 q 306 57 306 40 q 293 83 306 75 q 289 92 289 86 q 290 98 289 93 q 297 107 290 103 q 317 113 306 113 q 335 110 322 113 q 353 92 347 107 q 358 57 358 76 q 356 28 358 47 q 337 -21 353 8 q 293 -74 321 -50 q 226 -110 265 -97 m 161 418 q 136 449 139 428 l 136 457 q 147 492 136 475 q 183 519 158 510 q 210 525 196 525 q 246 518 226 525 q 272 499 263 513 q 282 469 282 486 l 282 464 q 276 438 282 451 q 253 414 269 424 q 213 401 231 401 q 192 406 206 401 q 161 418 179 410 z "},"":{"ha":954,"x_min":0,"x_max":1006,"o":"m 997 -261 q 1006 -283 1006 -267 q 1005 -298 1006 -286 q 994 -328 1004 -310 q 965 -354 983 -347 q 954 -357 960 -357 q 925 -342 940 -357 q 855 -248 883 -304 q 808 -133 826 -192 q 779 -17 789 -74 q 767 79 769 39 q 708 113 746 99 q 625 133 671 126 q 564 138 594 138 q 515 135 547 138 q 442 115 483 132 q 424 103 429 111 q 417 81 419 96 q 388 -91 403 -18 q 351 -215 372 -164 q 302 -294 331 -265 q 232 -332 274 -324 q 186 -337 207 -337 q 105 -313 144 -337 q 38 -237 65 -289 q 3 -121 10 -185 q 0 -81 0 -100 q 12 5 0 -40 q 57 83 24 50 q 119 108 82 108 q 143 106 131 108 q 176 89 164 101 q 194 58 188 76 q 202 15 200 39 q 206 -35 204 -10 q 199 -51 206 -46 q 185 -58 193 -57 q 176 -60 181 -60 q 167 -58 174 -60 q 157 -53 161 -57 q 153 -44 153 -49 q 153 -35 153 -40 q 151 1 153 -21 q 144 41 149 22 q 133 72 140 60 q 121 79 128 79 q 113 76 117 79 q 68 14 83 60 q 56 -65 56 -24 q 58 -111 56 -76 q 86 -199 61 -146 q 161 -282 111 -253 q 181 -289 174 -289 q 199 -279 188 -289 q 254 -199 233 -251 q 287 -78 275 -147 q 305 74 299 -8 q 319 242 311 156 q 338 414 326 328 q 373 579 350 500 q 433 725 396 658 q 528 838 469 792 q 583 867 553 857 q 644 878 613 878 q 706 870 675 879 q 761 840 736 861 q 817 756 796 813 q 849 623 838 699 q 866 459 861 547 q 875 280 871 371 q 885 101 879 189 q 903 -59 890 14 q 938 -185 917 -132 q 997 -261 960 -239 m 769 125 q 766 213 767 157 q 765 336 765 269 q 762 476 764 403 q 753 614 760 549 q 735 732 747 679 q 704 813 724 785 q 667 838 689 835 l 658 838 q 618 828 639 838 q 540 748 572 804 q 486 619 508 692 q 451 469 464 547 q 431 322 438 390 q 422 207 424 254 q 421 160 421 175 l 421 149 q 464 160 429 153 q 547 171 499 168 l 561 171 q 658 163 604 171 q 769 125 713 154 m 565 1068 q 578 1069 571 1069 q 597 1066 586 1069 q 620 1049 607 1063 q 647 1011 633 1036 q 681 946 661 986 q 686 925 686 935 q 653 900 686 903 l 646 900 q 615 906 628 900 q 590 932 601 913 q 547 1031 558 996 q 543 1047 543 1040 q 565 1068 543 1065 z "},"":{"ha":954,"x_min":0,"x_max":1006,"o":"m 997 -261 q 1006 -283 1006 -267 q 1005 -298 1006 -286 q 994 -328 1004 -310 q 965 -354 983 -347 q 954 -357 960 -357 q 925 -342 940 -357 q 855 -248 883 -304 q 808 -133 826 -192 q 779 -17 789 -74 q 767 79 769 39 q 708 113 746 99 q 625 133 671 126 q 564 138 594 138 q 515 135 547 138 q 442 115 483 132 q 424 103 429 111 q 417 81 419 96 q 388 -91 403 -18 q 351 -215 372 -164 q 302 -294 331 -265 q 232 -332 274 -324 q 186 -337 207 -337 q 105 -313 144 -337 q 38 -237 65 -289 q 3 -121 10 -185 q 0 -81 0 -100 q 12 5 0 -40 q 57 83 24 50 q 119 108 82 108 q 143 106 131 108 q 176 89 164 101 q 194 58 188 76 q 202 15 200 39 q 206 -35 204 -10 q 199 -51 206 -46 q 185 -58 193 -57 q 176 -60 181 -60 q 167 -58 174 -60 q 157 -53 161 -57 q 153 -44 153 -49 q 153 -35 153 -40 q 151 1 153 -21 q 144 41 149 22 q 133 72 140 60 q 121 79 128 79 q 113 76 117 79 q 68 14 83 60 q 56 -65 56 -24 q 58 -111 56 -76 q 86 -199 61 -146 q 161 -282 111 -253 q 181 -289 174 -289 q 199 -279 188 -289 q 254 -199 233 -251 q 287 -78 275 -147 q 305 74 299 -8 q 319 242 311 156 q 338 414 326 328 q 373 579 350 500 q 433 725 396 658 q 528 838 469 792 q 583 867 553 857 q 644 878 613 878 q 706 870 675 879 q 761 840 736 861 q 817 756 796 813 q 849 623 838 699 q 866 459 861 547 q 875 280 871 371 q 885 101 879 189 q 903 -59 890 14 q 938 -185 917 -132 q 997 -261 960 -239 m 769 125 q 766 213 767 157 q 765 336 765 269 q 762 476 764 403 q 753 614 760 549 q 735 732 747 679 q 704 813 724 785 q 667 838 689 835 l 658 838 q 618 828 639 838 q 540 748 572 804 q 486 619 508 692 q 451 469 464 547 q 431 322 438 390 q 422 207 424 254 q 421 160 421 175 l 421 149 q 464 160 429 153 q 547 171 499 168 l 561 171 q 658 163 604 171 q 769 125 713 154 m 690 1071 q 713 1049 713 1068 q 705 1020 713 1042 q 665 935 697 999 q 640 908 654 915 q 610 903 628 903 l 603 903 q 569 928 569 906 q 575 949 569 938 q 608 1014 593 989 q 635 1052 622 1039 q 663 1069 649 1065 q 679 1072 669 1072 q 690 1071 685 1072 z "},"":{"ha":954,"x_min":0,"x_max":1006,"o":"m 997 -261 q 1006 -283 1006 -267 q 1005 -298 1006 -286 q 994 -328 1004 -310 q 965 -354 983 -347 q 954 -357 960 -357 q 925 -342 940 -357 q 855 -248 883 -304 q 808 -133 826 -192 q 779 -17 789 -74 q 767 79 769 39 q 708 113 746 99 q 625 133 671 126 q 564 138 594 138 q 515 135 547 138 q 442 115 483 132 q 424 103 429 111 q 417 81 419 96 q 388 -91 403 -18 q 351 -215 372 -164 q 302 -294 331 -265 q 232 -332 274 -324 q 186 -337 207 -337 q 105 -313 144 -337 q 38 -237 65 -289 q 3 -121 10 -185 q 0 -81 0 -100 q 12 5 0 -40 q 57 83 24 50 q 119 108 82 108 q 143 106 131 108 q 176 89 164 101 q 194 58 188 76 q 202 15 200 39 q 206 -35 204 -10 q 199 -51 206 -46 q 185 -58 193 -57 q 176 -60 181 -60 q 167 -58 174 -60 q 157 -53 161 -57 q 153 -44 153 -49 q 153 -35 153 -40 q 151 1 153 -21 q 144 41 149 22 q 133 72 140 60 q 121 79 128 79 q 113 76 117 79 q 68 14 83 60 q 56 -65 56 -24 q 58 -111 56 -76 q 86 -199 61 -146 q 161 -282 111 -253 q 181 -289 174 -289 q 199 -279 188 -289 q 254 -199 233 -251 q 287 -78 275 -147 q 305 74 299 -8 q 319 242 311 156 q 338 414 326 328 q 373 579 350 500 q 433 725 396 658 q 528 838 469 792 q 583 867 553 857 q 644 878 613 878 q 706 870 675 879 q 761 840 736 861 q 817 756 796 813 q 849 623 838 699 q 866 459 861 547 q 875 280 871 371 q 885 101 879 189 q 903 -59 890 14 q 938 -185 917 -132 q 997 -261 960 -239 m 769 125 q 766 213 767 157 q 765 336 765 269 q 762 476 764 403 q 753 614 760 549 q 735 732 747 679 q 704 813 724 785 q 667 838 689 835 l 658 838 q 618 828 639 838 q 540 748 572 804 q 486 619 508 692 q 451 469 464 547 q 431 322 438 390 q 422 207 424 254 q 421 160 421 175 l 421 149 q 464 160 429 153 q 547 171 499 168 l 561 171 q 658 163 604 171 q 769 125 713 154 m 765 953 q 767 942 767 947 q 754 921 767 931 q 719 911 742 911 l 714 911 q 671 920 693 911 q 639 953 649 929 q 628 976 633 964 q 618 1001 624 988 q 594 965 607 983 q 571 936 581 947 q 554 926 564 929 q 543 925 549 925 q 531 926 539 925 q 519 935 524 928 q 518 940 518 938 q 521 949 518 944 q 563 1015 547 992 q 585 1050 578 1039 q 594 1065 593 1061 q 596 1074 596 1069 q 608 1092 596 1085 q 639 1099 621 1099 q 676 1092 657 1099 q 710 1068 696 1085 q 725 1044 717 1058 q 741 1013 733 1029 q 755 980 749 996 q 765 953 761 964 z "},"":{"ha":954,"x_min":0,"x_max":1006,"o":"m 997 -261 q 1006 -283 1006 -267 q 1005 -298 1006 -286 q 994 -328 1004 -310 q 965 -354 983 -347 q 954 -357 960 -357 q 925 -342 940 -357 q 855 -248 883 -304 q 808 -133 826 -192 q 779 -17 789 -74 q 767 79 769 39 q 708 113 746 99 q 625 133 671 126 q 564 138 594 138 q 515 135 547 138 q 442 115 483 132 q 424 103 429 111 q 417 81 419 96 q 388 -91 403 -18 q 351 -215 372 -164 q 302 -294 331 -265 q 232 -332 274 -324 q 186 -337 207 -337 q 105 -313 144 -337 q 38 -237 65 -289 q 3 -121 10 -185 q 0 -81 0 -100 q 12 5 0 -40 q 57 83 24 50 q 119 108 82 108 q 143 106 131 108 q 176 89 164 101 q 194 58 188 76 q 202 15 200 39 q 206 -35 204 -10 q 199 -51 206 -46 q 185 -58 193 -57 q 176 -60 181 -60 q 167 -58 174 -60 q 157 -53 161 -57 q 153 -44 153 -49 q 153 -35 153 -40 q 151 1 153 -21 q 144 41 149 22 q 133 72 140 60 q 121 79 128 79 q 113 76 117 79 q 68 14 83 60 q 56 -65 56 -24 q 58 -111 56 -76 q 86 -199 61 -146 q 161 -282 111 -253 q 181 -289 174 -289 q 199 -279 188 -289 q 254 -199 233 -251 q 287 -78 275 -147 q 305 74 299 -8 q 319 242 311 156 q 338 414 326 328 q 373 579 350 500 q 433 725 396 658 q 528 838 469 792 q 583 867 553 857 q 644 878 613 878 q 706 870 675 879 q 761 840 736 861 q 817 756 796 813 q 849 623 838 699 q 866 459 861 547 q 875 280 871 371 q 885 101 879 189 q 903 -59 890 14 q 938 -185 917 -132 q 997 -261 960 -239 m 769 125 q 766 213 767 157 q 765 336 765 269 q 762 476 764 403 q 753 614 760 549 q 735 732 747 679 q 704 813 724 785 q 667 838 689 835 l 658 838 q 618 828 639 838 q 540 748 572 804 q 486 619 508 692 q 451 469 464 547 q 431 322 438 390 q 422 207 424 254 q 421 160 421 175 l 421 149 q 464 160 429 153 q 547 171 499 168 l 561 171 q 658 163 604 171 q 769 125 713 154 m 736 1029 q 750 1031 743 1031 q 773 1026 760 1031 q 799 1010 786 1022 q 817 983 811 999 q 818 975 818 979 q 810 951 818 964 q 771 915 794 928 q 721 901 747 901 l 715 901 q 664 913 690 901 q 615 951 638 924 q 593 981 600 971 q 589 983 590 983 q 578 971 583 983 q 574 954 574 961 q 576 943 574 950 q 586 931 579 936 q 600 921 593 925 q 607 913 607 917 q 594 900 607 904 q 582 899 589 899 q 563 901 575 899 q 535 914 550 903 q 518 949 521 925 l 518 958 q 529 997 518 979 q 564 1024 540 1015 q 597 1029 579 1029 q 626 1026 607 1029 q 676 1000 646 1022 q 707 974 696 985 q 725 957 718 963 q 733 953 729 953 q 738 953 735 953 q 747 963 740 953 q 754 981 754 972 q 733 1008 754 996 q 725 1018 725 1013 q 726 1023 725 1019 q 736 1029 726 1026 z "},"":{"ha":954,"x_min":0,"x_max":1006,"o":"m 997 -261 q 1006 -283 1006 -267 q 1005 -298 1006 -286 q 994 -328 1004 -310 q 965 -354 983 -347 q 954 -357 960 -357 q 925 -342 940 -357 q 855 -248 883 -304 q 808 -133 826 -192 q 779 -17 789 -74 q 767 79 769 39 q 708 113 746 99 q 625 133 671 126 q 564 138 594 138 q 515 135 547 138 q 442 115 483 132 q 424 103 429 111 q 417 81 419 96 q 388 -91 403 -18 q 351 -215 372 -164 q 302 -294 331 -265 q 232 -332 274 -324 q 186 -337 207 -337 q 105 -313 144 -337 q 38 -237 65 -289 q 3 -121 10 -185 q 0 -81 0 -100 q 12 5 0 -40 q 57 83 24 50 q 119 108 82 108 q 143 106 131 108 q 176 89 164 101 q 194 58 188 76 q 202 15 200 39 q 206 -35 204 -10 q 199 -51 206 -46 q 185 -58 193 -57 q 176 -60 181 -60 q 167 -58 174 -60 q 157 -53 161 -57 q 153 -44 153 -49 q 153 -35 153 -40 q 151 1 153 -21 q 144 41 149 22 q 133 72 140 60 q 121 79 128 79 q 113 76 117 79 q 68 14 83 60 q 56 -65 56 -24 q 58 -111 56 -76 q 86 -199 61 -146 q 161 -282 111 -253 q 181 -289 174 -289 q 199 -279 188 -289 q 254 -199 233 -251 q 287 -78 275 -147 q 305 74 299 -8 q 319 242 311 156 q 338 414 326 328 q 373 579 350 500 q 433 725 396 658 q 528 838 469 792 q 583 867 553 857 q 644 878 613 878 q 706 870 675 879 q 761 840 736 861 q 817 756 796 813 q 849 623 838 699 q 866 459 861 547 q 875 280 871 371 q 885 101 879 189 q 903 -59 890 14 q 938 -185 917 -132 q 997 -261 960 -239 m 769 125 q 766 213 767 157 q 765 336 765 269 q 762 476 764 403 q 753 614 760 549 q 735 732 747 679 q 704 813 724 785 q 667 838 689 835 l 658 838 q 618 828 639 838 q 540 748 572 804 q 486 619 508 692 q 451 469 464 547 q 431 322 438 390 q 422 207 424 254 q 421 160 421 175 l 421 149 q 464 160 429 153 q 547 171 499 168 l 561 171 q 658 163 604 171 q 769 125 713 154 m 546 1010 q 565 1007 553 1007 q 590 1005 578 1007 q 613 997 603 1003 q 625 976 622 990 q 626 963 626 969 q 615 929 626 943 q 583 910 603 915 q 560 907 571 907 q 533 909 550 907 q 503 921 517 911 q 483 950 486 932 q 482 960 482 954 q 488 983 482 971 q 511 1006 494 996 q 533 1011 521 1011 q 546 1010 539 1011 m 763 1004 q 793 990 783 1000 q 803 969 803 981 q 797 946 804 957 q 775 926 789 935 q 747 917 761 919 q 718 914 733 915 q 658 938 672 919 q 646 964 646 950 q 649 978 646 968 q 669 1001 651 989 q 697 1011 682 1011 q 707 1010 701 1011 q 735 1007 721 1007 q 763 1004 749 1007 z "},"":{"ha":954,"x_min":0,"x_max":1006,"o":"m 997 -261 q 1006 -283 1006 -267 q 1005 -298 1006 -286 q 994 -328 1004 -310 q 965 -354 983 -347 q 954 -357 960 -357 q 925 -342 940 -357 q 855 -248 883 -304 q 808 -133 826 -192 q 779 -17 789 -74 q 767 79 769 39 q 708 113 746 99 q 625 133 671 126 q 564 138 594 138 q 515 135 547 138 q 442 115 483 132 q 424 103 429 111 q 417 81 419 96 q 388 -91 403 -18 q 351 -215 372 -164 q 302 -294 331 -265 q 232 -332 274 -324 q 186 -337 207 -337 q 105 -313 144 -337 q 38 -237 65 -289 q 3 -121 10 -185 q 0 -81 0 -100 q 12 5 0 -40 q 57 83 24 50 q 119 108 82 108 q 143 106 131 108 q 176 89 164 101 q 194 58 188 76 q 202 15 200 39 q 206 -35 204 -10 q 199 -51 206 -46 q 185 -58 193 -57 q 176 -60 181 -60 q 167 -58 174 -60 q 157 -53 161 -57 q 153 -44 153 -49 q 153 -35 153 -40 q 151 1 153 -21 q 144 41 149 22 q 133 72 140 60 q 121 79 128 79 q 113 76 117 79 q 68 14 83 60 q 56 -65 56 -24 q 58 -111 56 -76 q 86 -199 61 -146 q 161 -282 111 -253 q 181 -289 174 -289 q 199 -279 188 -289 q 254 -199 233 -251 q 287 -78 275 -147 q 305 74 299 -8 q 319 242 311 156 q 338 414 326 328 q 373 579 350 500 q 433 725 396 658 q 528 838 469 792 q 583 867 553 857 q 644 878 613 878 q 706 870 675 879 q 761 840 736 861 q 817 756 796 813 q 849 623 838 699 q 866 459 861 547 q 875 280 871 371 q 885 101 879 189 q 903 -59 890 14 q 938 -185 917 -132 q 997 -261 960 -239 m 769 125 q 766 213 767 157 q 765 336 765 269 q 762 476 764 403 q 753 614 760 549 q 735 732 747 679 q 704 813 724 785 q 667 838 689 835 l 658 838 q 618 828 639 838 q 540 748 572 804 q 486 619 508 692 q 451 469 464 547 q 431 322 438 390 q 422 207 424 254 q 421 160 421 175 l 421 149 q 464 160 429 153 q 547 171 499 168 l 561 171 q 658 163 604 171 q 769 125 713 154 m 683 1069 q 729 1038 714 1061 q 742 993 742 1017 q 741 977 742 992 q 723 941 740 963 q 671 915 706 919 q 651 914 661 914 q 599 925 622 914 q 565 957 575 936 q 558 985 558 969 q 563 1013 558 994 q 590 1057 567 1032 q 628 1076 606 1074 l 633 1076 q 683 1069 654 1076 m 656 965 q 663 961 658 961 q 670 965 665 961 q 679 983 675 969 q 681 1001 681 992 q 679 1017 681 1007 q 665 1036 678 1028 q 658 1040 661 1040 q 653 1033 656 1040 q 646 999 646 1017 q 656 965 646 981 z "},"":{"ha":1350,"x_min":0,"x_max":1433,"o":"m 1375 275 q 1390 290 1379 285 q 1411 297 1400 296 q 1429 292 1422 297 q 1433 282 1433 289 q 1432 274 1433 278 q 1408 212 1425 253 q 1369 125 1390 171 q 1326 36 1347 79 q 1293 -29 1306 -7 q 1243 -108 1272 -69 q 1178 -178 1214 -147 q 1101 -230 1143 -210 q 1008 -253 1058 -250 l 989 -253 q 888 -230 932 -253 q 815 -163 843 -207 q 775 -61 786 -119 q 768 18 768 -22 q 769 60 768 39 l 767 79 q 708 113 746 99 q 625 133 671 126 q 564 138 594 138 q 515 135 547 138 q 442 115 483 132 q 424 103 429 111 q 417 81 419 96 q 388 -91 403 -18 q 351 -215 372 -164 q 302 -294 331 -265 q 232 -332 274 -324 q 186 -337 207 -337 q 105 -313 144 -337 q 38 -237 65 -289 q 3 -121 10 -185 q 0 -81 0 -100 q 12 5 0 -40 q 57 83 24 50 q 119 108 82 108 q 143 106 131 108 q 176 89 164 101 q 194 58 188 76 q 202 15 200 39 q 206 -35 204 -10 q 199 -51 206 -46 q 185 -58 193 -57 q 176 -60 181 -60 q 167 -58 174 -60 q 157 -53 161 -57 q 153 -44 153 -49 q 153 -35 153 -40 q 151 1 153 -21 q 144 41 149 22 q 133 72 140 60 q 121 79 128 79 q 113 76 117 79 q 68 14 83 60 q 56 -65 56 -24 q 58 -111 56 -76 q 86 -199 61 -146 q 161 -282 111 -253 q 181 -289 174 -289 q 199 -279 188 -289 q 254 -199 233 -251 q 287 -78 275 -147 q 305 74 299 -8 q 319 242 311 156 q 338 414 326 328 q 373 579 350 500 q 433 725 396 658 q 528 838 469 792 q 583 867 553 857 q 644 878 613 878 q 706 870 675 879 q 761 840 736 861 q 813 764 793 815 q 845 645 833 713 q 863 498 857 578 q 874 335 869 418 q 954 404 911 381 q 961 415 961 408 q 960 422 961 418 q 919 568 919 489 q 928 644 919 606 q 989 778 946 726 q 1083 854 1032 829 q 1185 879 1133 879 q 1269 857 1236 879 q 1304 797 1300 836 l 1304 789 q 1281 713 1304 753 q 1205 638 1258 674 q 1068 588 1151 601 q 1051 582 1053 585 q 1049 565 1049 579 l 1049 557 q 1058 495 1049 525 q 1078 442 1068 465 q 1088 403 1088 418 q 1068 383 1089 389 q 1010 342 1039 376 q 958 258 982 308 q 919 147 935 208 q 903 26 904 86 l 903 8 q 916 -94 903 -43 q 967 -181 929 -144 q 1015 -203 989 -203 q 1049 -194 1031 -203 q 1219 -37 1143 -154 q 1375 275 1296 81 m 769 125 q 766 213 767 157 q 765 336 765 269 q 762 476 764 403 q 753 614 760 549 q 735 732 747 679 q 704 813 724 785 q 667 838 689 835 l 658 838 q 618 828 639 838 q 540 748 572 804 q 486 619 508 692 q 451 469 464 547 q 431 322 438 390 q 422 207 424 254 q 421 160 421 175 l 421 149 q 464 160 429 153 q 547 171 499 168 l 561 171 q 658 163 604 171 q 769 125 713 154 m 1058 633 l 1058 628 q 1068 617 1058 617 l 1075 618 q 1167 657 1132 632 q 1222 709 1203 682 q 1244 764 1240 736 q 1246 778 1246 771 q 1239 811 1246 796 q 1215 832 1232 826 q 1206 833 1211 833 q 1175 822 1192 833 q 1103 751 1136 799 q 1058 633 1071 703 z "},"":{"ha":849,"x_min":0,"x_max":914,"o":"m 600 -300 q 629 -360 629 -331 q 625 -385 629 -365 q 590 -422 621 -404 q 529 -437 564 -437 q 493 -435 521 -437 q 421 -394 465 -432 q 413 -381 413 -387 q 415 -374 413 -379 q 429 -367 417 -369 q 440 -365 436 -365 q 451 -367 446 -365 q 463 -372 457 -368 q 476 -382 469 -376 q 494 -393 483 -387 q 508 -397 501 -397 q 522 -391 514 -397 q 535 -368 529 -385 q 538 -343 538 -357 q 537 -326 538 -337 q 526 -303 536 -315 q 511 -296 519 -296 q 502 -297 510 -296 q 483 -299 494 -299 q 462 -288 471 -299 q 450 -240 453 -278 q 449 -217 449 -226 l 449 -200 q 340 -135 388 -187 q 268 4 292 -82 q 249 169 249 76 q 251 251 249 186 q 294 451 253 317 q 300 476 300 471 l 300 478 q 288 479 299 479 l 274 479 q 185 474 224 476 q 119 463 146 472 q 76 431 92 453 q 56 367 61 410 l 56 358 q 57 335 56 349 q 63 309 58 322 q 77 285 68 296 q 97 274 86 275 q 107 265 104 272 l 107 264 q 97 253 107 258 q 78 247 89 247 q 64 249 74 247 q 40 261 54 250 q 16 290 26 272 q 3 332 6 308 q 0 365 0 350 q 17 434 0 404 q 76 481 35 464 q 174 503 117 499 q 293 510 231 508 q 325 532 315 510 q 397 671 354 604 q 491 786 440 738 q 597 858 542 835 q 667 874 632 874 q 707 868 688 874 q 760 833 742 858 q 778 772 778 807 q 760 698 778 738 q 703 621 742 658 q 605 553 664 583 q 465 506 546 522 q 436 479 443 500 q 419 420 429 458 q 400 333 410 382 q 383 229 390 285 q 374 119 375 174 l 374 101 q 379 12 374 57 q 402 -69 385 -33 q 450 -125 419 -106 q 511 -142 475 -142 q 528 -140 519 -142 q 588 -115 556 -137 q 651 -56 619 -92 q 713 25 682 -19 q 772 116 744 69 q 824 206 800 163 q 865 283 847 250 q 881 296 871 293 l 888 296 q 901 293 893 296 q 913 282 908 290 q 914 274 914 278 q 911 263 914 269 q 822 103 865 181 q 731 -38 778 25 q 633 -144 683 -101 q 525 -199 583 -186 q 526 -201 525 -200 q 526 -203 526 -201 q 531 -231 531 -217 q 529 -246 531 -237 q 528 -256 528 -251 q 531 -265 528 -262 q 544 -269 535 -267 q 569 -276 554 -271 q 600 -300 583 -282 m 710 814 q 681 835 697 835 q 662 830 676 835 q 620 799 647 825 q 565 732 593 772 q 515 653 538 692 q 478 583 493 614 q 461 540 463 551 q 465 538 463 538 q 469 539 467 538 q 608 599 554 563 q 689 676 661 636 q 721 753 717 715 l 721 764 q 710 814 721 793 z "},"":{"ha":732,"x_min":0,"x_max":819,"o":"m 761 272 q 776 288 765 282 q 797 294 786 293 q 815 289 808 294 q 819 279 819 286 q 818 271 819 275 q 794 209 811 250 q 755 122 776 168 q 713 33 733 76 q 679 -32 692 -10 q 629 -111 658 -72 q 565 -181 600 -150 q 487 -233 529 -212 q 394 -256 444 -253 l 374 -256 q 253 -220 303 -256 q 178 -122 203 -185 q 154 10 154 -62 q 154 55 154 14 q 176 170 154 96 q 241 307 199 244 q 340 401 283 369 q 347 413 347 406 q 346 419 347 415 q 311 496 322 458 q 303 554 303 522 q 304 578 303 565 q 294 593 304 592 q 240 607 267 600 q 193 613 217 613 l 183 613 q 108 584 139 610 q 64 524 76 558 q 57 483 57 503 q 64 441 57 467 q 108 394 71 415 q 117 392 113 392 q 131 397 124 392 q 156 430 149 414 q 165 458 163 446 q 173 478 168 471 q 193 488 178 486 l 197 488 q 219 479 213 488 q 224 464 224 474 q 222 453 224 460 q 176 379 211 406 q 122 361 153 361 q 88 367 106 361 q 14 422 35 382 q 0 479 0 450 q 6 524 0 494 q 50 591 11 553 q 156 639 89 629 q 199 643 178 643 q 238 639 214 643 q 293 628 263 635 q 306 626 301 626 q 309 627 307 626 q 314 642 311 628 q 375 775 332 724 q 469 851 418 826 q 572 876 521 876 q 656 854 622 876 q 690 794 686 833 l 690 786 q 667 710 690 750 q 591 635 644 671 q 454 585 538 599 q 437 579 439 582 q 435 563 435 576 l 435 554 q 444 492 435 522 q 464 439 454 463 q 474 401 474 415 q 454 381 475 386 q 397 340 425 374 q 344 256 368 306 q 306 144 321 206 q 289 24 290 83 l 289 6 q 302 -97 289 -46 q 353 -183 315 -147 q 401 -206 375 -206 q 435 -197 417 -206 q 606 -40 529 -157 q 761 272 682 78 m 444 631 l 444 625 q 454 614 444 614 l 461 615 q 553 654 518 629 q 608 706 589 679 q 631 761 626 733 q 632 775 632 768 q 625 808 632 793 q 601 829 618 824 q 592 831 597 831 q 561 819 578 831 q 490 748 522 796 q 444 631 457 700 m 482 1082 q 494 1083 488 1083 q 513 1080 503 1083 q 537 1063 524 1076 q 564 1025 550 1050 q 597 960 578 1000 q 603 939 603 949 q 569 914 603 917 l 563 914 q 531 920 544 914 q 507 946 518 926 q 464 1044 475 1010 q 460 1061 460 1054 q 482 1082 460 1079 z "},"":{"ha":732,"x_min":0,"x_max":819,"o":"m 761 272 q 776 288 765 282 q 797 294 786 293 q 815 289 808 294 q 819 279 819 286 q 818 271 819 275 q 794 209 811 250 q 755 122 776 168 q 713 33 733 76 q 679 -32 692 -10 q 629 -111 658 -72 q 565 -181 600 -150 q 487 -233 529 -212 q 394 -256 444 -253 l 374 -256 q 253 -220 303 -256 q 178 -122 203 -185 q 154 10 154 -62 q 154 55 154 14 q 176 170 154 96 q 241 307 199 244 q 340 401 283 369 q 347 413 347 406 q 346 419 347 415 q 311 496 322 458 q 303 554 303 522 q 304 578 303 565 q 294 593 304 592 q 240 607 267 600 q 193 613 217 613 l 183 613 q 108 584 139 610 q 64 524 76 558 q 57 483 57 503 q 64 441 57 467 q 108 394 71 415 q 117 392 113 392 q 131 397 124 392 q 156 430 149 414 q 165 458 163 446 q 173 478 168 471 q 193 488 178 486 l 197 488 q 219 479 213 488 q 224 464 224 474 q 222 453 224 460 q 176 379 211 406 q 122 361 153 361 q 88 367 106 361 q 14 422 35 382 q 0 479 0 450 q 6 524 0 494 q 50 591 11 553 q 156 639 89 629 q 199 643 178 643 q 238 639 214 643 q 293 628 263 635 q 306 626 301 626 q 309 627 307 626 q 314 642 311 628 q 375 775 332 724 q 469 851 418 826 q 572 876 521 876 q 656 854 622 876 q 690 794 686 833 l 690 786 q 667 710 690 750 q 591 635 644 671 q 454 585 538 599 q 437 579 439 582 q 435 563 435 576 l 435 554 q 444 492 435 522 q 464 439 454 463 q 474 401 474 415 q 454 381 475 386 q 397 340 425 374 q 344 256 368 306 q 306 144 321 206 q 289 24 290 83 l 289 6 q 302 -97 289 -46 q 353 -183 315 -147 q 401 -206 375 -206 q 435 -197 417 -206 q 606 -40 529 -157 q 761 272 682 78 m 444 631 l 444 625 q 454 614 444 614 l 461 615 q 553 654 518 629 q 608 706 589 679 q 631 761 626 733 q 632 775 632 768 q 625 808 632 793 q 601 829 618 824 q 592 831 597 831 q 561 819 578 831 q 490 748 522 796 q 444 631 457 700 m 582 1078 q 604 1056 604 1075 q 597 1027 604 1049 q 557 942 589 1006 q 532 915 546 922 q 501 910 519 910 l 494 910 q 461 935 461 913 q 467 956 461 944 q 499 1021 485 996 q 527 1059 514 1046 q 554 1076 540 1072 q 571 1079 561 1079 q 582 1078 576 1079 z "},"":{"ha":732,"x_min":0,"x_max":819,"o":"m 761 272 q 776 288 765 282 q 797 294 786 293 q 815 289 808 294 q 819 279 819 286 q 818 271 819 275 q 794 209 811 250 q 755 122 776 168 q 713 33 733 76 q 679 -32 692 -10 q 629 -111 658 -72 q 565 -181 600 -150 q 487 -233 529 -212 q 394 -256 444 -253 l 374 -256 q 253 -220 303 -256 q 178 -122 203 -185 q 154 10 154 -62 q 154 55 154 14 q 176 170 154 96 q 241 307 199 244 q 340 401 283 369 q 347 413 347 406 q 346 419 347 415 q 311 496 322 458 q 303 554 303 522 q 304 578 303 565 q 294 593 304 592 q 240 607 267 600 q 193 613 217 613 l 183 613 q 108 584 139 610 q 64 524 76 558 q 57 483 57 503 q 64 441 57 467 q 108 394 71 415 q 117 392 113 392 q 131 397 124 392 q 156 430 149 414 q 165 458 163 446 q 173 478 168 471 q 193 488 178 486 l 197 488 q 219 479 213 488 q 224 464 224 474 q 222 453 224 460 q 176 379 211 406 q 122 361 153 361 q 88 367 106 361 q 14 422 35 382 q 0 479 0 450 q 6 524 0 494 q 50 591 11 553 q 156 639 89 629 q 199 643 178 643 q 238 639 214 643 q 293 628 263 635 q 306 626 301 626 q 309 627 307 626 q 314 642 311 628 q 375 775 332 724 q 469 851 418 826 q 572 876 521 876 q 656 854 622 876 q 690 794 686 833 l 690 786 q 667 710 690 750 q 591 635 644 671 q 454 585 538 599 q 437 579 439 582 q 435 563 435 576 l 435 554 q 444 492 435 522 q 464 439 454 463 q 474 401 474 415 q 454 381 475 386 q 397 340 425 374 q 344 256 368 306 q 306 144 321 206 q 289 24 290 83 l 289 6 q 302 -97 289 -46 q 353 -183 315 -147 q 401 -206 375 -206 q 435 -197 417 -206 q 606 -40 529 -157 q 761 272 682 78 m 444 631 l 444 625 q 454 614 444 614 l 461 615 q 553 654 518 629 q 608 706 589 679 q 631 761 626 733 q 632 775 632 768 q 625 808 632 793 q 601 829 618 824 q 592 831 597 831 q 561 819 578 831 q 490 748 522 796 q 444 631 457 700 m 682 957 q 683 946 683 951 q 671 925 683 935 q 636 915 658 915 l 631 915 q 588 924 610 915 q 556 957 565 933 q 545 980 550 968 q 535 1006 540 992 q 510 969 524 988 q 488 940 497 951 q 471 931 481 933 q 460 929 465 929 q 448 931 456 929 q 436 939 440 932 q 435 944 435 942 q 438 953 435 949 q 479 1019 464 996 q 502 1054 494 1043 q 511 1069 510 1065 q 513 1078 513 1074 q 525 1096 513 1089 q 556 1103 538 1103 q 593 1096 574 1103 q 626 1072 613 1089 q 642 1048 633 1063 q 658 1017 650 1033 q 672 984 665 1000 q 682 957 678 968 z "},"":{"ha":732,"x_min":0,"x_max":819,"o":"m 761 272 q 776 288 765 282 q 797 294 786 293 q 815 289 808 294 q 819 279 819 286 q 818 271 819 275 q 794 209 811 250 q 755 122 776 168 q 713 33 733 76 q 679 -32 692 -10 q 629 -111 658 -72 q 565 -181 600 -150 q 487 -233 529 -212 q 394 -256 444 -253 l 374 -256 q 253 -220 303 -256 q 178 -122 203 -185 q 154 10 154 -62 q 154 55 154 14 q 176 170 154 96 q 241 307 199 244 q 340 401 283 369 q 347 413 347 406 q 346 419 347 415 q 311 496 322 458 q 303 554 303 522 q 304 578 303 565 q 294 593 304 592 q 240 607 267 600 q 193 613 217 613 l 183 613 q 108 584 139 610 q 64 524 76 558 q 57 483 57 503 q 64 441 57 467 q 108 394 71 415 q 117 392 113 392 q 131 397 124 392 q 156 430 149 414 q 165 458 163 446 q 173 478 168 471 q 193 488 178 486 l 197 488 q 219 479 213 488 q 224 464 224 474 q 222 453 224 460 q 176 379 211 406 q 122 361 153 361 q 88 367 106 361 q 14 422 35 382 q 0 479 0 450 q 6 524 0 494 q 50 591 11 553 q 156 639 89 629 q 199 643 178 643 q 238 639 214 643 q 293 628 263 635 q 306 626 301 626 q 309 627 307 626 q 314 642 311 628 q 375 775 332 724 q 469 851 418 826 q 572 876 521 876 q 656 854 622 876 q 690 794 686 833 l 690 786 q 667 710 690 750 q 591 635 644 671 q 454 585 538 599 q 437 579 439 582 q 435 563 435 576 l 435 554 q 444 492 435 522 q 464 439 454 463 q 474 401 474 415 q 454 381 475 386 q 397 340 425 374 q 344 256 368 306 q 306 144 321 206 q 289 24 290 83 l 289 6 q 302 -97 289 -46 q 353 -183 315 -147 q 401 -206 375 -206 q 435 -197 417 -206 q 606 -40 529 -157 q 761 272 682 78 m 444 631 l 444 625 q 454 614 444 614 l 461 615 q 553 654 518 629 q 608 706 589 679 q 631 761 626 733 q 632 775 632 768 q 625 808 632 793 q 601 829 618 824 q 592 831 597 831 q 561 819 578 831 q 490 748 522 796 q 444 631 457 700 m 444 1014 q 464 1011 451 1011 q 489 1009 476 1011 q 511 1001 501 1007 q 524 981 521 994 q 525 967 525 974 q 513 933 525 947 q 482 914 501 919 q 458 911 469 911 q 432 913 449 911 q 401 925 415 915 q 382 954 385 936 q 381 964 381 958 q 387 988 381 975 q 410 1010 393 1000 q 432 1015 419 1015 q 444 1014 438 1015 m 661 1008 q 692 994 682 1004 q 702 973 701 985 q 695 950 703 961 q 674 931 688 939 q 646 922 660 924 q 617 918 632 919 q 557 942 571 924 q 544 968 544 954 q 547 983 544 972 q 568 1006 550 993 q 596 1015 581 1015 q 606 1014 600 1015 q 633 1011 619 1011 q 661 1008 647 1011 z "},"":{"ha":521,"x_min":1,"x_max":426,"o":"m 328 871 q 397 792 375 856 q 424 633 418 729 q 426 515 426 579 q 424 381 426 468 q 417 161 421 294 q 415 110 417 153 q 410 12 414 67 q 402 -97 407 -43 q 392 -182 397 -151 q 369 -208 388 -200 q 336 -215 354 -215 q 322 -215 333 -215 q 293 -205 310 -215 q 275 -174 276 -194 l 275 -156 q 277 -74 275 -131 q 283 77 279 -17 q 291 280 288 171 q 297 490 294 389 q 298 672 299 590 q 290 794 297 754 q 279 839 283 833 q 274 842 276 842 q 258 836 268 842 q 173 765 217 814 q 99 653 129 715 q 57 521 68 590 q 53 475 53 497 q 68 392 53 432 q 93 364 75 369 q 100 356 100 361 q 90 346 100 349 q 76 344 83 344 q 55 347 68 344 q 31 364 42 349 q 1 458 3 401 l 1 475 q 17 580 1 522 q 65 697 32 638 q 140 801 97 757 q 231 865 182 844 q 286 878 258 878 q 328 871 307 878 m 214 1078 q 226 1079 219 1079 q 245 1076 235 1079 q 269 1059 256 1072 q 296 1021 282 1046 q 329 956 310 996 q 335 935 335 944 q 301 910 335 913 l 294 910 q 263 916 276 910 q 239 942 250 922 q 196 1040 207 1006 q 192 1057 192 1050 q 214 1078 192 1075 z "},"":{"ha":521,"x_min":1,"x_max":426,"o":"m 328 871 q 397 792 375 856 q 424 633 418 729 q 426 515 426 579 q 424 381 426 468 q 417 161 421 294 q 415 110 417 153 q 410 12 414 67 q 402 -97 407 -43 q 392 -182 397 -151 q 369 -208 388 -200 q 336 -215 354 -215 q 322 -215 333 -215 q 293 -205 310 -215 q 275 -174 276 -194 l 275 -156 q 277 -74 275 -131 q 283 77 279 -17 q 291 280 288 171 q 297 490 294 389 q 298 672 299 590 q 290 794 297 754 q 279 839 283 833 q 274 842 276 842 q 258 836 268 842 q 173 765 217 814 q 99 653 129 715 q 57 521 68 590 q 53 475 53 497 q 68 392 53 432 q 93 364 75 369 q 100 356 100 361 q 90 346 100 349 q 76 344 83 344 q 55 347 68 344 q 31 364 42 349 q 1 458 3 401 l 1 475 q 17 580 1 522 q 65 697 32 638 q 140 801 97 757 q 231 865 182 844 q 286 878 258 878 q 328 871 307 878 m 339 1089 q 361 1067 361 1086 q 353 1038 361 1060 q 314 953 346 1017 q 289 926 303 933 q 258 921 276 921 l 251 921 q 218 946 218 924 q 224 967 218 956 q 256 1032 242 1007 q 284 1070 271 1057 q 311 1088 297 1083 q 328 1090 318 1090 q 339 1089 333 1090 z "},"":{"ha":521,"x_min":1,"x_max":426,"o":"m 328 871 q 397 792 375 856 q 424 633 418 729 q 426 515 426 579 q 424 381 426 468 q 417 161 421 294 q 415 110 417 153 q 410 12 414 67 q 402 -97 407 -43 q 392 -182 397 -151 q 369 -208 388 -200 q 336 -215 354 -215 q 322 -215 333 -215 q 293 -205 310 -215 q 275 -174 276 -194 l 275 -156 q 277 -74 275 -131 q 283 77 279 -17 q 291 280 288 171 q 297 490 294 389 q 298 672 299 590 q 290 794 297 754 q 279 839 283 833 q 274 842 276 842 q 258 836 268 842 q 173 765 217 814 q 99 653 129 715 q 57 521 68 590 q 53 475 53 497 q 68 392 53 432 q 93 364 75 369 q 100 356 100 361 q 90 346 100 349 q 76 344 83 344 q 55 347 68 344 q 31 364 42 349 q 1 458 3 401 l 1 475 q 17 580 1 522 q 65 697 32 638 q 140 801 97 757 q 231 865 182 844 q 286 878 258 878 q 328 871 307 878 m 424 950 q 425 939 425 944 q 413 918 425 928 q 378 908 400 908 l 372 908 q 329 917 351 908 q 297 950 307 926 q 287 973 292 961 q 276 999 282 985 q 252 963 265 981 q 229 933 239 944 q 213 924 222 926 q 201 922 207 922 q 190 924 197 922 q 178 932 182 925 q 176 938 176 935 q 179 946 176 942 q 221 1013 206 989 q 244 1047 236 1036 q 253 1063 251 1058 q 254 1071 254 1067 q 267 1089 254 1082 q 297 1096 279 1096 q 335 1089 315 1096 q 368 1065 354 1082 q 383 1041 375 1056 q 399 1010 392 1026 q 413 977 407 993 q 424 950 419 961 z "},"":{"ha":521,"x_min":1,"x_max":463,"o":"m 328 871 q 397 792 375 856 q 424 633 418 729 q 426 515 426 579 q 424 381 426 468 q 417 161 421 294 q 415 110 417 153 q 410 12 414 67 q 402 -97 407 -43 q 392 -182 397 -151 q 369 -208 388 -200 q 336 -215 354 -215 q 322 -215 333 -215 q 293 -205 310 -215 q 275 -174 276 -194 l 275 -156 q 277 -74 275 -131 q 283 77 279 -17 q 291 280 288 171 q 297 490 294 389 q 298 672 299 590 q 290 794 297 754 q 279 839 283 833 q 274 842 276 842 q 258 836 268 842 q 173 765 217 814 q 99 653 129 715 q 57 521 68 590 q 53 475 53 497 q 68 392 53 432 q 93 364 75 369 q 100 356 100 361 q 90 346 100 349 q 76 344 83 344 q 55 347 68 344 q 31 364 42 349 q 1 458 3 401 l 1 475 q 17 580 1 522 q 65 697 32 638 q 140 801 97 757 q 231 865 182 844 q 286 878 258 878 q 328 871 307 878 m 204 1036 q 224 1033 211 1033 q 249 1031 236 1033 q 271 1023 261 1029 q 283 1003 281 1017 q 285 989 285 996 q 273 956 285 969 q 242 936 261 942 q 218 933 229 933 q 192 935 208 933 q 161 947 175 938 q 142 976 144 958 q 140 986 140 981 q 147 1010 140 997 q 169 1032 153 1022 q 192 1038 179 1038 q 204 1036 197 1038 m 421 1031 q 451 1017 442 1026 q 462 995 461 1007 q 455 972 463 983 q 433 953 447 961 q 406 944 419 946 q 376 940 392 942 q 317 964 331 946 q 304 990 304 976 q 307 1005 304 994 q 328 1028 310 1015 q 356 1038 340 1038 q 365 1036 360 1038 q 393 1033 379 1033 q 421 1031 407 1033 z "},"":{"ha":926,"x_min":0,"x_max":836,"o":"m 554 188 q 578 167 578 179 q 573 153 578 164 q 544 139 568 143 q 513 135 528 136 q 483 132 499 133 q 485 94 485 113 q 480 13 485 57 q 460 -79 475 -32 q 458 -87 458 -83 q 464 -103 458 -96 q 483 -117 469 -111 q 515 -126 496 -124 q 540 -128 528 -128 l 553 -128 q 608 -72 579 -125 q 661 63 638 -19 q 699 247 685 146 q 708 413 708 331 q 706 491 708 432 q 681 639 704 550 q 604 783 657 728 q 476 843 547 843 q 336 803 406 843 q 210 693 267 763 q 124 544 153 624 q 101 426 101 485 q 107 358 101 407 q 178 250 113 308 q 188 246 183 246 q 199 253 194 246 q 218 294 214 276 q 224 323 222 311 q 230 341 226 335 q 249 349 233 347 l 251 349 q 278 324 278 349 l 278 317 q 250 242 271 268 q 203 213 229 217 q 192 211 197 211 q 146 225 171 211 q 99 272 121 239 q 51 425 51 342 l 51 432 q 84 586 51 510 q 178 729 117 663 q 316 835 239 796 q 479 878 393 874 l 493 878 q 647 835 571 878 q 765 710 722 792 q 824 529 807 629 q 836 375 836 454 q 833 281 836 349 q 807 119 829 214 q 749 -48 785 24 q 672 -147 714 -119 q 618 -169 647 -164 q 567 -175 593 -175 q 544 -175 563 -175 q 496 -169 525 -175 q 443 -154 467 -162 q 435 -153 439 -153 q 418 -162 425 -153 q 323 -235 376 -212 q 206 -261 269 -258 l 192 -261 q 98 -242 138 -261 q 34 -189 58 -222 q 3 -117 10 -156 q 0 -85 0 -100 q 8 -37 0 -64 q 40 14 15 -10 q 106 39 65 38 q 125 35 118 39 q 133 25 132 31 l 133 22 q 129 13 133 18 q 113 8 125 8 q 82 -7 96 8 q 63 -46 68 -22 q 58 -79 58 -61 q 60 -109 58 -89 q 82 -158 63 -129 q 171 -222 118 -215 q 185 -224 178 -224 q 272 -186 231 -224 q 314 -129 299 -162 q 338 -56 329 -96 q 349 32 346 -15 q 350 79 350 56 q 349 128 350 103 q 319 128 333 128 q 289 129 304 128 l 282 129 q 256 133 269 129 q 231 144 242 138 q 219 161 221 151 l 219 163 q 231 176 219 171 q 272 184 239 181 q 346 190 304 188 q 336 322 342 256 q 329 450 331 389 l 329 471 q 335 567 329 519 q 358 653 340 615 q 411 713 376 692 q 488 731 440 731 l 500 731 q 537 722 525 729 q 551 706 549 714 l 551 701 q 546 688 551 694 q 526 679 540 681 q 511 681 517 679 q 501 685 506 683 q 494 685 497 686 q 485 676 490 685 q 456 589 461 642 q 453 525 453 558 q 456 454 453 500 q 467 337 458 408 q 481 193 475 265 q 528 191 508 192 q 554 188 547 190 z "},"":{"ha":1157,"x_min":8,"x_max":1179,"o":"m 1121 857 q 1140 877 1128 871 q 1161 883 1151 883 q 1176 876 1171 882 q 1179 869 1179 874 q 1178 863 1179 867 q 1130 753 1153 822 q 1088 594 1107 683 q 1053 402 1068 504 q 1033 196 1039 300 q 1031 76 1031 136 q 1033 -39 1031 33 q 1053 -197 1036 -111 q 1054 -204 1054 -201 q 1033 -228 1054 -221 q 1010 -233 1019 -233 q 991 -229 1001 -233 q 966 -204 981 -225 q 935 -146 951 -183 q 894 -51 919 -108 q 838 72 864 19 q 788 169 813 125 q 740 252 764 213 q 690 337 715 292 q 634 436 664 382 q 569 565 604 490 q 569 567 569 567 q 567 571 568 568 q 563 560 563 565 q 563 551 563 556 q 576 222 569 371 q 578 138 578 179 q 563 -55 578 40 q 495 -222 549 -150 q 326 -321 442 -294 q 257 -331 289 -331 q 189 -321 229 -331 q 108 -279 149 -311 q 43 -200 68 -247 q 11 -101 18 -153 q 8 -65 8 -83 q 19 10 8 -32 q 64 90 29 51 q 114 122 85 114 q 142 126 128 126 q 175 120 156 126 q 216 88 194 114 q 246 19 238 63 q 247 8 247 14 q 242 -7 247 -1 q 221 -14 235 -14 l 213 -14 q 194 6 197 -12 q 183 48 192 29 q 158 83 174 67 q 140 97 147 97 q 121 83 132 96 q 78 -6 86 44 q 74 -53 74 -29 q 81 -117 74 -79 q 116 -198 89 -156 q 181 -262 143 -240 q 253 -283 214 -283 q 282 -282 258 -283 q 349 -240 306 -281 q 418 -121 399 -194 q 442 43 438 -47 q 443 121 443 81 q 439 253 443 175 q 433 431 435 332 l 433 454 q 442 624 433 539 q 485 781 450 710 q 497 803 492 796 q 508 815 503 811 q 518 823 514 819 q 526 833 522 826 q 554 850 536 844 q 567 851 561 851 q 585 847 576 851 q 597 831 592 844 q 601 814 601 821 q 600 807 601 810 q 594 782 594 796 q 606 727 594 763 q 647 632 617 692 q 718 501 676 572 q 803 356 760 431 q 891 206 847 281 q 968 61 935 131 q 972 67 972 64 q 972 74 972 71 q 984 263 975 157 q 1010 476 993 368 q 1053 684 1026 583 q 1121 857 1081 785 m 917 914 q 931 915 924 915 q 953 911 940 915 q 979 895 967 907 q 997 868 992 883 q 999 860 999 864 q 990 836 999 849 q 951 799 975 813 q 901 786 928 786 l 896 786 q 844 797 871 786 q 796 836 818 808 q 774 865 781 856 q 769 868 771 868 q 758 856 764 868 q 754 839 754 846 q 757 828 754 835 q 767 815 760 821 q 781 806 774 810 q 788 797 788 801 q 775 785 788 789 q 763 783 769 783 q 743 785 756 783 q 716 799 731 788 q 699 833 701 810 l 699 843 q 710 882 699 864 q 744 908 721 900 q 778 914 760 914 q 807 910 788 914 q 857 885 826 907 q 888 858 876 869 q 906 842 899 847 q 914 838 910 838 q 918 838 915 838 q 928 847 921 838 q 935 865 935 857 q 914 893 935 881 q 906 903 906 897 q 906 908 906 904 q 917 914 907 911 z "},"":{"ha":726,"x_min":0,"x_max":646,"o":"m 467 868 q 581 715 539 810 q 639 510 624 619 q 646 392 646 451 q 637 253 646 338 q 589 71 628 168 q 485 -94 550 -26 q 332 -179 421 -162 q 272 -185 300 -185 q 178 -166 228 -185 q 85 -95 128 -147 q 22 33 43 -43 q 0 197 0 108 q 23 380 0 285 q 93 567 46 475 q 115 639 111 601 q 160 808 124 743 q 249 900 197 872 q 331 919 288 919 q 381 914 344 919 q 467 868 417 908 m 310 -119 q 426 -26 374 -87 q 515 119 479 36 q 565 300 550 201 q 575 424 575 360 q 571 504 575 463 q 537 658 563 588 q 478 778 511 728 q 408 858 444 829 q 339 889 371 888 q 328 890 333 890 q 295 882 311 890 q 264 858 279 874 q 205 765 219 818 q 185 656 190 713 l 185 653 q 188 647 185 649 q 198 646 190 646 q 215 644 206 646 q 236 638 225 643 q 249 622 249 631 q 243 610 249 617 q 217 559 228 586 q 194 506 206 532 q 192 489 192 499 q 197 452 192 476 q 217 393 201 428 q 255 326 232 358 q 306 278 278 294 q 318 274 313 274 q 338 281 326 274 q 360 305 349 288 q 379 346 372 322 q 382 372 382 360 q 381 393 382 383 q 375 418 378 406 q 367 442 372 431 q 353 461 363 453 q 326 472 343 469 q 319 479 319 474 q 322 488 319 482 q 340 496 325 493 q 353 497 346 497 q 391 484 372 497 q 422 445 410 471 q 439 389 435 419 q 440 365 440 376 q 435 322 440 346 q 409 274 429 297 q 354 242 389 250 q 308 236 329 236 q 226 264 265 236 q 154 358 186 292 q 151 351 151 353 q 150 347 150 350 q 133 201 133 269 q 140 110 133 171 q 174 -13 146 50 q 242 -106 203 -76 q 288 -125 267 -125 q 310 -119 299 -125 m 285 1150 q 297 1151 290 1151 q 316 1148 306 1151 q 340 1131 326 1144 q 367 1093 353 1118 q 400 1028 381 1068 q 406 1007 406 1017 q 372 982 406 985 l 365 982 q 334 988 347 982 q 310 1014 321 994 q 267 1113 278 1078 q 263 1129 263 1122 q 285 1150 263 1147 z "}}}
